G04 #@! TF.FileFunction,Legend,Top*
%FSLAX46Y46*%
G04 Gerber Fmt 4.6, Leading zero omitted, Abs format (unit mm)*
G04 Created by KiCad (PCBNEW 4.0.1-stable) date Tuesday, April 05, 2016 'PMt' 08:52:22 PM*
%MOMM*%
G01*
G04 APERTURE LIST*
%ADD10C,0.100000*%
%ADD11C,0.300000*%
%ADD12C,0.150000*%
G04 APERTURE END LIST*
D10*
D11*
X129679143Y-91750571D02*
X129679143Y-90250571D01*
X130250571Y-90250571D01*
X130393429Y-90322000D01*
X130464857Y-90393429D01*
X130536286Y-90536286D01*
X130536286Y-90750571D01*
X130464857Y-90893429D01*
X130393429Y-90964857D01*
X130250571Y-91036286D01*
X129679143Y-91036286D01*
X131179143Y-91750571D02*
X131179143Y-90250571D01*
X131536286Y-90250571D01*
X131750571Y-90322000D01*
X131893429Y-90464857D01*
X131964857Y-90607714D01*
X132036286Y-90893429D01*
X132036286Y-91107714D01*
X131964857Y-91393429D01*
X131893429Y-91536286D01*
X131750571Y-91679143D01*
X131536286Y-91750571D01*
X131179143Y-91750571D01*
X133464857Y-90322000D02*
X133322000Y-90250571D01*
X133107714Y-90250571D01*
X132893429Y-90322000D01*
X132750571Y-90464857D01*
X132679143Y-90607714D01*
X132607714Y-90893429D01*
X132607714Y-91107714D01*
X132679143Y-91393429D01*
X132750571Y-91536286D01*
X132893429Y-91679143D01*
X133107714Y-91750571D01*
X133250571Y-91750571D01*
X133464857Y-91679143D01*
X133536286Y-91607714D01*
X133536286Y-91107714D01*
X133250571Y-91107714D01*
X129714857Y-94150571D02*
X129714857Y-92650571D01*
X130072000Y-92650571D01*
X130286285Y-92722000D01*
X130429143Y-92864857D01*
X130500571Y-93007714D01*
X130572000Y-93293429D01*
X130572000Y-93507714D01*
X130500571Y-93793429D01*
X130429143Y-93936286D01*
X130286285Y-94079143D01*
X130072000Y-94150571D01*
X129714857Y-94150571D01*
X131929143Y-94150571D02*
X131214857Y-94150571D01*
X131214857Y-92650571D01*
X132429143Y-94150571D02*
X132429143Y-92650571D01*
X132929143Y-93722000D01*
X133429143Y-92650571D01*
X133429143Y-94150571D01*
X122857716Y-96550571D02*
X122357716Y-95836286D01*
X122000573Y-96550571D02*
X122000573Y-95050571D01*
X122572001Y-95050571D01*
X122714859Y-95122000D01*
X122786287Y-95193429D01*
X122857716Y-95336286D01*
X122857716Y-95550571D01*
X122786287Y-95693429D01*
X122714859Y-95764857D01*
X122572001Y-95836286D01*
X122000573Y-95836286D01*
X123714859Y-96550571D02*
X123572001Y-96479143D01*
X123500573Y-96407714D01*
X123429144Y-96264857D01*
X123429144Y-95836286D01*
X123500573Y-95693429D01*
X123572001Y-95622000D01*
X123714859Y-95550571D01*
X123929144Y-95550571D01*
X124072001Y-95622000D01*
X124143430Y-95693429D01*
X124214859Y-95836286D01*
X124214859Y-96264857D01*
X124143430Y-96407714D01*
X124072001Y-96479143D01*
X123929144Y-96550571D01*
X123714859Y-96550571D01*
X124857716Y-96550571D02*
X124857716Y-95050571D01*
X124857716Y-95622000D02*
X125000573Y-95550571D01*
X125286287Y-95550571D01*
X125429144Y-95622000D01*
X125500573Y-95693429D01*
X125572002Y-95836286D01*
X125572002Y-96264857D01*
X125500573Y-96407714D01*
X125429144Y-96479143D01*
X125286287Y-96550571D01*
X125000573Y-96550571D01*
X124857716Y-96479143D01*
X126429145Y-96550571D02*
X126286287Y-96479143D01*
X126214859Y-96407714D01*
X126143430Y-96264857D01*
X126143430Y-95836286D01*
X126214859Y-95693429D01*
X126286287Y-95622000D01*
X126429145Y-95550571D01*
X126643430Y-95550571D01*
X126786287Y-95622000D01*
X126857716Y-95693429D01*
X126929145Y-95836286D01*
X126929145Y-96264857D01*
X126857716Y-96407714D01*
X126786287Y-96479143D01*
X126643430Y-96550571D01*
X126429145Y-96550571D01*
X127357716Y-95550571D02*
X127929145Y-95550571D01*
X127572002Y-95050571D02*
X127572002Y-96336286D01*
X127643430Y-96479143D01*
X127786288Y-96550571D01*
X127929145Y-96550571D01*
X128429145Y-95979143D02*
X129572002Y-95979143D01*
X130214859Y-95193429D02*
X130286288Y-95122000D01*
X130429145Y-95050571D01*
X130786288Y-95050571D01*
X130929145Y-95122000D01*
X131000574Y-95193429D01*
X131072002Y-95336286D01*
X131072002Y-95479143D01*
X131000574Y-95693429D01*
X130143431Y-96550571D01*
X131072002Y-96550571D01*
X132000573Y-95050571D02*
X132143430Y-95050571D01*
X132286287Y-95122000D01*
X132357716Y-95193429D01*
X132429145Y-95336286D01*
X132500573Y-95622000D01*
X132500573Y-95979143D01*
X132429145Y-96264857D01*
X132357716Y-96407714D01*
X132286287Y-96479143D01*
X132143430Y-96550571D01*
X132000573Y-96550571D01*
X131857716Y-96479143D01*
X131786287Y-96407714D01*
X131714859Y-96264857D01*
X131643430Y-95979143D01*
X131643430Y-95622000D01*
X131714859Y-95336286D01*
X131786287Y-95193429D01*
X131857716Y-95122000D01*
X132000573Y-95050571D01*
X133929144Y-96550571D02*
X133072001Y-96550571D01*
X133500573Y-96550571D02*
X133500573Y-95050571D01*
X133357716Y-95264857D01*
X133214858Y-95407714D01*
X133072001Y-95479143D01*
X135214858Y-95050571D02*
X134929144Y-95050571D01*
X134786287Y-95122000D01*
X134714858Y-95193429D01*
X134572001Y-95407714D01*
X134500572Y-95693429D01*
X134500572Y-96264857D01*
X134572001Y-96407714D01*
X134643429Y-96479143D01*
X134786287Y-96550571D01*
X135072001Y-96550571D01*
X135214858Y-96479143D01*
X135286287Y-96407714D01*
X135357715Y-96264857D01*
X135357715Y-95907714D01*
X135286287Y-95764857D01*
X135214858Y-95693429D01*
X135072001Y-95622000D01*
X134786287Y-95622000D01*
X134643429Y-95693429D01*
X134572001Y-95764857D01*
X134500572Y-95907714D01*
X137000572Y-95550571D02*
X137357715Y-96550571D01*
X137714857Y-95550571D01*
X139072000Y-96550571D02*
X138214857Y-96550571D01*
X138643429Y-96550571D02*
X138643429Y-95050571D01*
X138500572Y-95264857D01*
X138357714Y-95407714D01*
X138214857Y-95479143D01*
X139714857Y-96407714D02*
X139786285Y-96479143D01*
X139714857Y-96550571D01*
X139643428Y-96479143D01*
X139714857Y-96407714D01*
X139714857Y-96550571D01*
X140714857Y-95050571D02*
X140857714Y-95050571D01*
X141000571Y-95122000D01*
X141072000Y-95193429D01*
X141143429Y-95336286D01*
X141214857Y-95622000D01*
X141214857Y-95979143D01*
X141143429Y-96264857D01*
X141072000Y-96407714D01*
X141000571Y-96479143D01*
X140857714Y-96550571D01*
X140714857Y-96550571D01*
X140572000Y-96479143D01*
X140500571Y-96407714D01*
X140429143Y-96264857D01*
X140357714Y-95979143D01*
X140357714Y-95622000D01*
X140429143Y-95336286D01*
X140500571Y-95193429D01*
X140572000Y-95122000D01*
X140714857Y-95050571D01*
D12*
X140843000Y-66548000D02*
G75*
G03X140843000Y-66548000I-2286000J0D01*
G01*
X199390000Y-124968000D02*
G75*
G03X199390000Y-124968000I-2286000J0D01*
G01*
X140843000Y-125095000D02*
G75*
G03X140843000Y-125095000I-2286000J0D01*
G01*
X201930000Y-90170000D02*
X177800000Y-90170000D01*
X201930000Y-67310000D02*
X177800000Y-67310000D01*
X177800000Y-67310000D02*
X177800000Y-90170000D01*
X201930000Y-67310000D02*
X201930000Y-90170000D01*
X197612000Y-70104000D02*
X200152000Y-70104000D01*
X194792000Y-69824000D02*
X196342000Y-69824000D01*
X197612000Y-70104000D02*
X197612000Y-72644000D01*
X196342000Y-72924000D02*
X194792000Y-72924000D01*
X194792000Y-72924000D02*
X194792000Y-69824000D01*
X197612000Y-72644000D02*
X200152000Y-72644000D01*
X200152000Y-72644000D02*
X200152000Y-70104000D01*
X151900000Y-135470000D02*
X152900000Y-135470000D01*
X152900000Y-133770000D02*
X151900000Y-133770000D01*
X160440000Y-135390000D02*
X160440000Y-136390000D01*
X162140000Y-136390000D02*
X162140000Y-135390000D01*
X157345000Y-131230000D02*
X156345000Y-131230000D01*
X156345000Y-132930000D02*
X157345000Y-132930000D01*
X166235000Y-131230000D02*
X165235000Y-131230000D01*
X165235000Y-132930000D02*
X166235000Y-132930000D01*
X186524000Y-71874000D02*
X186524000Y-70874000D01*
X184824000Y-70874000D02*
X184824000Y-71874000D01*
X163590000Y-136490000D02*
X163590000Y-135290000D01*
X165340000Y-135290000D02*
X165340000Y-136490000D01*
X151800000Y-130570000D02*
X153000000Y-130570000D01*
X153000000Y-132320000D02*
X151800000Y-132320000D01*
X151800000Y-136285000D02*
X153000000Y-136285000D01*
X153000000Y-138035000D02*
X151800000Y-138035000D01*
X165340000Y-139100000D02*
X165340000Y-140300000D01*
X163590000Y-140300000D02*
X163590000Y-139100000D01*
X160415000Y-140300000D02*
X160415000Y-139100000D01*
X162165000Y-139100000D02*
X162165000Y-140300000D01*
X160690000Y-131205000D02*
X161890000Y-131205000D01*
X161890000Y-132955000D02*
X160690000Y-132955000D01*
X200660000Y-100076000D02*
X200660000Y-92456000D01*
X200660000Y-92456000D02*
X195580000Y-92456000D01*
X195580000Y-92456000D02*
X195580000Y-102616000D01*
X195580000Y-102616000D02*
X198120000Y-102616000D01*
X199390000Y-102896000D02*
X200940000Y-102896000D01*
X198120000Y-102616000D02*
X198120000Y-100076000D01*
X198120000Y-100076000D02*
X200660000Y-100076000D01*
X200940000Y-102896000D02*
X200940000Y-101346000D01*
X162332000Y-103124000D02*
X162332000Y-104674000D01*
X162332000Y-104674000D02*
X159232000Y-104674000D01*
X159232000Y-104674000D02*
X159232000Y-103124000D01*
X159512000Y-101854000D02*
X159512000Y-91694000D01*
X159512000Y-91694000D02*
X162052000Y-91694000D01*
X162052000Y-91694000D02*
X162052000Y-101854000D01*
X159512000Y-101854000D02*
X162052000Y-101854000D01*
X155245000Y-136190000D02*
G75*
G03X155245000Y-136190000I-100000J0D01*
G01*
X155395000Y-135640000D02*
X155395000Y-136140000D01*
X158295000Y-135640000D02*
X155395000Y-135640000D01*
X158295000Y-136140000D02*
X158295000Y-135640000D01*
X155395000Y-136140000D02*
X158295000Y-136140000D01*
X166650000Y-140055000D02*
X166875000Y-140055000D01*
X166650000Y-136805000D02*
X166875000Y-136805000D01*
X169900000Y-136805000D02*
X169675000Y-136805000D01*
X169900000Y-140055000D02*
X169675000Y-140055000D01*
X166650000Y-140055000D02*
X166650000Y-136805000D01*
X169900000Y-140055000D02*
X169900000Y-136805000D01*
X166875000Y-140055000D02*
X166875000Y-141130000D01*
X204524000Y-70944000D02*
G75*
G03X204524000Y-70944000I-100000J0D01*
G01*
X204974000Y-71194000D02*
X204474000Y-71194000D01*
X204974000Y-74094000D02*
X204974000Y-71194000D01*
X204474000Y-74094000D02*
X204974000Y-74094000D01*
X204474000Y-71194000D02*
X204474000Y-74094000D01*
X181410000Y-69674000D02*
G75*
G03X181410000Y-69674000I-100000J0D01*
G01*
X181860000Y-69924000D02*
X181360000Y-69924000D01*
X181860000Y-72824000D02*
X181860000Y-69924000D01*
X181360000Y-72824000D02*
X181860000Y-72824000D01*
X181360000Y-69924000D02*
X181360000Y-72824000D01*
X191770000Y-118364000D02*
X153670000Y-118364000D01*
X153670000Y-118364000D02*
X153670000Y-120904000D01*
X153670000Y-120904000D02*
X191770000Y-120904000D01*
X194590000Y-121184000D02*
X193040000Y-121184000D01*
X191770000Y-120904000D02*
X191770000Y-118364000D01*
X193040000Y-118084000D02*
X194590000Y-118084000D01*
X194590000Y-118084000D02*
X194590000Y-121184000D01*
X143764000Y-96774000D02*
X143764000Y-101854000D01*
X143484000Y-93954000D02*
X145034000Y-93954000D01*
X146304000Y-94234000D02*
X146304000Y-96774000D01*
X146304000Y-96774000D02*
X143764000Y-96774000D01*
X143764000Y-101854000D02*
X148844000Y-101854000D01*
X148844000Y-101854000D02*
X148844000Y-96774000D01*
X143484000Y-93954000D02*
X143484000Y-95504000D01*
X148844000Y-94234000D02*
X146304000Y-94234000D01*
X148844000Y-96774000D02*
X148844000Y-94234000D01*
X188214000Y-96520000D02*
X188214000Y-101600000D01*
X187934000Y-93700000D02*
X189484000Y-93700000D01*
X190754000Y-93980000D02*
X190754000Y-96520000D01*
X190754000Y-96520000D02*
X188214000Y-96520000D01*
X188214000Y-101600000D02*
X193294000Y-101600000D01*
X193294000Y-101600000D02*
X193294000Y-96520000D01*
X187934000Y-93700000D02*
X187934000Y-95250000D01*
X193294000Y-93980000D02*
X190754000Y-93980000D01*
X193294000Y-96520000D02*
X193294000Y-93980000D01*
X188214000Y-61468000D02*
X183134000Y-61468000D01*
X183134000Y-61468000D02*
X183134000Y-64008000D01*
X183134000Y-64008000D02*
X188214000Y-64008000D01*
X191034000Y-64288000D02*
X189484000Y-64288000D01*
X188214000Y-64008000D02*
X188214000Y-61468000D01*
X189484000Y-61188000D02*
X191034000Y-61188000D01*
X191034000Y-61188000D02*
X191034000Y-64288000D01*
X171323000Y-68326000D02*
X171450000Y-89154000D01*
X138430000Y-89154000D02*
X139192000Y-89154000D01*
X138430000Y-88773000D02*
X138430000Y-89154000D01*
X138430000Y-68326000D02*
X138684000Y-68326000D01*
X138430000Y-68580000D02*
X138430000Y-68326000D01*
X138430000Y-68326000D02*
X138430000Y-68580000D01*
X138430000Y-68580000D02*
X138430000Y-88900000D01*
X138727000Y-89155399D02*
X171407000Y-89155400D01*
X171280000Y-68324601D02*
X138600000Y-68324600D01*
X194056000Y-83820000D02*
X191516000Y-83820000D01*
X196876000Y-84100000D02*
X195326000Y-84100000D01*
X194056000Y-83820000D02*
X194056000Y-81280000D01*
X195326000Y-81000000D02*
X196876000Y-81000000D01*
X196876000Y-81000000D02*
X196876000Y-84100000D01*
X194056000Y-81280000D02*
X191516000Y-81280000D01*
X191516000Y-81280000D02*
X191516000Y-83820000D01*
X186842400Y-106426000D02*
X186842400Y-117043200D01*
X169341800Y-106426000D02*
X169367200Y-110794800D01*
X169875200Y-112649000D02*
X169849800Y-110820200D01*
X169384800Y-117044599D02*
X186824800Y-117044600D01*
X186824800Y-106424601D02*
X169384800Y-106424600D01*
X169384800Y-110811267D02*
X169834800Y-110811267D01*
X169834800Y-112657933D02*
X169384800Y-112657933D01*
X169384800Y-112657933D02*
X169384800Y-117044599D01*
X144780000Y-109220000D02*
X143510000Y-109220000D01*
X143510000Y-109220000D02*
X143510000Y-107950000D01*
X143510000Y-107950000D02*
X144780000Y-107950000D01*
X144900000Y-115235000D02*
X144900000Y-101935000D01*
X144900000Y-101935000D02*
X126880000Y-101935000D01*
X126880000Y-101935000D02*
X126880000Y-115235000D01*
X126880000Y-115235000D02*
X144900000Y-115235000D01*
X149733000Y-59309000D02*
X182753000Y-59309000D01*
X152273000Y-54229000D02*
X182753000Y-54229000D01*
X182753000Y-59309000D02*
X182753000Y-54229000D01*
X149733000Y-59309000D02*
X149733000Y-56769000D01*
X151003000Y-53949000D02*
X149453000Y-53949000D01*
X149733000Y-56769000D02*
X152273000Y-56769000D01*
X152273000Y-56769000D02*
X152273000Y-54229000D01*
X149453000Y-53949000D02*
X149453000Y-55499000D01*
X132827205Y-78663800D02*
G75*
G03X132827205Y-78663800I-2347405J0D01*
G01*
X125246000Y-75100000D02*
X125246000Y-82379999D01*
X125246000Y-82379999D02*
X135866000Y-82380000D01*
X135866000Y-82380000D02*
X135866000Y-75100001D01*
X135866000Y-75100001D02*
X132326000Y-75100000D01*
X132300600Y-75092800D02*
X128760601Y-75092800D01*
X128786001Y-75100000D02*
X125246000Y-75100000D01*
X199390000Y-66548000D02*
G75*
G03X199390000Y-66548000I-2286000J0D01*
G01*
M02*
