G04 #@! TF.FileFunction,Paste,Top*
%FSLAX46Y46*%
G04 Gerber Fmt 4.6, Leading zero omitted, Abs format (unit mm)*
G04 Created by KiCad (PCBNEW 4.0.1-stable) date Tuesday, April 05, 2016 'PMt' 08:52:22 PM*
%MOMM*%
G01*
G04 APERTURE LIST*
%ADD10C,0.100000*%
%ADD11R,1.000000X1.250000*%
%ADD12R,1.250000X1.000000*%
%ADD13R,1.300000X0.700000*%
%ADD14R,0.700000X1.300000*%
%ADD15R,0.650000X1.060000*%
%ADD16R,0.400000X1.100000*%
%ADD17R,1.060000X0.650000*%
%ADD18R,0.510000X2.000000*%
%ADD19R,1.000000X1.200000*%
G04 APERTURE END LIST*
D10*
D11*
X153400000Y-134620000D03*
X151400000Y-134620000D03*
D12*
X161290000Y-136890000D03*
X161290000Y-134890000D03*
D11*
X155845000Y-132080000D03*
X157845000Y-132080000D03*
X164735000Y-132080000D03*
X166735000Y-132080000D03*
D12*
X185674000Y-70374000D03*
X185674000Y-72374000D03*
D13*
X164465000Y-134940000D03*
X164465000Y-136840000D03*
D14*
X153350000Y-131445000D03*
X151450000Y-131445000D03*
X153350000Y-137160000D03*
X151450000Y-137160000D03*
D13*
X164465000Y-140650000D03*
X164465000Y-138750000D03*
X161290000Y-138750000D03*
X161290000Y-140650000D03*
D14*
X162240000Y-132080000D03*
X160340000Y-132080000D03*
D15*
X155895000Y-136990000D03*
X156845000Y-136990000D03*
X157795000Y-136990000D03*
X157795000Y-134790000D03*
X155895000Y-134790000D03*
D16*
X167300000Y-140580000D03*
X167950000Y-140580000D03*
X168600000Y-140580000D03*
X169250000Y-140580000D03*
X169250000Y-136280000D03*
X168600000Y-136280000D03*
X167950000Y-136280000D03*
X167300000Y-136280000D03*
D17*
X203624000Y-71694000D03*
X203624000Y-72644000D03*
X203624000Y-73594000D03*
X205824000Y-73594000D03*
X205824000Y-71694000D03*
X180510000Y-70424000D03*
X180510000Y-71374000D03*
X180510000Y-72324000D03*
X182710000Y-72324000D03*
X182710000Y-70424000D03*
D18*
X144145000Y-113735000D03*
X144145000Y-103435000D03*
X142875000Y-113735000D03*
X142875000Y-103435000D03*
X141605000Y-113735000D03*
X141605000Y-103435000D03*
X140335000Y-113735000D03*
X140335000Y-103435000D03*
X139065000Y-113735000D03*
X139065000Y-103435000D03*
X137795000Y-113735000D03*
X137795000Y-103435000D03*
X136525000Y-113735000D03*
X136525000Y-103435000D03*
X135255000Y-113735000D03*
X135255000Y-103435000D03*
X133985000Y-113735000D03*
X133985000Y-103435000D03*
X132715000Y-113735000D03*
X132715000Y-103435000D03*
X131445000Y-113735000D03*
X131445000Y-103435000D03*
X130175000Y-113735000D03*
X130175000Y-103435000D03*
X128905000Y-113735000D03*
X128905000Y-103435000D03*
X127635000Y-113735000D03*
X127635000Y-103435000D03*
D19*
X166575000Y-144780000D03*
X169975000Y-144780000D03*
M02*
