G04 #@! TF.FileFunction,Copper,L2,Bot,Signal*
%FSLAX46Y46*%
G04 Gerber Fmt 4.6, Leading zero omitted, Abs format (unit mm)*
G04 Created by KiCad (PCBNEW 4.0.1-stable) date Tuesday, April 05, 2016 'PMt' 08:52:22 PM*
%MOMM*%
G01*
G04 APERTURE LIST*
%ADD10C,0.100000*%
%ADD11C,4.064000*%
%ADD12C,1.524000*%
%ADD13R,2.032000X2.032000*%
%ADD14O,2.032000X2.032000*%
%ADD15R,1.250000X1.000000*%
%ADD16R,1.000000X1.250000*%
%ADD17R,1.300000X0.700000*%
%ADD18R,1.727200X1.727200*%
%ADD19O,1.727200X1.727200*%
%ADD20R,2.032000X1.727200*%
%ADD21O,2.032000X1.727200*%
%ADD22R,1.727200X2.032000*%
%ADD23O,1.727200X2.032000*%
%ADD24O,1.200000X2.000000*%
%ADD25R,1.000000X1.200000*%
%ADD26O,2.000000X1.200000*%
%ADD27C,0.600000*%
%ADD28C,0.250000*%
%ADD29C,0.254000*%
G04 APERTURE END LIST*
D10*
D11*
X138557000Y-66548000D03*
X197104000Y-124968000D03*
X138557000Y-125095000D03*
D12*
X199390000Y-74930000D03*
X199390000Y-77470000D03*
X199390000Y-80010000D03*
X199390000Y-82550000D03*
X181610000Y-82550000D03*
X181610000Y-80010000D03*
X181610000Y-77470000D03*
X179070000Y-77470000D03*
X179070000Y-80010000D03*
X179070000Y-82550000D03*
D13*
X196342000Y-71374000D03*
D14*
X198882000Y-71374000D03*
D15*
X168275000Y-137430000D03*
X168275000Y-139430000D03*
X180594000Y-73390000D03*
X180594000Y-71390000D03*
X201676000Y-74660000D03*
X201676000Y-72660000D03*
D16*
X205724000Y-72644000D03*
X203724000Y-72644000D03*
D15*
X183261000Y-73390000D03*
X183261000Y-71390000D03*
D16*
X133969000Y-105791000D03*
X131969000Y-105791000D03*
D17*
X173990000Y-144460000D03*
X173990000Y-142560000D03*
D18*
X199390000Y-101346000D03*
D19*
X196850000Y-101346000D03*
X199390000Y-98806000D03*
X196850000Y-98806000D03*
X199390000Y-96266000D03*
X196850000Y-96266000D03*
X199390000Y-93726000D03*
X196850000Y-93726000D03*
D20*
X160782000Y-103124000D03*
D21*
X160782000Y-100584000D03*
X160782000Y-98044000D03*
X160782000Y-95504000D03*
X160782000Y-92964000D03*
D22*
X193040000Y-119634000D03*
D23*
X190500000Y-119634000D03*
X187960000Y-119634000D03*
X185420000Y-119634000D03*
X182880000Y-119634000D03*
X180340000Y-119634000D03*
X177800000Y-119634000D03*
X175260000Y-119634000D03*
X172720000Y-119634000D03*
X170180000Y-119634000D03*
X167640000Y-119634000D03*
X165100000Y-119634000D03*
X162560000Y-119634000D03*
X160020000Y-119634000D03*
X157480000Y-119634000D03*
X154940000Y-119634000D03*
D18*
X145034000Y-95504000D03*
D19*
X147574000Y-95504000D03*
X145034000Y-98044000D03*
X147574000Y-98044000D03*
X145034000Y-100584000D03*
X147574000Y-100584000D03*
D18*
X189484000Y-95250000D03*
D19*
X192024000Y-95250000D03*
X189484000Y-97790000D03*
X192024000Y-97790000D03*
X189484000Y-100330000D03*
X192024000Y-100330000D03*
D22*
X189484000Y-62738000D03*
D23*
X186944000Y-62738000D03*
X184404000Y-62738000D03*
D12*
X139700000Y-69850000D03*
X139700000Y-87630000D03*
X142240000Y-69850000D03*
X142240000Y-87630000D03*
X144780000Y-69850000D03*
X144780000Y-87630000D03*
X147320000Y-69850000D03*
X147320000Y-87630000D03*
X149860000Y-69850000D03*
X149860000Y-87630000D03*
X152400000Y-69850000D03*
X152400000Y-87630000D03*
X154940000Y-69850000D03*
X154940000Y-87630000D03*
X157480000Y-69850000D03*
X157480000Y-87630000D03*
X160020000Y-69850000D03*
X160020000Y-87630000D03*
X162560000Y-69850000D03*
X162560000Y-87630000D03*
X165100000Y-69850000D03*
X165100000Y-87630000D03*
X167640000Y-69850000D03*
X167640000Y-87630000D03*
X170180000Y-69850000D03*
X170180000Y-87630000D03*
X170180000Y-74930000D03*
X170180000Y-77470000D03*
X170180000Y-80010000D03*
X170180000Y-82550000D03*
X167640000Y-82550000D03*
X167640000Y-80010000D03*
X167640000Y-77470000D03*
X167640000Y-74930000D03*
D13*
X195326000Y-82550000D03*
D14*
X192786000Y-82550000D03*
D24*
X170484800Y-107924600D03*
X170484800Y-115544600D03*
X173024800Y-107924600D03*
X173024800Y-115544600D03*
X175564800Y-107924600D03*
X175564800Y-115544600D03*
X178104800Y-107924600D03*
X178104800Y-115544600D03*
X180644800Y-107924600D03*
X180644800Y-115544600D03*
X183184800Y-107924600D03*
X183184800Y-115544600D03*
X185724800Y-107924600D03*
X185724800Y-115544600D03*
D25*
X169975000Y-144780000D03*
X166575000Y-144780000D03*
D18*
X151003000Y-55499000D03*
D19*
X151003000Y-58039000D03*
X153543000Y-55499000D03*
X153543000Y-58039000D03*
X156083000Y-55499000D03*
X156083000Y-58039000D03*
X158623000Y-55499000D03*
X158623000Y-58039000D03*
X161163000Y-55499000D03*
X161163000Y-58039000D03*
X163703000Y-55499000D03*
X163703000Y-58039000D03*
X166243000Y-55499000D03*
X166243000Y-58039000D03*
X168783000Y-55499000D03*
X168783000Y-58039000D03*
X171323000Y-55499000D03*
X171323000Y-58039000D03*
X173863000Y-55499000D03*
X173863000Y-58039000D03*
X176403000Y-55499000D03*
X176403000Y-58039000D03*
X178943000Y-55499000D03*
X178943000Y-58039000D03*
X181483000Y-55499000D03*
X181483000Y-58039000D03*
D26*
X134366000Y-76200000D03*
X126746000Y-76200000D03*
X134366000Y-81280000D03*
X126746000Y-81280000D03*
D11*
X197104000Y-66548000D03*
D27*
X186817000Y-111633000D03*
X180594000Y-73406000D03*
X201676000Y-74676000D03*
X157861000Y-131953000D03*
X170561000Y-140716000D03*
X150495000Y-96774000D03*
X188214000Y-71755000D03*
X131953000Y-105791000D03*
X180594000Y-71390000D03*
X203624000Y-72644000D03*
X170180000Y-138430000D03*
X163830000Y-144145000D03*
X162560000Y-136525000D03*
X169545000Y-134620000D03*
X168910000Y-142875000D03*
X159385000Y-134620000D03*
X168275000Y-137541000D03*
X133969000Y-105791000D03*
X183261000Y-73390000D03*
X154305000Y-132080000D03*
X173863000Y-142494000D03*
X171704000Y-112141000D03*
X154813000Y-104140000D03*
X150876000Y-84455000D03*
X202057000Y-104394000D03*
X164465000Y-140716000D03*
X174879000Y-140716000D03*
X128778000Y-103378000D03*
X130175000Y-103632000D03*
X149225000Y-63500000D03*
X155321000Y-65151000D03*
X151638000Y-72009000D03*
X170307000Y-90678000D03*
X159512000Y-63373000D03*
X154051000Y-71882000D03*
X165227000Y-67691000D03*
X176022000Y-76073000D03*
X178435000Y-88519000D03*
X162941000Y-116713000D03*
X205740000Y-72644000D03*
X141986000Y-65278000D03*
X150622000Y-64897000D03*
X154051000Y-64135000D03*
D28*
X160782000Y-95504000D02*
X165100000Y-95504000D01*
X173024800Y-103428800D02*
X173024800Y-107924600D01*
X165100000Y-95504000D02*
X173024800Y-103428800D01*
X180594000Y-73390000D02*
X180594000Y-74295000D01*
X198247000Y-111633000D02*
X186817000Y-111633000D01*
X203962000Y-105918000D02*
X198247000Y-111633000D01*
X203962000Y-92202000D02*
X203962000Y-105918000D01*
X201930000Y-90170000D02*
X203962000Y-92202000D01*
X185801000Y-90170000D02*
X201930000Y-90170000D01*
X183642000Y-88011000D02*
X185801000Y-90170000D01*
X183642000Y-77343000D02*
X183642000Y-88011000D01*
X180594000Y-74295000D02*
X183642000Y-77343000D01*
X180594000Y-73406000D02*
X180594000Y-73390000D01*
X201676000Y-74676000D02*
X201676000Y-74660000D01*
X157861000Y-127127000D02*
X157861000Y-131953000D01*
X154940000Y-124206000D02*
X157861000Y-127127000D01*
X154940000Y-119634000D02*
X154940000Y-124206000D01*
X154940000Y-119634000D02*
X154940000Y-118872000D01*
X154940000Y-118872000D02*
X158750000Y-115062000D01*
X158750000Y-115062000D02*
X170002200Y-115062000D01*
X170002200Y-115062000D02*
X170484800Y-115544600D01*
X168275000Y-139430000D02*
X169275000Y-139430000D01*
X169275000Y-139430000D02*
X170561000Y-140716000D01*
X189484000Y-95250000D02*
X189484000Y-95631000D01*
X189484000Y-95631000D02*
X190754000Y-96901000D01*
X190754000Y-96901000D02*
X190754000Y-98552000D01*
X190754000Y-98552000D02*
X191262000Y-99060000D01*
X191262000Y-99060000D02*
X196596000Y-99060000D01*
X196596000Y-99060000D02*
X196850000Y-98806000D01*
X201676000Y-72660000D02*
X200168000Y-72660000D01*
X200168000Y-72660000D02*
X198882000Y-71374000D01*
X198882000Y-71374000D02*
X198882000Y-71501000D01*
X198882000Y-71501000D02*
X192786000Y-77597000D01*
X192786000Y-77597000D02*
X192786000Y-82550000D01*
X145034000Y-95504000D02*
X145161000Y-95504000D01*
X145161000Y-95504000D02*
X146431000Y-96774000D01*
X146431000Y-96774000D02*
X150495000Y-96774000D01*
X183261000Y-71390000D02*
X187849000Y-71390000D01*
X187849000Y-71390000D02*
X188214000Y-71755000D01*
X131953000Y-105791000D02*
X131969000Y-105791000D01*
X180594000Y-71390000D02*
X183261000Y-71390000D01*
X201676000Y-72660000D02*
X203708000Y-72660000D01*
X203708000Y-72660000D02*
X203724000Y-72644000D01*
X203624000Y-72644000D02*
X203724000Y-72644000D01*
X168275000Y-139430000D02*
X169180000Y-139430000D01*
X169180000Y-139430000D02*
X170180000Y-138430000D01*
X166575000Y-144780000D02*
X164465000Y-144780000D01*
X164465000Y-144780000D02*
X163830000Y-144145000D01*
X169545000Y-134620000D02*
X164465000Y-134620000D01*
X164465000Y-134620000D02*
X162560000Y-136525000D01*
X161290000Y-142875000D02*
X168910000Y-142875000D01*
X159385000Y-134620000D02*
X159385000Y-141605000D01*
X159385000Y-141605000D02*
X161290000Y-142875000D01*
X168275000Y-137541000D02*
X168275000Y-137430000D01*
X190500000Y-119888000D02*
X190500000Y-119634000D01*
X173990000Y-144460000D02*
X170295000Y-144460000D01*
X170295000Y-144460000D02*
X169975000Y-144780000D01*
X173929000Y-142560000D02*
X173863000Y-142494000D01*
X154813000Y-104140000D02*
X154813000Y-108077000D01*
X154813000Y-108077000D02*
X157861000Y-111125000D01*
X157861000Y-111125000D02*
X170688000Y-111125000D01*
X170688000Y-111125000D02*
X171704000Y-112141000D01*
X162560000Y-69850000D02*
X162560000Y-72771000D01*
X162560000Y-72771000D02*
X150876000Y-84455000D01*
X173929000Y-142560000D02*
X173990000Y-142560000D01*
X162560000Y-69850000D02*
X162560000Y-69342000D01*
X162560000Y-69342000D02*
X173863000Y-58039000D01*
X169164000Y-85598000D02*
X167640000Y-87122000D01*
X169164000Y-85598000D02*
X178054000Y-85598000D01*
X178054000Y-85598000D02*
X183261000Y-90805000D01*
X183261000Y-90805000D02*
X200914000Y-90805000D01*
X200914000Y-90805000D02*
X202057000Y-91948000D01*
X202057000Y-91948000D02*
X202057000Y-104394000D01*
X164465000Y-141351000D02*
X164465000Y-140716000D01*
X165100000Y-141986000D02*
X164465000Y-141351000D01*
X171577000Y-141986000D02*
X165100000Y-141986000D01*
X172847000Y-140716000D02*
X171577000Y-141986000D01*
X174879000Y-140716000D02*
X172847000Y-140716000D01*
X167640000Y-87630000D02*
X167640000Y-85217000D01*
X177673000Y-56769000D02*
X178943000Y-55499000D01*
X177673000Y-58928000D02*
X177673000Y-56769000D01*
X177292000Y-59309000D02*
X177673000Y-58928000D01*
X176276000Y-59309000D02*
X177292000Y-59309000D01*
X166370000Y-69215000D02*
X176276000Y-59309000D01*
X166370000Y-71120000D02*
X166370000Y-69215000D01*
X166116000Y-71374000D02*
X166370000Y-71120000D01*
X166116000Y-83693000D02*
X166116000Y-71374000D01*
X167640000Y-85217000D02*
X166116000Y-83693000D01*
X167640000Y-87630000D02*
X167640000Y-87122000D01*
X142240000Y-69850000D02*
X142240000Y-69342000D01*
X142240000Y-69342000D02*
X153543000Y-58039000D01*
X160782000Y-100584000D02*
X159639000Y-100584000D01*
X130048000Y-102108000D02*
X128778000Y-103378000D01*
X158115000Y-102108000D02*
X130048000Y-102108000D01*
X159639000Y-100584000D02*
X158115000Y-102108000D01*
X144780000Y-69850000D02*
X144780000Y-69342000D01*
X144780000Y-69342000D02*
X156083000Y-58039000D01*
X160782000Y-103124000D02*
X130683000Y-103124000D01*
X130683000Y-103124000D02*
X130175000Y-103632000D01*
X144780000Y-87630000D02*
X144780000Y-73406000D01*
X143637000Y-69088000D02*
X149225000Y-63500000D01*
X143637000Y-72263000D02*
X143637000Y-69088000D01*
X144780000Y-73406000D02*
X143637000Y-72263000D01*
X175564800Y-115544600D02*
X175564800Y-111937800D01*
X147574000Y-90424000D02*
X144780000Y-87630000D01*
X164719000Y-90424000D02*
X147574000Y-90424000D01*
X174244000Y-99949000D02*
X164719000Y-90424000D01*
X174244000Y-110617000D02*
X174244000Y-99949000D01*
X175564800Y-111937800D02*
X174244000Y-110617000D01*
X158623000Y-58039000D02*
X158623000Y-58547000D01*
X158623000Y-58547000D02*
X147320000Y-69850000D01*
X149860000Y-69850000D02*
X149860000Y-69342000D01*
X149860000Y-69342000D02*
X161163000Y-58039000D01*
X179070000Y-82550000D02*
X179070000Y-83185000D01*
X179070000Y-83185000D02*
X178308000Y-83947000D01*
X178308000Y-83947000D02*
X169037000Y-83947000D01*
X169037000Y-83947000D02*
X167640000Y-82550000D01*
X151130000Y-69342000D02*
X155321000Y-65151000D01*
X151130000Y-71501000D02*
X151130000Y-69342000D01*
X151638000Y-72009000D02*
X151130000Y-71501000D01*
X180644800Y-115544600D02*
X180644800Y-112191800D01*
X179451000Y-99822000D02*
X170307000Y-90678000D01*
X179451000Y-110998000D02*
X179451000Y-99822000D01*
X180644800Y-112191800D02*
X179451000Y-110998000D01*
X153797000Y-69088000D02*
X159512000Y-63373000D01*
X153797000Y-71628000D02*
X153797000Y-69088000D01*
X154051000Y-71882000D02*
X153797000Y-71628000D01*
X178104800Y-115544600D02*
X178104800Y-112318800D01*
X156972000Y-89662000D02*
X154940000Y-87630000D01*
X166751000Y-89662000D02*
X156972000Y-89662000D01*
X176911000Y-99822000D02*
X166751000Y-89662000D01*
X176911000Y-111125000D02*
X176911000Y-99822000D01*
X178104800Y-112318800D02*
X176911000Y-111125000D01*
X183184800Y-115544600D02*
X183184800Y-112445800D01*
X159004000Y-89154000D02*
X157480000Y-87630000D01*
X171069000Y-89154000D02*
X159004000Y-89154000D01*
X181864000Y-99949000D02*
X171069000Y-89154000D01*
X181864000Y-111125000D02*
X181864000Y-99949000D01*
X183184800Y-112445800D02*
X181864000Y-111125000D01*
X165100000Y-87630000D02*
X165100000Y-73406000D01*
X163830000Y-69088000D02*
X165227000Y-67691000D01*
X163830000Y-72136000D02*
X163830000Y-69088000D01*
X165100000Y-73406000D02*
X163830000Y-72136000D01*
X177800000Y-91694000D02*
X177800000Y-89154000D01*
X183261000Y-57277000D02*
X181483000Y-55499000D01*
X183261000Y-59690000D02*
X183261000Y-57277000D01*
X173482000Y-69469000D02*
X183261000Y-59690000D01*
X173482000Y-75057000D02*
X173482000Y-69469000D01*
X174498000Y-76073000D02*
X173482000Y-75057000D01*
X176022000Y-76073000D02*
X174498000Y-76073000D01*
X177800000Y-89154000D02*
X178435000Y-88519000D01*
X196850000Y-96266000D02*
X194818000Y-96266000D01*
X173736000Y-87630000D02*
X170180000Y-87630000D01*
X177800000Y-91694000D02*
X173736000Y-87630000D01*
X191897000Y-91694000D02*
X177800000Y-91694000D01*
X194183000Y-93980000D02*
X191897000Y-91694000D01*
X194183000Y-95631000D02*
X194183000Y-93980000D01*
X194818000Y-96266000D02*
X194183000Y-95631000D01*
X178562000Y-117856000D02*
X180340000Y-119634000D01*
X164084000Y-117856000D02*
X178562000Y-117856000D01*
X162941000Y-116713000D02*
X164084000Y-117856000D01*
X205740000Y-72644000D02*
X205724000Y-72644000D01*
X179070000Y-77470000D02*
X179070000Y-78105000D01*
X179070000Y-78105000D02*
X178435000Y-78740000D01*
X178435000Y-78740000D02*
X168910000Y-78740000D01*
X168910000Y-78740000D02*
X167640000Y-77470000D01*
X179070000Y-80010000D02*
X179070000Y-80518000D01*
X179070000Y-80518000D02*
X178308000Y-81280000D01*
X178308000Y-81280000D02*
X168910000Y-81280000D01*
X168910000Y-81280000D02*
X167640000Y-80010000D01*
X140970000Y-71247000D02*
X140970000Y-67945000D01*
X142240000Y-72517000D02*
X140970000Y-71247000D01*
X142240000Y-87630000D02*
X142240000Y-72517000D01*
X141986000Y-66929000D02*
X141986000Y-65278000D01*
X140970000Y-67945000D02*
X141986000Y-66929000D01*
X147320000Y-87630000D02*
X147320000Y-73406000D01*
X150368000Y-64897000D02*
X150622000Y-64897000D01*
X146050000Y-69215000D02*
X150368000Y-64897000D01*
X146050000Y-72136000D02*
X146050000Y-69215000D01*
X147320000Y-73406000D02*
X146050000Y-72136000D01*
X149860000Y-87630000D02*
X149860000Y-73533000D01*
X153924000Y-64135000D02*
X154051000Y-64135000D01*
X148590000Y-69469000D02*
X153924000Y-64135000D01*
X148590000Y-72263000D02*
X148590000Y-69469000D01*
X149860000Y-73533000D02*
X148590000Y-72263000D01*
X152400000Y-69850000D02*
X152400000Y-69342000D01*
X152400000Y-69342000D02*
X163703000Y-58039000D01*
X166243000Y-58039000D02*
X166243000Y-58547000D01*
X166243000Y-58547000D02*
X154940000Y-69850000D01*
X157480000Y-69850000D02*
X157480000Y-69342000D01*
X157480000Y-69342000D02*
X168783000Y-58039000D01*
X160020000Y-69850000D02*
X160020000Y-69342000D01*
X160020000Y-69342000D02*
X171323000Y-58039000D01*
X165100000Y-69850000D02*
X165100000Y-69342000D01*
X165100000Y-69342000D02*
X176403000Y-58039000D01*
X178943000Y-58039000D02*
X178943000Y-58547000D01*
X178943000Y-58547000D02*
X167640000Y-69850000D01*
X170180000Y-69850000D02*
X170180000Y-69342000D01*
X170180000Y-69342000D02*
X181483000Y-58039000D01*
D29*
G36*
X184480010Y-53180688D02*
X187271471Y-54180101D01*
X201431599Y-63641596D01*
X202423954Y-64697292D01*
X212390324Y-79613019D01*
X216056474Y-98044000D01*
X212492410Y-115961759D01*
X212330207Y-116564953D01*
X204337343Y-128527119D01*
X173862730Y-128651000D01*
X159385000Y-128651000D01*
X159335590Y-128661006D01*
X159293965Y-128689447D01*
X159266685Y-128731841D01*
X159258000Y-128778000D01*
X159258000Y-129540000D01*
X159268006Y-129589410D01*
X159296447Y-129631035D01*
X159338841Y-129658315D01*
X159385000Y-129667000D01*
X170762394Y-129667000D01*
X171958000Y-130862606D01*
X171958000Y-140530198D01*
X171432241Y-141055957D01*
X171495838Y-140902799D01*
X171496162Y-140530833D01*
X171354117Y-140187057D01*
X171091327Y-139923808D01*
X170747799Y-139781162D01*
X170700923Y-139781121D01*
X170302302Y-139382500D01*
X170319680Y-139365122D01*
X170365167Y-139365162D01*
X170708943Y-139223117D01*
X170972192Y-138960327D01*
X171114838Y-138616799D01*
X171115162Y-138244833D01*
X170973117Y-137901057D01*
X170710327Y-137637808D01*
X170366799Y-137495162D01*
X169994833Y-137494838D01*
X169651057Y-137636883D01*
X169535000Y-137752738D01*
X169535000Y-137715750D01*
X169376250Y-137557000D01*
X168402000Y-137557000D01*
X168402000Y-137577000D01*
X168148000Y-137577000D01*
X168148000Y-137557000D01*
X167173750Y-137557000D01*
X167015000Y-137715750D01*
X167015000Y-138056309D01*
X167111673Y-138289698D01*
X167252910Y-138430936D01*
X167198559Y-138465910D01*
X167053569Y-138678110D01*
X167002560Y-138930000D01*
X167002560Y-139930000D01*
X167046838Y-140165317D01*
X167185910Y-140381441D01*
X167398110Y-140526431D01*
X167650000Y-140577440D01*
X168900000Y-140577440D01*
X169135317Y-140533162D01*
X169237565Y-140467367D01*
X169625878Y-140855680D01*
X169625838Y-140901167D01*
X169760056Y-141226000D01*
X165414802Y-141226000D01*
X165309400Y-141120598D01*
X165399838Y-140902799D01*
X165400162Y-140530833D01*
X165258117Y-140187057D01*
X164995327Y-139923808D01*
X164651799Y-139781162D01*
X164279833Y-139780838D01*
X163936057Y-139922883D01*
X163672808Y-140185673D01*
X163530162Y-140529201D01*
X163529838Y-140901167D01*
X163671883Y-141244943D01*
X163705000Y-141278118D01*
X163705000Y-141351000D01*
X163762852Y-141641839D01*
X163927599Y-141888401D01*
X164154198Y-142115000D01*
X161520109Y-142115000D01*
X160145000Y-141198261D01*
X160145000Y-136710167D01*
X161624838Y-136710167D01*
X161766883Y-137053943D01*
X162029673Y-137317192D01*
X162373201Y-137459838D01*
X162745167Y-137460162D01*
X163088943Y-137318117D01*
X163352192Y-137055327D01*
X163456680Y-136803691D01*
X167015000Y-136803691D01*
X167015000Y-137144250D01*
X167173750Y-137303000D01*
X168148000Y-137303000D01*
X168148000Y-136453750D01*
X168402000Y-136453750D01*
X168402000Y-137303000D01*
X169376250Y-137303000D01*
X169535000Y-137144250D01*
X169535000Y-136803691D01*
X169438327Y-136570302D01*
X169259699Y-136391673D01*
X169026310Y-136295000D01*
X168560750Y-136295000D01*
X168402000Y-136453750D01*
X168148000Y-136453750D01*
X167989250Y-136295000D01*
X167523690Y-136295000D01*
X167290301Y-136391673D01*
X167111673Y-136570302D01*
X167015000Y-136803691D01*
X163456680Y-136803691D01*
X163494838Y-136711799D01*
X163494879Y-136664923D01*
X164779802Y-135380000D01*
X168982537Y-135380000D01*
X169014673Y-135412192D01*
X169358201Y-135554838D01*
X169730167Y-135555162D01*
X170073943Y-135413117D01*
X170337192Y-135150327D01*
X170479838Y-134806799D01*
X170480162Y-134434833D01*
X170338117Y-134091057D01*
X170075327Y-133827808D01*
X169731799Y-133685162D01*
X169359833Y-133684838D01*
X169016057Y-133826883D01*
X168982882Y-133860000D01*
X164465000Y-133860000D01*
X164174161Y-133917852D01*
X163927599Y-134082599D01*
X162420320Y-135589878D01*
X162374833Y-135589838D01*
X162031057Y-135731883D01*
X161767808Y-135994673D01*
X161625162Y-136338201D01*
X161624838Y-136710167D01*
X160145000Y-136710167D01*
X160145000Y-135182463D01*
X160177192Y-135150327D01*
X160319838Y-134806799D01*
X160320162Y-134434833D01*
X160178117Y-134091057D01*
X159915327Y-133827808D01*
X159571799Y-133685162D01*
X159199833Y-133684838D01*
X158856057Y-133826883D01*
X158592808Y-134089673D01*
X158450162Y-134433201D01*
X158449838Y-134805167D01*
X158591883Y-135148943D01*
X158625000Y-135182118D01*
X158625000Y-141605000D01*
X158639680Y-141678802D01*
X158639759Y-141754048D01*
X158668325Y-141822810D01*
X158682852Y-141895839D01*
X158724658Y-141958406D01*
X158753526Y-142027894D01*
X158806231Y-142080489D01*
X158847599Y-142142401D01*
X158910165Y-142184206D01*
X158963428Y-142237358D01*
X160868428Y-143507358D01*
X160937251Y-143535781D01*
X160999161Y-143577148D01*
X161072962Y-143591828D01*
X161142511Y-143620551D01*
X161216969Y-143620473D01*
X161290000Y-143635000D01*
X163029367Y-143635000D01*
X162895162Y-143958201D01*
X162894838Y-144330167D01*
X163036883Y-144673943D01*
X163299673Y-144937192D01*
X163643201Y-145079838D01*
X163690077Y-145079879D01*
X163898198Y-145288000D01*
X163843455Y-145288000D01*
X154990293Y-143390894D01*
X151233268Y-140886211D01*
X149987000Y-137770541D01*
X149987000Y-130862606D01*
X151182606Y-129667000D01*
X156464000Y-129667000D01*
X156513410Y-129656994D01*
X156555035Y-129628553D01*
X156582315Y-129586159D01*
X156591000Y-129540000D01*
X156591000Y-128778000D01*
X156580994Y-128728590D01*
X156552553Y-128686965D01*
X156510159Y-128659685D01*
X156464000Y-128651000D01*
X146824410Y-128651000D01*
X140098909Y-127324201D01*
X140816655Y-126607707D01*
X141223536Y-125627827D01*
X141224462Y-124566828D01*
X140819291Y-123586239D01*
X140069707Y-122835345D01*
X139089827Y-122428464D01*
X138028828Y-122427538D01*
X137048239Y-122832709D01*
X136297345Y-123582293D01*
X135890464Y-124562173D01*
X135889538Y-125623172D01*
X136281191Y-126571045D01*
X129211778Y-125176399D01*
X124083607Y-117501549D01*
X121929165Y-109092278D01*
X121148181Y-105166000D01*
X130821560Y-105166000D01*
X130821560Y-106416000D01*
X130865838Y-106651317D01*
X131004910Y-106867441D01*
X131217110Y-107012431D01*
X131469000Y-107063440D01*
X132469000Y-107063440D01*
X132704317Y-107019162D01*
X132920441Y-106880090D01*
X132966969Y-106811994D01*
X133109302Y-106954327D01*
X133342691Y-107051000D01*
X133683250Y-107051000D01*
X133842000Y-106892250D01*
X133842000Y-105918000D01*
X134096000Y-105918000D01*
X134096000Y-106892250D01*
X134254750Y-107051000D01*
X134595309Y-107051000D01*
X134828698Y-106954327D01*
X135007327Y-106775699D01*
X135104000Y-106542310D01*
X135104000Y-106076750D01*
X134945250Y-105918000D01*
X134096000Y-105918000D01*
X133842000Y-105918000D01*
X133822000Y-105918000D01*
X133822000Y-105664000D01*
X133842000Y-105664000D01*
X133842000Y-104689750D01*
X134096000Y-104689750D01*
X134096000Y-105664000D01*
X134945250Y-105664000D01*
X135104000Y-105505250D01*
X135104000Y-105039690D01*
X135007327Y-104806301D01*
X134828698Y-104627673D01*
X134595309Y-104531000D01*
X134254750Y-104531000D01*
X134096000Y-104689750D01*
X133842000Y-104689750D01*
X133683250Y-104531000D01*
X133342691Y-104531000D01*
X133109302Y-104627673D01*
X132968064Y-104768910D01*
X132933090Y-104714559D01*
X132720890Y-104569569D01*
X132469000Y-104518560D01*
X131469000Y-104518560D01*
X131233683Y-104562838D01*
X131017559Y-104701910D01*
X130872569Y-104914110D01*
X130821560Y-105166000D01*
X121148181Y-105166000D01*
X120829357Y-103563167D01*
X127842838Y-103563167D01*
X127984883Y-103906943D01*
X128247673Y-104170192D01*
X128591201Y-104312838D01*
X128963167Y-104313162D01*
X129306943Y-104171117D01*
X129362975Y-104115183D01*
X129381883Y-104160943D01*
X129644673Y-104424192D01*
X129988201Y-104566838D01*
X130360167Y-104567162D01*
X130703943Y-104425117D01*
X130967192Y-104162327D01*
X131082764Y-103884000D01*
X153906897Y-103884000D01*
X153878162Y-103953201D01*
X153877838Y-104325167D01*
X154019883Y-104668943D01*
X154053000Y-104702118D01*
X154053000Y-108077000D01*
X154110852Y-108367839D01*
X154275599Y-108614401D01*
X157323599Y-111662401D01*
X157570161Y-111827148D01*
X157861000Y-111885000D01*
X170373198Y-111885000D01*
X170768878Y-112280680D01*
X170768838Y-112326167D01*
X170910883Y-112669943D01*
X171173673Y-112933192D01*
X171517201Y-113075838D01*
X171889167Y-113076162D01*
X172232943Y-112934117D01*
X172496192Y-112671327D01*
X172638838Y-112327799D01*
X172639162Y-111955833D01*
X172497117Y-111612057D01*
X172234327Y-111348808D01*
X171890799Y-111206162D01*
X171843923Y-111206121D01*
X171225401Y-110587599D01*
X170978839Y-110422852D01*
X170688000Y-110365000D01*
X158175802Y-110365000D01*
X155573000Y-107762198D01*
X155573000Y-107492568D01*
X169249800Y-107492568D01*
X169249800Y-108356632D01*
X169343809Y-108829246D01*
X169611523Y-109229909D01*
X170012186Y-109497623D01*
X170484800Y-109591632D01*
X170957414Y-109497623D01*
X171358077Y-109229909D01*
X171625791Y-108829246D01*
X171719800Y-108356632D01*
X171719800Y-107492568D01*
X171625791Y-107019954D01*
X171358077Y-106619291D01*
X170957414Y-106351577D01*
X170484800Y-106257568D01*
X170012186Y-106351577D01*
X169611523Y-106619291D01*
X169343809Y-107019954D01*
X169249800Y-107492568D01*
X155573000Y-107492568D01*
X155573000Y-104702463D01*
X155605192Y-104670327D01*
X155747838Y-104326799D01*
X155748162Y-103954833D01*
X155718894Y-103884000D01*
X159118560Y-103884000D01*
X159118560Y-103987600D01*
X159162838Y-104222917D01*
X159301910Y-104439041D01*
X159514110Y-104584031D01*
X159766000Y-104635040D01*
X161798000Y-104635040D01*
X162033317Y-104590762D01*
X162249441Y-104451690D01*
X162394431Y-104239490D01*
X162445440Y-103987600D01*
X162445440Y-102260400D01*
X162401162Y-102025083D01*
X162262090Y-101808959D01*
X162049890Y-101663969D01*
X162008561Y-101655600D01*
X162026415Y-101643670D01*
X162351271Y-101157489D01*
X162465345Y-100584000D01*
X162351271Y-100010511D01*
X162026415Y-99524330D01*
X161711634Y-99314000D01*
X162026415Y-99103670D01*
X162351271Y-98617489D01*
X162465345Y-98044000D01*
X162351271Y-97470511D01*
X162026415Y-96984330D01*
X161711634Y-96774000D01*
X162026415Y-96563670D01*
X162226648Y-96264000D01*
X164785198Y-96264000D01*
X172264800Y-103743602D01*
X172264800Y-106543602D01*
X172151523Y-106619291D01*
X171883809Y-107019954D01*
X171789800Y-107492568D01*
X171789800Y-108356632D01*
X171883809Y-108829246D01*
X172151523Y-109229909D01*
X172552186Y-109497623D01*
X173024800Y-109591632D01*
X173484000Y-109500291D01*
X173484000Y-110617000D01*
X173541852Y-110907839D01*
X173706599Y-111154401D01*
X174804800Y-112252602D01*
X174804800Y-114163602D01*
X174691523Y-114239291D01*
X174423809Y-114639954D01*
X174329800Y-115112568D01*
X174329800Y-115976632D01*
X174423809Y-116449246D01*
X174691523Y-116849909D01*
X175059825Y-117096000D01*
X173452278Y-117096000D01*
X173808274Y-116907680D01*
X174117190Y-116534547D01*
X174259800Y-116071600D01*
X174259800Y-115671600D01*
X173151800Y-115671600D01*
X173151800Y-115691600D01*
X172897800Y-115691600D01*
X172897800Y-115671600D01*
X171789800Y-115671600D01*
X171789800Y-116071600D01*
X171932410Y-116534547D01*
X172241326Y-116907680D01*
X172597322Y-117096000D01*
X170989775Y-117096000D01*
X171358077Y-116849909D01*
X171625791Y-116449246D01*
X171719800Y-115976632D01*
X171719800Y-115112568D01*
X171700910Y-115017600D01*
X171789800Y-115017600D01*
X171789800Y-115417600D01*
X172897800Y-115417600D01*
X172897800Y-114075869D01*
X173151800Y-114075869D01*
X173151800Y-115417600D01*
X174259800Y-115417600D01*
X174259800Y-115017600D01*
X174117190Y-114554653D01*
X173808274Y-114181520D01*
X173380081Y-113955008D01*
X173342409Y-113951138D01*
X173151800Y-114075869D01*
X172897800Y-114075869D01*
X172707191Y-113951138D01*
X172669519Y-113955008D01*
X172241326Y-114181520D01*
X171932410Y-114554653D01*
X171789800Y-115017600D01*
X171700910Y-115017600D01*
X171625791Y-114639954D01*
X171358077Y-114239291D01*
X170957414Y-113971577D01*
X170484800Y-113877568D01*
X170012186Y-113971577D01*
X169611523Y-114239291D01*
X169569622Y-114302000D01*
X158750000Y-114302000D01*
X158459161Y-114359852D01*
X158212599Y-114524599D01*
X154748439Y-117988759D01*
X154366511Y-118064729D01*
X153880330Y-118389585D01*
X153555474Y-118875766D01*
X153441400Y-119449255D01*
X153441400Y-119818745D01*
X153555474Y-120392234D01*
X153880330Y-120878415D01*
X154180000Y-121078648D01*
X154180000Y-124206000D01*
X154237852Y-124496839D01*
X154402599Y-124743401D01*
X157101000Y-127441802D01*
X157101000Y-131390537D01*
X157068808Y-131422673D01*
X156926162Y-131766201D01*
X156925838Y-132138167D01*
X157067883Y-132481943D01*
X157330673Y-132745192D01*
X157674201Y-132887838D01*
X158046167Y-132888162D01*
X158389943Y-132746117D01*
X158653192Y-132483327D01*
X158795838Y-132139799D01*
X158796162Y-131767833D01*
X158654117Y-131424057D01*
X158621000Y-131390882D01*
X158621000Y-127127000D01*
X158563148Y-126836161D01*
X158398401Y-126589599D01*
X157304974Y-125496172D01*
X194436538Y-125496172D01*
X194841709Y-126476761D01*
X195591293Y-127227655D01*
X196571173Y-127634536D01*
X197632172Y-127635462D01*
X198612761Y-127230291D01*
X199363655Y-126480707D01*
X199770536Y-125500827D01*
X199771462Y-124439828D01*
X199366291Y-123459239D01*
X198616707Y-122708345D01*
X197636827Y-122301464D01*
X196575828Y-122300538D01*
X195595239Y-122705709D01*
X194844345Y-123455293D01*
X194437464Y-124435173D01*
X194436538Y-125496172D01*
X157304974Y-125496172D01*
X155700000Y-123891198D01*
X155700000Y-121078648D01*
X155999670Y-120878415D01*
X156210000Y-120563634D01*
X156420330Y-120878415D01*
X156906511Y-121203271D01*
X157480000Y-121317345D01*
X158053489Y-121203271D01*
X158539670Y-120878415D01*
X158750000Y-120563634D01*
X158960330Y-120878415D01*
X159446511Y-121203271D01*
X160020000Y-121317345D01*
X160593489Y-121203271D01*
X161079670Y-120878415D01*
X161290000Y-120563634D01*
X161500330Y-120878415D01*
X161986511Y-121203271D01*
X162560000Y-121317345D01*
X163133489Y-121203271D01*
X163619670Y-120878415D01*
X163830000Y-120563634D01*
X164040330Y-120878415D01*
X164526511Y-121203271D01*
X165100000Y-121317345D01*
X165673489Y-121203271D01*
X166159670Y-120878415D01*
X166370000Y-120563634D01*
X166580330Y-120878415D01*
X167066511Y-121203271D01*
X167640000Y-121317345D01*
X168213489Y-121203271D01*
X168699670Y-120878415D01*
X168910000Y-120563634D01*
X169120330Y-120878415D01*
X169606511Y-121203271D01*
X170180000Y-121317345D01*
X170753489Y-121203271D01*
X171239670Y-120878415D01*
X171450000Y-120563634D01*
X171660330Y-120878415D01*
X172146511Y-121203271D01*
X172720000Y-121317345D01*
X173293489Y-121203271D01*
X173779670Y-120878415D01*
X173990000Y-120563634D01*
X174200330Y-120878415D01*
X174686511Y-121203271D01*
X175260000Y-121317345D01*
X175833489Y-121203271D01*
X176319670Y-120878415D01*
X176530000Y-120563634D01*
X176740330Y-120878415D01*
X177226511Y-121203271D01*
X177800000Y-121317345D01*
X178373489Y-121203271D01*
X178859670Y-120878415D01*
X179070000Y-120563634D01*
X179280330Y-120878415D01*
X179766511Y-121203271D01*
X180340000Y-121317345D01*
X180913489Y-121203271D01*
X181399670Y-120878415D01*
X181610000Y-120563634D01*
X181820330Y-120878415D01*
X182306511Y-121203271D01*
X182880000Y-121317345D01*
X183453489Y-121203271D01*
X183939670Y-120878415D01*
X184150000Y-120563634D01*
X184360330Y-120878415D01*
X184846511Y-121203271D01*
X185420000Y-121317345D01*
X185993489Y-121203271D01*
X186479670Y-120878415D01*
X186690000Y-120563634D01*
X186900330Y-120878415D01*
X187386511Y-121203271D01*
X187960000Y-121317345D01*
X188533489Y-121203271D01*
X189019670Y-120878415D01*
X189226461Y-120568931D01*
X189597964Y-120984732D01*
X190125209Y-121238709D01*
X190140974Y-121241358D01*
X190373000Y-121120217D01*
X190373000Y-119761000D01*
X190353000Y-119761000D01*
X190353000Y-119507000D01*
X190373000Y-119507000D01*
X190373000Y-118147783D01*
X190627000Y-118147783D01*
X190627000Y-119507000D01*
X190647000Y-119507000D01*
X190647000Y-119761000D01*
X190627000Y-119761000D01*
X190627000Y-121120217D01*
X190859026Y-121241358D01*
X190874791Y-121238709D01*
X191402036Y-120984732D01*
X191558907Y-120809155D01*
X191573238Y-120885317D01*
X191712310Y-121101441D01*
X191924510Y-121246431D01*
X192176400Y-121297440D01*
X193903600Y-121297440D01*
X194138917Y-121253162D01*
X194355041Y-121114090D01*
X194500031Y-120901890D01*
X194551040Y-120650000D01*
X194551040Y-118618000D01*
X194506762Y-118382683D01*
X194367690Y-118166559D01*
X194155490Y-118021569D01*
X193903600Y-117970560D01*
X192176400Y-117970560D01*
X191941083Y-118014838D01*
X191724959Y-118153910D01*
X191579969Y-118366110D01*
X191560768Y-118460927D01*
X191402036Y-118283268D01*
X190874791Y-118029291D01*
X190859026Y-118026642D01*
X190627000Y-118147783D01*
X190373000Y-118147783D01*
X190140974Y-118026642D01*
X190125209Y-118029291D01*
X189597964Y-118283268D01*
X189226461Y-118699069D01*
X189019670Y-118389585D01*
X188533489Y-118064729D01*
X187960000Y-117950655D01*
X187386511Y-118064729D01*
X186900330Y-118389585D01*
X186690000Y-118704366D01*
X186479670Y-118389585D01*
X185993489Y-118064729D01*
X185420000Y-117950655D01*
X184846511Y-118064729D01*
X184360330Y-118389585D01*
X184150000Y-118704366D01*
X183939670Y-118389585D01*
X183453489Y-118064729D01*
X182880000Y-117950655D01*
X182306511Y-118064729D01*
X181820330Y-118389585D01*
X181610000Y-118704366D01*
X181399670Y-118389585D01*
X180913489Y-118064729D01*
X180340000Y-117950655D01*
X179832421Y-118051619D01*
X179099401Y-117318599D01*
X178852839Y-117153852D01*
X178598815Y-117103323D01*
X178978077Y-116849909D01*
X179245791Y-116449246D01*
X179339800Y-115976632D01*
X179339800Y-115112568D01*
X179245791Y-114639954D01*
X178978077Y-114239291D01*
X178864800Y-114163602D01*
X178864800Y-112318800D01*
X178806948Y-112027961D01*
X178642201Y-111781399D01*
X177671000Y-110810198D01*
X177671000Y-109505344D01*
X178104800Y-109591632D01*
X178577414Y-109497623D01*
X178691000Y-109421727D01*
X178691000Y-110998000D01*
X178748852Y-111288839D01*
X178913599Y-111535401D01*
X179884800Y-112506602D01*
X179884800Y-114163602D01*
X179771523Y-114239291D01*
X179503809Y-114639954D01*
X179409800Y-115112568D01*
X179409800Y-115976632D01*
X179503809Y-116449246D01*
X179771523Y-116849909D01*
X180172186Y-117117623D01*
X180644800Y-117211632D01*
X181117414Y-117117623D01*
X181518077Y-116849909D01*
X181785791Y-116449246D01*
X181879800Y-115976632D01*
X181879800Y-115112568D01*
X181785791Y-114639954D01*
X181518077Y-114239291D01*
X181404800Y-114163602D01*
X181404800Y-112191800D01*
X181346948Y-111900961D01*
X181182201Y-111654399D01*
X180211000Y-110683198D01*
X180211000Y-109505344D01*
X180644800Y-109591632D01*
X181104000Y-109500291D01*
X181104000Y-111125000D01*
X181161852Y-111415839D01*
X181326599Y-111662401D01*
X182424800Y-112760602D01*
X182424800Y-114163602D01*
X182311523Y-114239291D01*
X182043809Y-114639954D01*
X181949800Y-115112568D01*
X181949800Y-115976632D01*
X182043809Y-116449246D01*
X182311523Y-116849909D01*
X182712186Y-117117623D01*
X183184800Y-117211632D01*
X183657414Y-117117623D01*
X184058077Y-116849909D01*
X184325791Y-116449246D01*
X184419800Y-115976632D01*
X184419800Y-115671600D01*
X184489800Y-115671600D01*
X184489800Y-116071600D01*
X184632410Y-116534547D01*
X184941326Y-116907680D01*
X185369519Y-117134192D01*
X185407191Y-117138062D01*
X185597800Y-117013331D01*
X185597800Y-115671600D01*
X185851800Y-115671600D01*
X185851800Y-117013331D01*
X186042409Y-117138062D01*
X186080081Y-117134192D01*
X186508274Y-116907680D01*
X186817190Y-116534547D01*
X186959800Y-116071600D01*
X186959800Y-115671600D01*
X185851800Y-115671600D01*
X185597800Y-115671600D01*
X184489800Y-115671600D01*
X184419800Y-115671600D01*
X184419800Y-115112568D01*
X184400910Y-115017600D01*
X184489800Y-115017600D01*
X184489800Y-115417600D01*
X185597800Y-115417600D01*
X185597800Y-114075869D01*
X185851800Y-114075869D01*
X185851800Y-115417600D01*
X186959800Y-115417600D01*
X186959800Y-115017600D01*
X186817190Y-114554653D01*
X186508274Y-114181520D01*
X186080081Y-113955008D01*
X186042409Y-113951138D01*
X185851800Y-114075869D01*
X185597800Y-114075869D01*
X185407191Y-113951138D01*
X185369519Y-113955008D01*
X184941326Y-114181520D01*
X184632410Y-114554653D01*
X184489800Y-115017600D01*
X184400910Y-115017600D01*
X184325791Y-114639954D01*
X184058077Y-114239291D01*
X183944800Y-114163602D01*
X183944800Y-112445800D01*
X183886948Y-112154961D01*
X183886948Y-112154960D01*
X183722201Y-111908399D01*
X182624000Y-110810198D01*
X182624000Y-109438699D01*
X182712186Y-109497623D01*
X183184800Y-109591632D01*
X183657414Y-109497623D01*
X184058077Y-109229909D01*
X184325791Y-108829246D01*
X184419800Y-108356632D01*
X184419800Y-107492568D01*
X184489800Y-107492568D01*
X184489800Y-108356632D01*
X184583809Y-108829246D01*
X184851523Y-109229909D01*
X185252186Y-109497623D01*
X185724800Y-109591632D01*
X186197414Y-109497623D01*
X186598077Y-109229909D01*
X186865791Y-108829246D01*
X186959800Y-108356632D01*
X186959800Y-107492568D01*
X186865791Y-107019954D01*
X186598077Y-106619291D01*
X186197414Y-106351577D01*
X185724800Y-106257568D01*
X185252186Y-106351577D01*
X184851523Y-106619291D01*
X184583809Y-107019954D01*
X184489800Y-107492568D01*
X184419800Y-107492568D01*
X184325791Y-107019954D01*
X184058077Y-106619291D01*
X183657414Y-106351577D01*
X183184800Y-106257568D01*
X182712186Y-106351577D01*
X182624000Y-106410501D01*
X182624000Y-99949000D01*
X182566148Y-99658161D01*
X182566148Y-99658160D01*
X182401401Y-99411599D01*
X171606401Y-88616599D01*
X171359839Y-88451852D01*
X171338373Y-88447582D01*
X171363629Y-88422370D01*
X171377070Y-88390000D01*
X173421198Y-88390000D01*
X177262599Y-92231401D01*
X177509161Y-92396148D01*
X177800000Y-92454000D01*
X191582198Y-92454000D01*
X193423000Y-94294802D01*
X193423000Y-94654234D01*
X193113029Y-94190330D01*
X192626848Y-93865474D01*
X192053359Y-93751400D01*
X191994641Y-93751400D01*
X191421152Y-93865474D01*
X190955558Y-94176574D01*
X190950762Y-94151083D01*
X190811690Y-93934959D01*
X190599490Y-93789969D01*
X190347600Y-93738960D01*
X188620400Y-93738960D01*
X188385083Y-93783238D01*
X188168959Y-93922310D01*
X188023969Y-94134510D01*
X187972960Y-94386400D01*
X187972960Y-96113600D01*
X188017238Y-96348917D01*
X188156310Y-96565041D01*
X188368510Y-96710031D01*
X188412131Y-96718864D01*
X188394971Y-96730330D01*
X188070115Y-97216511D01*
X187956041Y-97790000D01*
X188070115Y-98363489D01*
X188394971Y-98849670D01*
X188709752Y-99060000D01*
X188394971Y-99270330D01*
X188070115Y-99756511D01*
X187956041Y-100330000D01*
X188070115Y-100903489D01*
X188394971Y-101389670D01*
X188881152Y-101714526D01*
X189454641Y-101828600D01*
X189513359Y-101828600D01*
X190086848Y-101714526D01*
X190573029Y-101389670D01*
X190754000Y-101118828D01*
X190934971Y-101389670D01*
X191421152Y-101714526D01*
X191994641Y-101828600D01*
X192053359Y-101828600D01*
X192626848Y-101714526D01*
X193113029Y-101389670D01*
X193437885Y-100903489D01*
X193551959Y-100330000D01*
X193450514Y-99820000D01*
X195730455Y-99820000D01*
X195760971Y-99865670D01*
X196075752Y-100076000D01*
X195760971Y-100286330D01*
X195436115Y-100772511D01*
X195322041Y-101346000D01*
X195436115Y-101919489D01*
X195760971Y-102405670D01*
X196247152Y-102730526D01*
X196820641Y-102844600D01*
X196879359Y-102844600D01*
X197452848Y-102730526D01*
X197918442Y-102419426D01*
X197923238Y-102444917D01*
X198062310Y-102661041D01*
X198274510Y-102806031D01*
X198526400Y-102857040D01*
X200253600Y-102857040D01*
X200488917Y-102812762D01*
X200705041Y-102673690D01*
X200850031Y-102461490D01*
X200901040Y-102209600D01*
X200901040Y-100482400D01*
X200856762Y-100247083D01*
X200717690Y-100030959D01*
X200505490Y-99885969D01*
X200461869Y-99877136D01*
X200479029Y-99865670D01*
X200803885Y-99379489D01*
X200917959Y-98806000D01*
X200803885Y-98232511D01*
X200479029Y-97746330D01*
X200164248Y-97536000D01*
X200479029Y-97325670D01*
X200803885Y-96839489D01*
X200917959Y-96266000D01*
X200803885Y-95692511D01*
X200479029Y-95206330D01*
X200164248Y-94996000D01*
X200479029Y-94785670D01*
X200803885Y-94299489D01*
X200917959Y-93726000D01*
X200803885Y-93152511D01*
X200479029Y-92666330D01*
X199992848Y-92341474D01*
X199419359Y-92227400D01*
X199360641Y-92227400D01*
X198787152Y-92341474D01*
X198300971Y-92666330D01*
X198120008Y-92937161D01*
X197738490Y-92519179D01*
X197209027Y-92271032D01*
X196977000Y-92391531D01*
X196977000Y-93599000D01*
X196997000Y-93599000D01*
X196997000Y-93853000D01*
X196977000Y-93853000D01*
X196977000Y-93873000D01*
X196723000Y-93873000D01*
X196723000Y-93853000D01*
X195516183Y-93853000D01*
X195395042Y-94085026D01*
X195567312Y-94500947D01*
X195961510Y-94932821D01*
X196084228Y-94990336D01*
X195760971Y-95206330D01*
X195560738Y-95506000D01*
X195132802Y-95506000D01*
X194943000Y-95316198D01*
X194943000Y-93980000D01*
X194885148Y-93689161D01*
X194885148Y-93689160D01*
X194720401Y-93442599D01*
X194644776Y-93366974D01*
X195395042Y-93366974D01*
X195516183Y-93599000D01*
X196723000Y-93599000D01*
X196723000Y-92391531D01*
X196490973Y-92271032D01*
X195961510Y-92519179D01*
X195567312Y-92951053D01*
X195395042Y-93366974D01*
X194644776Y-93366974D01*
X192842802Y-91565000D01*
X200599198Y-91565000D01*
X201297000Y-92262802D01*
X201297000Y-103831537D01*
X201264808Y-103863673D01*
X201122162Y-104207201D01*
X201121838Y-104579167D01*
X201263883Y-104922943D01*
X201526673Y-105186192D01*
X201870201Y-105328838D01*
X202242167Y-105329162D01*
X202585943Y-105187117D01*
X202849192Y-104924327D01*
X202991838Y-104580799D01*
X202992162Y-104208833D01*
X202850117Y-103865057D01*
X202817000Y-103831882D01*
X202817000Y-92131802D01*
X203202000Y-92516802D01*
X203202000Y-105603197D01*
X197932198Y-110873000D01*
X187379463Y-110873000D01*
X187347327Y-110840808D01*
X187003799Y-110698162D01*
X186631833Y-110697838D01*
X186288057Y-110839883D01*
X186024808Y-111102673D01*
X185882162Y-111446201D01*
X185881838Y-111818167D01*
X186023883Y-112161943D01*
X186286673Y-112425192D01*
X186630201Y-112567838D01*
X187002167Y-112568162D01*
X187345943Y-112426117D01*
X187379118Y-112393000D01*
X198247000Y-112393000D01*
X198537839Y-112335148D01*
X198784401Y-112170401D01*
X204499402Y-106455401D01*
X204664148Y-106208839D01*
X204722000Y-105918000D01*
X204722000Y-92202000D01*
X204664148Y-91911161D01*
X204499401Y-91664599D01*
X202467401Y-89632599D01*
X202220839Y-89467852D01*
X201930000Y-89410000D01*
X186115802Y-89410000D01*
X184402000Y-87696198D01*
X184402000Y-82517655D01*
X191135000Y-82517655D01*
X191135000Y-82582345D01*
X191260675Y-83214155D01*
X191618567Y-83749778D01*
X192154190Y-84107670D01*
X192786000Y-84233345D01*
X193417810Y-84107670D01*
X193757792Y-83880501D01*
X193845910Y-84017441D01*
X194058110Y-84162431D01*
X194310000Y-84213440D01*
X196342000Y-84213440D01*
X196577317Y-84169162D01*
X196793441Y-84030090D01*
X196938431Y-83817890D01*
X196989440Y-83566000D01*
X196989440Y-81534000D01*
X196945162Y-81298683D01*
X196806090Y-81082559D01*
X196593890Y-80937569D01*
X196342000Y-80886560D01*
X194310000Y-80886560D01*
X194074683Y-80930838D01*
X193858559Y-81069910D01*
X193756802Y-81218837D01*
X193546000Y-81077984D01*
X193546000Y-77911802D01*
X198480350Y-72977452D01*
X198882000Y-73057345D01*
X199389579Y-72956381D01*
X199630599Y-73197401D01*
X199877161Y-73362148D01*
X200168000Y-73420000D01*
X200463721Y-73420000D01*
X200586910Y-73611441D01*
X200656711Y-73659134D01*
X200599559Y-73695910D01*
X200454569Y-73908110D01*
X200435893Y-74000337D01*
X200182370Y-73746371D01*
X199669100Y-73533243D01*
X199113339Y-73532758D01*
X198599697Y-73744990D01*
X198206371Y-74137630D01*
X197993243Y-74650900D01*
X197992758Y-75206661D01*
X198204990Y-75720303D01*
X198597630Y-76113629D01*
X198805512Y-76199949D01*
X198599697Y-76284990D01*
X198206371Y-76677630D01*
X197993243Y-77190900D01*
X197992758Y-77746661D01*
X198204990Y-78260303D01*
X198597630Y-78653629D01*
X198805512Y-78739949D01*
X198599697Y-78824990D01*
X198206371Y-79217630D01*
X197993243Y-79730900D01*
X197992758Y-80286661D01*
X198204990Y-80800303D01*
X198597630Y-81193629D01*
X198805512Y-81279949D01*
X198599697Y-81364990D01*
X198206371Y-81757630D01*
X197993243Y-82270900D01*
X197992758Y-82826661D01*
X198204990Y-83340303D01*
X198597630Y-83733629D01*
X199110900Y-83946757D01*
X199666661Y-83947242D01*
X200180303Y-83735010D01*
X200573629Y-83342370D01*
X200786757Y-82829100D01*
X200787242Y-82273339D01*
X200575010Y-81759697D01*
X200182370Y-81366371D01*
X199974488Y-81280051D01*
X200180303Y-81195010D01*
X200573629Y-80802370D01*
X200786757Y-80289100D01*
X200787242Y-79733339D01*
X200575010Y-79219697D01*
X200182370Y-78826371D01*
X199974488Y-78740051D01*
X200180303Y-78655010D01*
X200573629Y-78262370D01*
X200786757Y-77749100D01*
X200787242Y-77193339D01*
X200575010Y-76679697D01*
X200182370Y-76286371D01*
X199974488Y-76200051D01*
X200180303Y-76115010D01*
X200573629Y-75722370D01*
X200612446Y-75628889D01*
X200799110Y-75756431D01*
X201051000Y-75807440D01*
X202301000Y-75807440D01*
X202536317Y-75763162D01*
X202752441Y-75624090D01*
X202897431Y-75411890D01*
X202948440Y-75160000D01*
X202948440Y-74160000D01*
X202904162Y-73924683D01*
X202782800Y-73736081D01*
X202972110Y-73865431D01*
X203224000Y-73916440D01*
X204224000Y-73916440D01*
X204459317Y-73872162D01*
X204675441Y-73733090D01*
X204723134Y-73663289D01*
X204759910Y-73720441D01*
X204972110Y-73865431D01*
X205224000Y-73916440D01*
X206224000Y-73916440D01*
X206459317Y-73872162D01*
X206675441Y-73733090D01*
X206820431Y-73520890D01*
X206871440Y-73269000D01*
X206871440Y-72019000D01*
X206827162Y-71783683D01*
X206688090Y-71567559D01*
X206475890Y-71422569D01*
X206224000Y-71371560D01*
X205224000Y-71371560D01*
X204988683Y-71415838D01*
X204772559Y-71554910D01*
X204724866Y-71624711D01*
X204688090Y-71567559D01*
X204475890Y-71422569D01*
X204224000Y-71371560D01*
X203224000Y-71371560D01*
X202988683Y-71415838D01*
X202772559Y-71554910D01*
X202698611Y-71663136D01*
X202552890Y-71563569D01*
X202301000Y-71512560D01*
X201051000Y-71512560D01*
X200815683Y-71556838D01*
X200599559Y-71695910D01*
X200469321Y-71886519D01*
X200442769Y-71859967D01*
X200533000Y-71406345D01*
X200533000Y-71341655D01*
X200407325Y-70709845D01*
X200049433Y-70174222D01*
X199513810Y-69816330D01*
X198882000Y-69690655D01*
X198250190Y-69816330D01*
X197910208Y-70043499D01*
X197822090Y-69906559D01*
X197609890Y-69761569D01*
X197358000Y-69710560D01*
X195326000Y-69710560D01*
X195090683Y-69754838D01*
X194874559Y-69893910D01*
X194729569Y-70106110D01*
X194678560Y-70358000D01*
X194678560Y-72390000D01*
X194722838Y-72625317D01*
X194861910Y-72841441D01*
X195074110Y-72986431D01*
X195326000Y-73037440D01*
X196270758Y-73037440D01*
X192248599Y-77059599D01*
X192083852Y-77306161D01*
X192026000Y-77597000D01*
X192026000Y-81077984D01*
X191618567Y-81350222D01*
X191260675Y-81885845D01*
X191135000Y-82517655D01*
X184402000Y-82517655D01*
X184402000Y-77343000D01*
X184344148Y-77052161D01*
X184179401Y-76805599D01*
X181693761Y-74319959D01*
X181815431Y-74141890D01*
X181866440Y-73890000D01*
X181866440Y-73675750D01*
X182001000Y-73675750D01*
X182001000Y-74016309D01*
X182097673Y-74249698D01*
X182276301Y-74428327D01*
X182509690Y-74525000D01*
X182975250Y-74525000D01*
X183134000Y-74366250D01*
X183134000Y-73517000D01*
X183388000Y-73517000D01*
X183388000Y-74366250D01*
X183546750Y-74525000D01*
X184012310Y-74525000D01*
X184245699Y-74428327D01*
X184424327Y-74249698D01*
X184521000Y-74016309D01*
X184521000Y-73675750D01*
X184362250Y-73517000D01*
X183388000Y-73517000D01*
X183134000Y-73517000D01*
X182159750Y-73517000D01*
X182001000Y-73675750D01*
X181866440Y-73675750D01*
X181866440Y-72890000D01*
X181822162Y-72654683D01*
X181683090Y-72438559D01*
X181613289Y-72390866D01*
X181670441Y-72354090D01*
X181809890Y-72150000D01*
X182048721Y-72150000D01*
X182171910Y-72341441D01*
X182240006Y-72387969D01*
X182097673Y-72530302D01*
X182001000Y-72763691D01*
X182001000Y-73104250D01*
X182159750Y-73263000D01*
X183134000Y-73263000D01*
X183134000Y-73243000D01*
X183388000Y-73243000D01*
X183388000Y-73263000D01*
X184362250Y-73263000D01*
X184521000Y-73104250D01*
X184521000Y-72763691D01*
X184424327Y-72530302D01*
X184283090Y-72389064D01*
X184337441Y-72354090D01*
X184476890Y-72150000D01*
X187365539Y-72150000D01*
X187420883Y-72283943D01*
X187683673Y-72547192D01*
X188027201Y-72689838D01*
X188399167Y-72690162D01*
X188742943Y-72548117D01*
X189006192Y-72285327D01*
X189148838Y-71941799D01*
X189149162Y-71569833D01*
X189007117Y-71226057D01*
X188744327Y-70962808D01*
X188400799Y-70820162D01*
X188337773Y-70820107D01*
X188139839Y-70687852D01*
X187849000Y-70630000D01*
X184473279Y-70630000D01*
X184350090Y-70438559D01*
X184137890Y-70293569D01*
X183886000Y-70242560D01*
X182636000Y-70242560D01*
X182400683Y-70286838D01*
X182184559Y-70425910D01*
X182045110Y-70630000D01*
X181806279Y-70630000D01*
X181683090Y-70438559D01*
X181470890Y-70293569D01*
X181219000Y-70242560D01*
X179969000Y-70242560D01*
X179733683Y-70286838D01*
X179517559Y-70425910D01*
X179372569Y-70638110D01*
X179321560Y-70890000D01*
X179321560Y-71890000D01*
X179365838Y-72125317D01*
X179504910Y-72341441D01*
X179574711Y-72389134D01*
X179517559Y-72425910D01*
X179372569Y-72638110D01*
X179321560Y-72890000D01*
X179321560Y-73890000D01*
X179365838Y-74125317D01*
X179504910Y-74341441D01*
X179717110Y-74486431D01*
X179878583Y-74519130D01*
X179891852Y-74585839D01*
X180056599Y-74832401D01*
X181307594Y-76083396D01*
X180819697Y-76284990D01*
X180426371Y-76677630D01*
X180340051Y-76885512D01*
X180255010Y-76679697D01*
X179862370Y-76286371D01*
X179349100Y-76073243D01*
X178793339Y-76072758D01*
X178279697Y-76284990D01*
X177886371Y-76677630D01*
X177673243Y-77190900D01*
X177672758Y-77746661D01*
X177769171Y-77980000D01*
X171480879Y-77980000D01*
X171576757Y-77749100D01*
X171577242Y-77193339D01*
X171365010Y-76679697D01*
X170972370Y-76286371D01*
X170764488Y-76200051D01*
X170970303Y-76115010D01*
X171363629Y-75722370D01*
X171576757Y-75209100D01*
X171577242Y-74653339D01*
X171365010Y-74139697D01*
X170972370Y-73746371D01*
X170459100Y-73533243D01*
X169903339Y-73532758D01*
X169389697Y-73744990D01*
X168996371Y-74137630D01*
X168910051Y-74345512D01*
X168825010Y-74139697D01*
X168432370Y-73746371D01*
X167919100Y-73533243D01*
X167363339Y-73532758D01*
X166876000Y-73734122D01*
X166876000Y-71688802D01*
X166907401Y-71657401D01*
X167072148Y-71410840D01*
X167124326Y-71148523D01*
X167360900Y-71246757D01*
X167916661Y-71247242D01*
X168430303Y-71035010D01*
X168823629Y-70642370D01*
X168909949Y-70434488D01*
X168994990Y-70640303D01*
X169387630Y-71033629D01*
X169900900Y-71246757D01*
X170456661Y-71247242D01*
X170970303Y-71035010D01*
X171363629Y-70642370D01*
X171576757Y-70129100D01*
X171577242Y-69573339D01*
X171415327Y-69181475D01*
X181124644Y-59472158D01*
X181453641Y-59537600D01*
X181512359Y-59537600D01*
X182085848Y-59423526D01*
X182501000Y-59146130D01*
X182501000Y-59375198D01*
X172944599Y-68931599D01*
X172779852Y-69178161D01*
X172722000Y-69469000D01*
X172722000Y-75057000D01*
X172779852Y-75347839D01*
X172944599Y-75594401D01*
X173960599Y-76610401D01*
X174207161Y-76775148D01*
X174498000Y-76833000D01*
X175459537Y-76833000D01*
X175491673Y-76865192D01*
X175835201Y-77007838D01*
X176207167Y-77008162D01*
X176550943Y-76866117D01*
X176814192Y-76603327D01*
X176956838Y-76259799D01*
X176957162Y-75887833D01*
X176815117Y-75544057D01*
X176552327Y-75280808D01*
X176208799Y-75138162D01*
X175836833Y-75137838D01*
X175493057Y-75279883D01*
X175459882Y-75313000D01*
X174812802Y-75313000D01*
X174242000Y-74742198D01*
X174242000Y-69783802D01*
X176949630Y-67076172D01*
X194436538Y-67076172D01*
X194841709Y-68056761D01*
X195591293Y-68807655D01*
X196571173Y-69214536D01*
X197632172Y-69215462D01*
X198612761Y-68810291D01*
X199363655Y-68060707D01*
X199770536Y-67080827D01*
X199771462Y-66019828D01*
X199366291Y-65039239D01*
X198616707Y-64288345D01*
X197636827Y-63881464D01*
X196575828Y-63880538D01*
X195595239Y-64285709D01*
X194844345Y-65035293D01*
X194437464Y-66015173D01*
X194436538Y-67076172D01*
X176949630Y-67076172D01*
X181472547Y-62553255D01*
X182905400Y-62553255D01*
X182905400Y-62922745D01*
X183019474Y-63496234D01*
X183344330Y-63982415D01*
X183830511Y-64307271D01*
X184404000Y-64421345D01*
X184977489Y-64307271D01*
X185463670Y-63982415D01*
X185674000Y-63667634D01*
X185884330Y-63982415D01*
X186370511Y-64307271D01*
X186944000Y-64421345D01*
X187517489Y-64307271D01*
X188003670Y-63982415D01*
X188013243Y-63968087D01*
X188017238Y-63989317D01*
X188156310Y-64205441D01*
X188368510Y-64350431D01*
X188620400Y-64401440D01*
X190347600Y-64401440D01*
X190582917Y-64357162D01*
X190799041Y-64218090D01*
X190944031Y-64005890D01*
X190995040Y-63754000D01*
X190995040Y-61722000D01*
X190950762Y-61486683D01*
X190811690Y-61270559D01*
X190599490Y-61125569D01*
X190347600Y-61074560D01*
X188620400Y-61074560D01*
X188385083Y-61118838D01*
X188168959Y-61257910D01*
X188023969Y-61470110D01*
X188015600Y-61511439D01*
X188003670Y-61493585D01*
X187517489Y-61168729D01*
X186944000Y-61054655D01*
X186370511Y-61168729D01*
X185884330Y-61493585D01*
X185674000Y-61808366D01*
X185463670Y-61493585D01*
X184977489Y-61168729D01*
X184404000Y-61054655D01*
X183830511Y-61168729D01*
X183344330Y-61493585D01*
X183019474Y-61979766D01*
X182905400Y-62553255D01*
X181472547Y-62553255D01*
X183798401Y-60227401D01*
X183963148Y-59980840D01*
X183972746Y-59932586D01*
X184021000Y-59690000D01*
X184021000Y-57277000D01*
X183963148Y-56986161D01*
X183798401Y-56739599D01*
X182935775Y-55876973D01*
X183010959Y-55499000D01*
X182896885Y-54925511D01*
X182572029Y-54439330D01*
X182085848Y-54114474D01*
X181512359Y-54000400D01*
X181453641Y-54000400D01*
X180880152Y-54114474D01*
X180393971Y-54439330D01*
X180213000Y-54710172D01*
X180032029Y-54439330D01*
X179545848Y-54114474D01*
X178972359Y-54000400D01*
X178913641Y-54000400D01*
X178340152Y-54114474D01*
X177853971Y-54439330D01*
X177673000Y-54710172D01*
X177492029Y-54439330D01*
X177005848Y-54114474D01*
X176432359Y-54000400D01*
X176373641Y-54000400D01*
X175800152Y-54114474D01*
X175313971Y-54439330D01*
X175133000Y-54710172D01*
X174952029Y-54439330D01*
X174465848Y-54114474D01*
X173892359Y-54000400D01*
X173833641Y-54000400D01*
X173260152Y-54114474D01*
X172773971Y-54439330D01*
X172593000Y-54710172D01*
X172412029Y-54439330D01*
X171925848Y-54114474D01*
X171352359Y-54000400D01*
X171293641Y-54000400D01*
X170720152Y-54114474D01*
X170233971Y-54439330D01*
X170053000Y-54710172D01*
X169872029Y-54439330D01*
X169385848Y-54114474D01*
X168812359Y-54000400D01*
X168753641Y-54000400D01*
X168180152Y-54114474D01*
X167693971Y-54439330D01*
X167513000Y-54710172D01*
X167332029Y-54439330D01*
X166845848Y-54114474D01*
X166272359Y-54000400D01*
X166213641Y-54000400D01*
X165640152Y-54114474D01*
X165153971Y-54439330D01*
X164973000Y-54710172D01*
X164792029Y-54439330D01*
X164305848Y-54114474D01*
X163732359Y-54000400D01*
X163673641Y-54000400D01*
X163100152Y-54114474D01*
X162613971Y-54439330D01*
X162433000Y-54710172D01*
X162252029Y-54439330D01*
X161765848Y-54114474D01*
X161192359Y-54000400D01*
X161133641Y-54000400D01*
X160560152Y-54114474D01*
X160073971Y-54439330D01*
X159893000Y-54710172D01*
X159712029Y-54439330D01*
X159225848Y-54114474D01*
X158652359Y-54000400D01*
X158593641Y-54000400D01*
X158020152Y-54114474D01*
X157533971Y-54439330D01*
X157353000Y-54710172D01*
X157172029Y-54439330D01*
X156685848Y-54114474D01*
X156112359Y-54000400D01*
X156053641Y-54000400D01*
X155480152Y-54114474D01*
X154993971Y-54439330D01*
X154813000Y-54710172D01*
X154632029Y-54439330D01*
X154145848Y-54114474D01*
X153572359Y-54000400D01*
X153513641Y-54000400D01*
X152940152Y-54114474D01*
X152474558Y-54425574D01*
X152469762Y-54400083D01*
X152330690Y-54183959D01*
X152118490Y-54038969D01*
X151866600Y-53987960D01*
X150139400Y-53987960D01*
X149904083Y-54032238D01*
X149687959Y-54171310D01*
X149542969Y-54383510D01*
X149491960Y-54635400D01*
X149491960Y-56362600D01*
X149536238Y-56597917D01*
X149675310Y-56814041D01*
X149887510Y-56959031D01*
X149981375Y-56978039D01*
X149720312Y-57264053D01*
X149548042Y-57679974D01*
X149669183Y-57912000D01*
X150876000Y-57912000D01*
X150876000Y-57892000D01*
X151130000Y-57892000D01*
X151130000Y-57912000D01*
X151150000Y-57912000D01*
X151150000Y-58166000D01*
X151130000Y-58166000D01*
X151130000Y-58186000D01*
X150876000Y-58186000D01*
X150876000Y-58166000D01*
X149669183Y-58166000D01*
X149548042Y-58398026D01*
X149720312Y-58813947D01*
X150114510Y-59245821D01*
X150643973Y-59493968D01*
X150875998Y-59373470D01*
X150875998Y-59537600D01*
X150969598Y-59537600D01*
X142054361Y-68452837D01*
X141963339Y-68452758D01*
X141730000Y-68549171D01*
X141730000Y-68259802D01*
X142523401Y-67466401D01*
X142688148Y-67219839D01*
X142746000Y-66929000D01*
X142746000Y-65840463D01*
X142778192Y-65808327D01*
X142920838Y-65464799D01*
X142921162Y-65092833D01*
X142779117Y-64749057D01*
X142516327Y-64485808D01*
X142172799Y-64343162D01*
X141800833Y-64342838D01*
X141457057Y-64484883D01*
X141193808Y-64747673D01*
X141051162Y-65091201D01*
X141050838Y-65463167D01*
X141192883Y-65806943D01*
X141226000Y-65840118D01*
X141226000Y-66614198D01*
X141223941Y-66616257D01*
X141224462Y-66019828D01*
X140819291Y-65039239D01*
X140069707Y-64288345D01*
X139089827Y-63881464D01*
X138028828Y-63880538D01*
X137048239Y-64285709D01*
X136297345Y-65035293D01*
X135890464Y-66015173D01*
X135889538Y-67076172D01*
X136294709Y-68056761D01*
X137044293Y-68807655D01*
X138024173Y-69214536D01*
X138443338Y-69214902D01*
X138290856Y-69642302D01*
X138318638Y-70197368D01*
X138477603Y-70581143D01*
X138719787Y-70650608D01*
X139520395Y-69850000D01*
X139506253Y-69835858D01*
X139685858Y-69656253D01*
X139700000Y-69670395D01*
X139714143Y-69656253D01*
X139893748Y-69835858D01*
X139879605Y-69850000D01*
X139893748Y-69864143D01*
X139714143Y-70043748D01*
X139700000Y-70029605D01*
X138899392Y-70830213D01*
X138968857Y-71072397D01*
X139492302Y-71259144D01*
X140047368Y-71231362D01*
X140210000Y-71163998D01*
X140210000Y-71247000D01*
X140267852Y-71537839D01*
X140432599Y-71784401D01*
X141480000Y-72831802D01*
X141480000Y-86432469D01*
X141449697Y-86444990D01*
X141056371Y-86837630D01*
X140970051Y-87045512D01*
X140885010Y-86839697D01*
X140492370Y-86446371D01*
X139979100Y-86233243D01*
X139423339Y-86232758D01*
X138909697Y-86444990D01*
X138516371Y-86837630D01*
X138303243Y-87350900D01*
X138302758Y-87906661D01*
X138514990Y-88420303D01*
X138907630Y-88813629D01*
X139420900Y-89026757D01*
X139976661Y-89027242D01*
X140490303Y-88815010D01*
X140883629Y-88422370D01*
X140969949Y-88214488D01*
X141054990Y-88420303D01*
X141447630Y-88813629D01*
X141960900Y-89026757D01*
X142516661Y-89027242D01*
X143030303Y-88815010D01*
X143423629Y-88422370D01*
X143509949Y-88214488D01*
X143594990Y-88420303D01*
X143987630Y-88813629D01*
X144500900Y-89026757D01*
X145056661Y-89027242D01*
X145089055Y-89013857D01*
X147036599Y-90961401D01*
X147283161Y-91126148D01*
X147574000Y-91184000D01*
X164404198Y-91184000D01*
X173484000Y-100263802D01*
X173484000Y-102813198D01*
X165637401Y-94966599D01*
X165390839Y-94801852D01*
X165100000Y-94744000D01*
X162226648Y-94744000D01*
X162026415Y-94444330D01*
X161711634Y-94234000D01*
X162026415Y-94023670D01*
X162351271Y-93537489D01*
X162465345Y-92964000D01*
X162351271Y-92390511D01*
X162026415Y-91904330D01*
X161540234Y-91579474D01*
X160966745Y-91465400D01*
X160597255Y-91465400D01*
X160023766Y-91579474D01*
X159537585Y-91904330D01*
X159212729Y-92390511D01*
X159098655Y-92964000D01*
X159212729Y-93537489D01*
X159537585Y-94023670D01*
X159852366Y-94234000D01*
X159537585Y-94444330D01*
X159212729Y-94930511D01*
X159098655Y-95504000D01*
X159212729Y-96077489D01*
X159537585Y-96563670D01*
X159852366Y-96774000D01*
X159537585Y-96984330D01*
X159212729Y-97470511D01*
X159098655Y-98044000D01*
X159212729Y-98617489D01*
X159537585Y-99103670D01*
X159852366Y-99314000D01*
X159537585Y-99524330D01*
X159258800Y-99941560D01*
X159101599Y-100046599D01*
X157800198Y-101348000D01*
X148860590Y-101348000D01*
X148987885Y-101157489D01*
X149101959Y-100584000D01*
X148987885Y-100010511D01*
X148663029Y-99524330D01*
X148339772Y-99308336D01*
X148462490Y-99250821D01*
X148856688Y-98818947D01*
X149028958Y-98403026D01*
X148907817Y-98171000D01*
X147701000Y-98171000D01*
X147701000Y-98191000D01*
X147447000Y-98191000D01*
X147447000Y-98171000D01*
X147427000Y-98171000D01*
X147427000Y-97917000D01*
X147447000Y-97917000D01*
X147447000Y-97897000D01*
X147701000Y-97897000D01*
X147701000Y-97917000D01*
X148907817Y-97917000D01*
X149028958Y-97684974D01*
X148966426Y-97534000D01*
X149932537Y-97534000D01*
X149964673Y-97566192D01*
X150308201Y-97708838D01*
X150680167Y-97709162D01*
X151023943Y-97567117D01*
X151287192Y-97304327D01*
X151429838Y-96960799D01*
X151430162Y-96588833D01*
X151288117Y-96245057D01*
X151025327Y-95981808D01*
X150681799Y-95839162D01*
X150309833Y-95838838D01*
X149966057Y-95980883D01*
X149932882Y-96014000D01*
X149000514Y-96014000D01*
X149101959Y-95504000D01*
X148987885Y-94930511D01*
X148663029Y-94444330D01*
X148176848Y-94119474D01*
X147603359Y-94005400D01*
X147544641Y-94005400D01*
X146971152Y-94119474D01*
X146505558Y-94430574D01*
X146500762Y-94405083D01*
X146361690Y-94188959D01*
X146149490Y-94043969D01*
X145897600Y-93992960D01*
X144170400Y-93992960D01*
X143935083Y-94037238D01*
X143718959Y-94176310D01*
X143573969Y-94388510D01*
X143522960Y-94640400D01*
X143522960Y-96367600D01*
X143567238Y-96602917D01*
X143706310Y-96819041D01*
X143918510Y-96964031D01*
X143962131Y-96972864D01*
X143944971Y-96984330D01*
X143620115Y-97470511D01*
X143506041Y-98044000D01*
X143620115Y-98617489D01*
X143944971Y-99103670D01*
X144259752Y-99314000D01*
X143944971Y-99524330D01*
X143620115Y-100010511D01*
X143506041Y-100584000D01*
X143620115Y-101157489D01*
X143747410Y-101348000D01*
X130048000Y-101348000D01*
X129757160Y-101405852D01*
X129510599Y-101570599D01*
X128638320Y-102442878D01*
X128592833Y-102442838D01*
X128249057Y-102584883D01*
X127985808Y-102847673D01*
X127843162Y-103191201D01*
X127842838Y-103563167D01*
X120829357Y-103563167D01*
X120490732Y-101860786D01*
X121404136Y-89635221D01*
X123066092Y-81280000D01*
X125078968Y-81280000D01*
X125172977Y-81752614D01*
X125440691Y-82153277D01*
X125841354Y-82420991D01*
X126313968Y-82515000D01*
X127178032Y-82515000D01*
X127650646Y-82420991D01*
X128051309Y-82153277D01*
X128319023Y-81752614D01*
X128413032Y-81280000D01*
X132698968Y-81280000D01*
X132792977Y-81752614D01*
X133060691Y-82153277D01*
X133461354Y-82420991D01*
X133933968Y-82515000D01*
X134798032Y-82515000D01*
X135270646Y-82420991D01*
X135671309Y-82153277D01*
X135939023Y-81752614D01*
X136033032Y-81280000D01*
X135939023Y-80807386D01*
X135671309Y-80406723D01*
X135270646Y-80139009D01*
X134798032Y-80045000D01*
X133933968Y-80045000D01*
X133461354Y-80139009D01*
X133060691Y-80406723D01*
X132792977Y-80807386D01*
X132698968Y-81280000D01*
X128413032Y-81280000D01*
X128319023Y-80807386D01*
X128051309Y-80406723D01*
X127650646Y-80139009D01*
X127178032Y-80045000D01*
X126313968Y-80045000D01*
X125841354Y-80139009D01*
X125440691Y-80406723D01*
X125172977Y-80807386D01*
X125078968Y-81280000D01*
X123066092Y-81280000D01*
X123397676Y-79613019D01*
X125267684Y-76814354D01*
X125440691Y-77073277D01*
X125841354Y-77340991D01*
X126313968Y-77435000D01*
X127178032Y-77435000D01*
X127650646Y-77340991D01*
X128051309Y-77073277D01*
X128319023Y-76672614D01*
X128413032Y-76200000D01*
X132698968Y-76200000D01*
X132792977Y-76672614D01*
X133060691Y-77073277D01*
X133461354Y-77340991D01*
X133933968Y-77435000D01*
X134798032Y-77435000D01*
X135270646Y-77340991D01*
X135671309Y-77073277D01*
X135939023Y-76672614D01*
X136033032Y-76200000D01*
X135939023Y-75727386D01*
X135671309Y-75326723D01*
X135270646Y-75059009D01*
X134798032Y-74965000D01*
X133933968Y-74965000D01*
X133461354Y-75059009D01*
X133060691Y-75326723D01*
X132792977Y-75727386D01*
X132698968Y-76200000D01*
X128413032Y-76200000D01*
X128319023Y-75727386D01*
X128051309Y-75326723D01*
X127650646Y-75059009D01*
X127178032Y-74965000D01*
X126503383Y-74965000D01*
X132692940Y-65701674D01*
X133186533Y-64989329D01*
X150545646Y-53458823D01*
X155780375Y-52291076D01*
X167894000Y-49881526D01*
X184480010Y-53180688D01*
X184480010Y-53180688D01*
G37*
X184480010Y-53180688D02*
X187271471Y-54180101D01*
X201431599Y-63641596D01*
X202423954Y-64697292D01*
X212390324Y-79613019D01*
X216056474Y-98044000D01*
X212492410Y-115961759D01*
X212330207Y-116564953D01*
X204337343Y-128527119D01*
X173862730Y-128651000D01*
X159385000Y-128651000D01*
X159335590Y-128661006D01*
X159293965Y-128689447D01*
X159266685Y-128731841D01*
X159258000Y-128778000D01*
X159258000Y-129540000D01*
X159268006Y-129589410D01*
X159296447Y-129631035D01*
X159338841Y-129658315D01*
X159385000Y-129667000D01*
X170762394Y-129667000D01*
X171958000Y-130862606D01*
X171958000Y-140530198D01*
X171432241Y-141055957D01*
X171495838Y-140902799D01*
X171496162Y-140530833D01*
X171354117Y-140187057D01*
X171091327Y-139923808D01*
X170747799Y-139781162D01*
X170700923Y-139781121D01*
X170302302Y-139382500D01*
X170319680Y-139365122D01*
X170365167Y-139365162D01*
X170708943Y-139223117D01*
X170972192Y-138960327D01*
X171114838Y-138616799D01*
X171115162Y-138244833D01*
X170973117Y-137901057D01*
X170710327Y-137637808D01*
X170366799Y-137495162D01*
X169994833Y-137494838D01*
X169651057Y-137636883D01*
X169535000Y-137752738D01*
X169535000Y-137715750D01*
X169376250Y-137557000D01*
X168402000Y-137557000D01*
X168402000Y-137577000D01*
X168148000Y-137577000D01*
X168148000Y-137557000D01*
X167173750Y-137557000D01*
X167015000Y-137715750D01*
X167015000Y-138056309D01*
X167111673Y-138289698D01*
X167252910Y-138430936D01*
X167198559Y-138465910D01*
X167053569Y-138678110D01*
X167002560Y-138930000D01*
X167002560Y-139930000D01*
X167046838Y-140165317D01*
X167185910Y-140381441D01*
X167398110Y-140526431D01*
X167650000Y-140577440D01*
X168900000Y-140577440D01*
X169135317Y-140533162D01*
X169237565Y-140467367D01*
X169625878Y-140855680D01*
X169625838Y-140901167D01*
X169760056Y-141226000D01*
X165414802Y-141226000D01*
X165309400Y-141120598D01*
X165399838Y-140902799D01*
X165400162Y-140530833D01*
X165258117Y-140187057D01*
X164995327Y-139923808D01*
X164651799Y-139781162D01*
X164279833Y-139780838D01*
X163936057Y-139922883D01*
X163672808Y-140185673D01*
X163530162Y-140529201D01*
X163529838Y-140901167D01*
X163671883Y-141244943D01*
X163705000Y-141278118D01*
X163705000Y-141351000D01*
X163762852Y-141641839D01*
X163927599Y-141888401D01*
X164154198Y-142115000D01*
X161520109Y-142115000D01*
X160145000Y-141198261D01*
X160145000Y-136710167D01*
X161624838Y-136710167D01*
X161766883Y-137053943D01*
X162029673Y-137317192D01*
X162373201Y-137459838D01*
X162745167Y-137460162D01*
X163088943Y-137318117D01*
X163352192Y-137055327D01*
X163456680Y-136803691D01*
X167015000Y-136803691D01*
X167015000Y-137144250D01*
X167173750Y-137303000D01*
X168148000Y-137303000D01*
X168148000Y-136453750D01*
X168402000Y-136453750D01*
X168402000Y-137303000D01*
X169376250Y-137303000D01*
X169535000Y-137144250D01*
X169535000Y-136803691D01*
X169438327Y-136570302D01*
X169259699Y-136391673D01*
X169026310Y-136295000D01*
X168560750Y-136295000D01*
X168402000Y-136453750D01*
X168148000Y-136453750D01*
X167989250Y-136295000D01*
X167523690Y-136295000D01*
X167290301Y-136391673D01*
X167111673Y-136570302D01*
X167015000Y-136803691D01*
X163456680Y-136803691D01*
X163494838Y-136711799D01*
X163494879Y-136664923D01*
X164779802Y-135380000D01*
X168982537Y-135380000D01*
X169014673Y-135412192D01*
X169358201Y-135554838D01*
X169730167Y-135555162D01*
X170073943Y-135413117D01*
X170337192Y-135150327D01*
X170479838Y-134806799D01*
X170480162Y-134434833D01*
X170338117Y-134091057D01*
X170075327Y-133827808D01*
X169731799Y-133685162D01*
X169359833Y-133684838D01*
X169016057Y-133826883D01*
X168982882Y-133860000D01*
X164465000Y-133860000D01*
X164174161Y-133917852D01*
X163927599Y-134082599D01*
X162420320Y-135589878D01*
X162374833Y-135589838D01*
X162031057Y-135731883D01*
X161767808Y-135994673D01*
X161625162Y-136338201D01*
X161624838Y-136710167D01*
X160145000Y-136710167D01*
X160145000Y-135182463D01*
X160177192Y-135150327D01*
X160319838Y-134806799D01*
X160320162Y-134434833D01*
X160178117Y-134091057D01*
X159915327Y-133827808D01*
X159571799Y-133685162D01*
X159199833Y-133684838D01*
X158856057Y-133826883D01*
X158592808Y-134089673D01*
X158450162Y-134433201D01*
X158449838Y-134805167D01*
X158591883Y-135148943D01*
X158625000Y-135182118D01*
X158625000Y-141605000D01*
X158639680Y-141678802D01*
X158639759Y-141754048D01*
X158668325Y-141822810D01*
X158682852Y-141895839D01*
X158724658Y-141958406D01*
X158753526Y-142027894D01*
X158806231Y-142080489D01*
X158847599Y-142142401D01*
X158910165Y-142184206D01*
X158963428Y-142237358D01*
X160868428Y-143507358D01*
X160937251Y-143535781D01*
X160999161Y-143577148D01*
X161072962Y-143591828D01*
X161142511Y-143620551D01*
X161216969Y-143620473D01*
X161290000Y-143635000D01*
X163029367Y-143635000D01*
X162895162Y-143958201D01*
X162894838Y-144330167D01*
X163036883Y-144673943D01*
X163299673Y-144937192D01*
X163643201Y-145079838D01*
X163690077Y-145079879D01*
X163898198Y-145288000D01*
X163843455Y-145288000D01*
X154990293Y-143390894D01*
X151233268Y-140886211D01*
X149987000Y-137770541D01*
X149987000Y-130862606D01*
X151182606Y-129667000D01*
X156464000Y-129667000D01*
X156513410Y-129656994D01*
X156555035Y-129628553D01*
X156582315Y-129586159D01*
X156591000Y-129540000D01*
X156591000Y-128778000D01*
X156580994Y-128728590D01*
X156552553Y-128686965D01*
X156510159Y-128659685D01*
X156464000Y-128651000D01*
X146824410Y-128651000D01*
X140098909Y-127324201D01*
X140816655Y-126607707D01*
X141223536Y-125627827D01*
X141224462Y-124566828D01*
X140819291Y-123586239D01*
X140069707Y-122835345D01*
X139089827Y-122428464D01*
X138028828Y-122427538D01*
X137048239Y-122832709D01*
X136297345Y-123582293D01*
X135890464Y-124562173D01*
X135889538Y-125623172D01*
X136281191Y-126571045D01*
X129211778Y-125176399D01*
X124083607Y-117501549D01*
X121929165Y-109092278D01*
X121148181Y-105166000D01*
X130821560Y-105166000D01*
X130821560Y-106416000D01*
X130865838Y-106651317D01*
X131004910Y-106867441D01*
X131217110Y-107012431D01*
X131469000Y-107063440D01*
X132469000Y-107063440D01*
X132704317Y-107019162D01*
X132920441Y-106880090D01*
X132966969Y-106811994D01*
X133109302Y-106954327D01*
X133342691Y-107051000D01*
X133683250Y-107051000D01*
X133842000Y-106892250D01*
X133842000Y-105918000D01*
X134096000Y-105918000D01*
X134096000Y-106892250D01*
X134254750Y-107051000D01*
X134595309Y-107051000D01*
X134828698Y-106954327D01*
X135007327Y-106775699D01*
X135104000Y-106542310D01*
X135104000Y-106076750D01*
X134945250Y-105918000D01*
X134096000Y-105918000D01*
X133842000Y-105918000D01*
X133822000Y-105918000D01*
X133822000Y-105664000D01*
X133842000Y-105664000D01*
X133842000Y-104689750D01*
X134096000Y-104689750D01*
X134096000Y-105664000D01*
X134945250Y-105664000D01*
X135104000Y-105505250D01*
X135104000Y-105039690D01*
X135007327Y-104806301D01*
X134828698Y-104627673D01*
X134595309Y-104531000D01*
X134254750Y-104531000D01*
X134096000Y-104689750D01*
X133842000Y-104689750D01*
X133683250Y-104531000D01*
X133342691Y-104531000D01*
X133109302Y-104627673D01*
X132968064Y-104768910D01*
X132933090Y-104714559D01*
X132720890Y-104569569D01*
X132469000Y-104518560D01*
X131469000Y-104518560D01*
X131233683Y-104562838D01*
X131017559Y-104701910D01*
X130872569Y-104914110D01*
X130821560Y-105166000D01*
X121148181Y-105166000D01*
X120829357Y-103563167D01*
X127842838Y-103563167D01*
X127984883Y-103906943D01*
X128247673Y-104170192D01*
X128591201Y-104312838D01*
X128963167Y-104313162D01*
X129306943Y-104171117D01*
X129362975Y-104115183D01*
X129381883Y-104160943D01*
X129644673Y-104424192D01*
X129988201Y-104566838D01*
X130360167Y-104567162D01*
X130703943Y-104425117D01*
X130967192Y-104162327D01*
X131082764Y-103884000D01*
X153906897Y-103884000D01*
X153878162Y-103953201D01*
X153877838Y-104325167D01*
X154019883Y-104668943D01*
X154053000Y-104702118D01*
X154053000Y-108077000D01*
X154110852Y-108367839D01*
X154275599Y-108614401D01*
X157323599Y-111662401D01*
X157570161Y-111827148D01*
X157861000Y-111885000D01*
X170373198Y-111885000D01*
X170768878Y-112280680D01*
X170768838Y-112326167D01*
X170910883Y-112669943D01*
X171173673Y-112933192D01*
X171517201Y-113075838D01*
X171889167Y-113076162D01*
X172232943Y-112934117D01*
X172496192Y-112671327D01*
X172638838Y-112327799D01*
X172639162Y-111955833D01*
X172497117Y-111612057D01*
X172234327Y-111348808D01*
X171890799Y-111206162D01*
X171843923Y-111206121D01*
X171225401Y-110587599D01*
X170978839Y-110422852D01*
X170688000Y-110365000D01*
X158175802Y-110365000D01*
X155573000Y-107762198D01*
X155573000Y-107492568D01*
X169249800Y-107492568D01*
X169249800Y-108356632D01*
X169343809Y-108829246D01*
X169611523Y-109229909D01*
X170012186Y-109497623D01*
X170484800Y-109591632D01*
X170957414Y-109497623D01*
X171358077Y-109229909D01*
X171625791Y-108829246D01*
X171719800Y-108356632D01*
X171719800Y-107492568D01*
X171625791Y-107019954D01*
X171358077Y-106619291D01*
X170957414Y-106351577D01*
X170484800Y-106257568D01*
X170012186Y-106351577D01*
X169611523Y-106619291D01*
X169343809Y-107019954D01*
X169249800Y-107492568D01*
X155573000Y-107492568D01*
X155573000Y-104702463D01*
X155605192Y-104670327D01*
X155747838Y-104326799D01*
X155748162Y-103954833D01*
X155718894Y-103884000D01*
X159118560Y-103884000D01*
X159118560Y-103987600D01*
X159162838Y-104222917D01*
X159301910Y-104439041D01*
X159514110Y-104584031D01*
X159766000Y-104635040D01*
X161798000Y-104635040D01*
X162033317Y-104590762D01*
X162249441Y-104451690D01*
X162394431Y-104239490D01*
X162445440Y-103987600D01*
X162445440Y-102260400D01*
X162401162Y-102025083D01*
X162262090Y-101808959D01*
X162049890Y-101663969D01*
X162008561Y-101655600D01*
X162026415Y-101643670D01*
X162351271Y-101157489D01*
X162465345Y-100584000D01*
X162351271Y-100010511D01*
X162026415Y-99524330D01*
X161711634Y-99314000D01*
X162026415Y-99103670D01*
X162351271Y-98617489D01*
X162465345Y-98044000D01*
X162351271Y-97470511D01*
X162026415Y-96984330D01*
X161711634Y-96774000D01*
X162026415Y-96563670D01*
X162226648Y-96264000D01*
X164785198Y-96264000D01*
X172264800Y-103743602D01*
X172264800Y-106543602D01*
X172151523Y-106619291D01*
X171883809Y-107019954D01*
X171789800Y-107492568D01*
X171789800Y-108356632D01*
X171883809Y-108829246D01*
X172151523Y-109229909D01*
X172552186Y-109497623D01*
X173024800Y-109591632D01*
X173484000Y-109500291D01*
X173484000Y-110617000D01*
X173541852Y-110907839D01*
X173706599Y-111154401D01*
X174804800Y-112252602D01*
X174804800Y-114163602D01*
X174691523Y-114239291D01*
X174423809Y-114639954D01*
X174329800Y-115112568D01*
X174329800Y-115976632D01*
X174423809Y-116449246D01*
X174691523Y-116849909D01*
X175059825Y-117096000D01*
X173452278Y-117096000D01*
X173808274Y-116907680D01*
X174117190Y-116534547D01*
X174259800Y-116071600D01*
X174259800Y-115671600D01*
X173151800Y-115671600D01*
X173151800Y-115691600D01*
X172897800Y-115691600D01*
X172897800Y-115671600D01*
X171789800Y-115671600D01*
X171789800Y-116071600D01*
X171932410Y-116534547D01*
X172241326Y-116907680D01*
X172597322Y-117096000D01*
X170989775Y-117096000D01*
X171358077Y-116849909D01*
X171625791Y-116449246D01*
X171719800Y-115976632D01*
X171719800Y-115112568D01*
X171700910Y-115017600D01*
X171789800Y-115017600D01*
X171789800Y-115417600D01*
X172897800Y-115417600D01*
X172897800Y-114075869D01*
X173151800Y-114075869D01*
X173151800Y-115417600D01*
X174259800Y-115417600D01*
X174259800Y-115017600D01*
X174117190Y-114554653D01*
X173808274Y-114181520D01*
X173380081Y-113955008D01*
X173342409Y-113951138D01*
X173151800Y-114075869D01*
X172897800Y-114075869D01*
X172707191Y-113951138D01*
X172669519Y-113955008D01*
X172241326Y-114181520D01*
X171932410Y-114554653D01*
X171789800Y-115017600D01*
X171700910Y-115017600D01*
X171625791Y-114639954D01*
X171358077Y-114239291D01*
X170957414Y-113971577D01*
X170484800Y-113877568D01*
X170012186Y-113971577D01*
X169611523Y-114239291D01*
X169569622Y-114302000D01*
X158750000Y-114302000D01*
X158459161Y-114359852D01*
X158212599Y-114524599D01*
X154748439Y-117988759D01*
X154366511Y-118064729D01*
X153880330Y-118389585D01*
X153555474Y-118875766D01*
X153441400Y-119449255D01*
X153441400Y-119818745D01*
X153555474Y-120392234D01*
X153880330Y-120878415D01*
X154180000Y-121078648D01*
X154180000Y-124206000D01*
X154237852Y-124496839D01*
X154402599Y-124743401D01*
X157101000Y-127441802D01*
X157101000Y-131390537D01*
X157068808Y-131422673D01*
X156926162Y-131766201D01*
X156925838Y-132138167D01*
X157067883Y-132481943D01*
X157330673Y-132745192D01*
X157674201Y-132887838D01*
X158046167Y-132888162D01*
X158389943Y-132746117D01*
X158653192Y-132483327D01*
X158795838Y-132139799D01*
X158796162Y-131767833D01*
X158654117Y-131424057D01*
X158621000Y-131390882D01*
X158621000Y-127127000D01*
X158563148Y-126836161D01*
X158398401Y-126589599D01*
X157304974Y-125496172D01*
X194436538Y-125496172D01*
X194841709Y-126476761D01*
X195591293Y-127227655D01*
X196571173Y-127634536D01*
X197632172Y-127635462D01*
X198612761Y-127230291D01*
X199363655Y-126480707D01*
X199770536Y-125500827D01*
X199771462Y-124439828D01*
X199366291Y-123459239D01*
X198616707Y-122708345D01*
X197636827Y-122301464D01*
X196575828Y-122300538D01*
X195595239Y-122705709D01*
X194844345Y-123455293D01*
X194437464Y-124435173D01*
X194436538Y-125496172D01*
X157304974Y-125496172D01*
X155700000Y-123891198D01*
X155700000Y-121078648D01*
X155999670Y-120878415D01*
X156210000Y-120563634D01*
X156420330Y-120878415D01*
X156906511Y-121203271D01*
X157480000Y-121317345D01*
X158053489Y-121203271D01*
X158539670Y-120878415D01*
X158750000Y-120563634D01*
X158960330Y-120878415D01*
X159446511Y-121203271D01*
X160020000Y-121317345D01*
X160593489Y-121203271D01*
X161079670Y-120878415D01*
X161290000Y-120563634D01*
X161500330Y-120878415D01*
X161986511Y-121203271D01*
X162560000Y-121317345D01*
X163133489Y-121203271D01*
X163619670Y-120878415D01*
X163830000Y-120563634D01*
X164040330Y-120878415D01*
X164526511Y-121203271D01*
X165100000Y-121317345D01*
X165673489Y-121203271D01*
X166159670Y-120878415D01*
X166370000Y-120563634D01*
X166580330Y-120878415D01*
X167066511Y-121203271D01*
X167640000Y-121317345D01*
X168213489Y-121203271D01*
X168699670Y-120878415D01*
X168910000Y-120563634D01*
X169120330Y-120878415D01*
X169606511Y-121203271D01*
X170180000Y-121317345D01*
X170753489Y-121203271D01*
X171239670Y-120878415D01*
X171450000Y-120563634D01*
X171660330Y-120878415D01*
X172146511Y-121203271D01*
X172720000Y-121317345D01*
X173293489Y-121203271D01*
X173779670Y-120878415D01*
X173990000Y-120563634D01*
X174200330Y-120878415D01*
X174686511Y-121203271D01*
X175260000Y-121317345D01*
X175833489Y-121203271D01*
X176319670Y-120878415D01*
X176530000Y-120563634D01*
X176740330Y-120878415D01*
X177226511Y-121203271D01*
X177800000Y-121317345D01*
X178373489Y-121203271D01*
X178859670Y-120878415D01*
X179070000Y-120563634D01*
X179280330Y-120878415D01*
X179766511Y-121203271D01*
X180340000Y-121317345D01*
X180913489Y-121203271D01*
X181399670Y-120878415D01*
X181610000Y-120563634D01*
X181820330Y-120878415D01*
X182306511Y-121203271D01*
X182880000Y-121317345D01*
X183453489Y-121203271D01*
X183939670Y-120878415D01*
X184150000Y-120563634D01*
X184360330Y-120878415D01*
X184846511Y-121203271D01*
X185420000Y-121317345D01*
X185993489Y-121203271D01*
X186479670Y-120878415D01*
X186690000Y-120563634D01*
X186900330Y-120878415D01*
X187386511Y-121203271D01*
X187960000Y-121317345D01*
X188533489Y-121203271D01*
X189019670Y-120878415D01*
X189226461Y-120568931D01*
X189597964Y-120984732D01*
X190125209Y-121238709D01*
X190140974Y-121241358D01*
X190373000Y-121120217D01*
X190373000Y-119761000D01*
X190353000Y-119761000D01*
X190353000Y-119507000D01*
X190373000Y-119507000D01*
X190373000Y-118147783D01*
X190627000Y-118147783D01*
X190627000Y-119507000D01*
X190647000Y-119507000D01*
X190647000Y-119761000D01*
X190627000Y-119761000D01*
X190627000Y-121120217D01*
X190859026Y-121241358D01*
X190874791Y-121238709D01*
X191402036Y-120984732D01*
X191558907Y-120809155D01*
X191573238Y-120885317D01*
X191712310Y-121101441D01*
X191924510Y-121246431D01*
X192176400Y-121297440D01*
X193903600Y-121297440D01*
X194138917Y-121253162D01*
X194355041Y-121114090D01*
X194500031Y-120901890D01*
X194551040Y-120650000D01*
X194551040Y-118618000D01*
X194506762Y-118382683D01*
X194367690Y-118166559D01*
X194155490Y-118021569D01*
X193903600Y-117970560D01*
X192176400Y-117970560D01*
X191941083Y-118014838D01*
X191724959Y-118153910D01*
X191579969Y-118366110D01*
X191560768Y-118460927D01*
X191402036Y-118283268D01*
X190874791Y-118029291D01*
X190859026Y-118026642D01*
X190627000Y-118147783D01*
X190373000Y-118147783D01*
X190140974Y-118026642D01*
X190125209Y-118029291D01*
X189597964Y-118283268D01*
X189226461Y-118699069D01*
X189019670Y-118389585D01*
X188533489Y-118064729D01*
X187960000Y-117950655D01*
X187386511Y-118064729D01*
X186900330Y-118389585D01*
X186690000Y-118704366D01*
X186479670Y-118389585D01*
X185993489Y-118064729D01*
X185420000Y-117950655D01*
X184846511Y-118064729D01*
X184360330Y-118389585D01*
X184150000Y-118704366D01*
X183939670Y-118389585D01*
X183453489Y-118064729D01*
X182880000Y-117950655D01*
X182306511Y-118064729D01*
X181820330Y-118389585D01*
X181610000Y-118704366D01*
X181399670Y-118389585D01*
X180913489Y-118064729D01*
X180340000Y-117950655D01*
X179832421Y-118051619D01*
X179099401Y-117318599D01*
X178852839Y-117153852D01*
X178598815Y-117103323D01*
X178978077Y-116849909D01*
X179245791Y-116449246D01*
X179339800Y-115976632D01*
X179339800Y-115112568D01*
X179245791Y-114639954D01*
X178978077Y-114239291D01*
X178864800Y-114163602D01*
X178864800Y-112318800D01*
X178806948Y-112027961D01*
X178642201Y-111781399D01*
X177671000Y-110810198D01*
X177671000Y-109505344D01*
X178104800Y-109591632D01*
X178577414Y-109497623D01*
X178691000Y-109421727D01*
X178691000Y-110998000D01*
X178748852Y-111288839D01*
X178913599Y-111535401D01*
X179884800Y-112506602D01*
X179884800Y-114163602D01*
X179771523Y-114239291D01*
X179503809Y-114639954D01*
X179409800Y-115112568D01*
X179409800Y-115976632D01*
X179503809Y-116449246D01*
X179771523Y-116849909D01*
X180172186Y-117117623D01*
X180644800Y-117211632D01*
X181117414Y-117117623D01*
X181518077Y-116849909D01*
X181785791Y-116449246D01*
X181879800Y-115976632D01*
X181879800Y-115112568D01*
X181785791Y-114639954D01*
X181518077Y-114239291D01*
X181404800Y-114163602D01*
X181404800Y-112191800D01*
X181346948Y-111900961D01*
X181182201Y-111654399D01*
X180211000Y-110683198D01*
X180211000Y-109505344D01*
X180644800Y-109591632D01*
X181104000Y-109500291D01*
X181104000Y-111125000D01*
X181161852Y-111415839D01*
X181326599Y-111662401D01*
X182424800Y-112760602D01*
X182424800Y-114163602D01*
X182311523Y-114239291D01*
X182043809Y-114639954D01*
X181949800Y-115112568D01*
X181949800Y-115976632D01*
X182043809Y-116449246D01*
X182311523Y-116849909D01*
X182712186Y-117117623D01*
X183184800Y-117211632D01*
X183657414Y-117117623D01*
X184058077Y-116849909D01*
X184325791Y-116449246D01*
X184419800Y-115976632D01*
X184419800Y-115671600D01*
X184489800Y-115671600D01*
X184489800Y-116071600D01*
X184632410Y-116534547D01*
X184941326Y-116907680D01*
X185369519Y-117134192D01*
X185407191Y-117138062D01*
X185597800Y-117013331D01*
X185597800Y-115671600D01*
X185851800Y-115671600D01*
X185851800Y-117013331D01*
X186042409Y-117138062D01*
X186080081Y-117134192D01*
X186508274Y-116907680D01*
X186817190Y-116534547D01*
X186959800Y-116071600D01*
X186959800Y-115671600D01*
X185851800Y-115671600D01*
X185597800Y-115671600D01*
X184489800Y-115671600D01*
X184419800Y-115671600D01*
X184419800Y-115112568D01*
X184400910Y-115017600D01*
X184489800Y-115017600D01*
X184489800Y-115417600D01*
X185597800Y-115417600D01*
X185597800Y-114075869D01*
X185851800Y-114075869D01*
X185851800Y-115417600D01*
X186959800Y-115417600D01*
X186959800Y-115017600D01*
X186817190Y-114554653D01*
X186508274Y-114181520D01*
X186080081Y-113955008D01*
X186042409Y-113951138D01*
X185851800Y-114075869D01*
X185597800Y-114075869D01*
X185407191Y-113951138D01*
X185369519Y-113955008D01*
X184941326Y-114181520D01*
X184632410Y-114554653D01*
X184489800Y-115017600D01*
X184400910Y-115017600D01*
X184325791Y-114639954D01*
X184058077Y-114239291D01*
X183944800Y-114163602D01*
X183944800Y-112445800D01*
X183886948Y-112154961D01*
X183886948Y-112154960D01*
X183722201Y-111908399D01*
X182624000Y-110810198D01*
X182624000Y-109438699D01*
X182712186Y-109497623D01*
X183184800Y-109591632D01*
X183657414Y-109497623D01*
X184058077Y-109229909D01*
X184325791Y-108829246D01*
X184419800Y-108356632D01*
X184419800Y-107492568D01*
X184489800Y-107492568D01*
X184489800Y-108356632D01*
X184583809Y-108829246D01*
X184851523Y-109229909D01*
X185252186Y-109497623D01*
X185724800Y-109591632D01*
X186197414Y-109497623D01*
X186598077Y-109229909D01*
X186865791Y-108829246D01*
X186959800Y-108356632D01*
X186959800Y-107492568D01*
X186865791Y-107019954D01*
X186598077Y-106619291D01*
X186197414Y-106351577D01*
X185724800Y-106257568D01*
X185252186Y-106351577D01*
X184851523Y-106619291D01*
X184583809Y-107019954D01*
X184489800Y-107492568D01*
X184419800Y-107492568D01*
X184325791Y-107019954D01*
X184058077Y-106619291D01*
X183657414Y-106351577D01*
X183184800Y-106257568D01*
X182712186Y-106351577D01*
X182624000Y-106410501D01*
X182624000Y-99949000D01*
X182566148Y-99658161D01*
X182566148Y-99658160D01*
X182401401Y-99411599D01*
X171606401Y-88616599D01*
X171359839Y-88451852D01*
X171338373Y-88447582D01*
X171363629Y-88422370D01*
X171377070Y-88390000D01*
X173421198Y-88390000D01*
X177262599Y-92231401D01*
X177509161Y-92396148D01*
X177800000Y-92454000D01*
X191582198Y-92454000D01*
X193423000Y-94294802D01*
X193423000Y-94654234D01*
X193113029Y-94190330D01*
X192626848Y-93865474D01*
X192053359Y-93751400D01*
X191994641Y-93751400D01*
X191421152Y-93865474D01*
X190955558Y-94176574D01*
X190950762Y-94151083D01*
X190811690Y-93934959D01*
X190599490Y-93789969D01*
X190347600Y-93738960D01*
X188620400Y-93738960D01*
X188385083Y-93783238D01*
X188168959Y-93922310D01*
X188023969Y-94134510D01*
X187972960Y-94386400D01*
X187972960Y-96113600D01*
X188017238Y-96348917D01*
X188156310Y-96565041D01*
X188368510Y-96710031D01*
X188412131Y-96718864D01*
X188394971Y-96730330D01*
X188070115Y-97216511D01*
X187956041Y-97790000D01*
X188070115Y-98363489D01*
X188394971Y-98849670D01*
X188709752Y-99060000D01*
X188394971Y-99270330D01*
X188070115Y-99756511D01*
X187956041Y-100330000D01*
X188070115Y-100903489D01*
X188394971Y-101389670D01*
X188881152Y-101714526D01*
X189454641Y-101828600D01*
X189513359Y-101828600D01*
X190086848Y-101714526D01*
X190573029Y-101389670D01*
X190754000Y-101118828D01*
X190934971Y-101389670D01*
X191421152Y-101714526D01*
X191994641Y-101828600D01*
X192053359Y-101828600D01*
X192626848Y-101714526D01*
X193113029Y-101389670D01*
X193437885Y-100903489D01*
X193551959Y-100330000D01*
X193450514Y-99820000D01*
X195730455Y-99820000D01*
X195760971Y-99865670D01*
X196075752Y-100076000D01*
X195760971Y-100286330D01*
X195436115Y-100772511D01*
X195322041Y-101346000D01*
X195436115Y-101919489D01*
X195760971Y-102405670D01*
X196247152Y-102730526D01*
X196820641Y-102844600D01*
X196879359Y-102844600D01*
X197452848Y-102730526D01*
X197918442Y-102419426D01*
X197923238Y-102444917D01*
X198062310Y-102661041D01*
X198274510Y-102806031D01*
X198526400Y-102857040D01*
X200253600Y-102857040D01*
X200488917Y-102812762D01*
X200705041Y-102673690D01*
X200850031Y-102461490D01*
X200901040Y-102209600D01*
X200901040Y-100482400D01*
X200856762Y-100247083D01*
X200717690Y-100030959D01*
X200505490Y-99885969D01*
X200461869Y-99877136D01*
X200479029Y-99865670D01*
X200803885Y-99379489D01*
X200917959Y-98806000D01*
X200803885Y-98232511D01*
X200479029Y-97746330D01*
X200164248Y-97536000D01*
X200479029Y-97325670D01*
X200803885Y-96839489D01*
X200917959Y-96266000D01*
X200803885Y-95692511D01*
X200479029Y-95206330D01*
X200164248Y-94996000D01*
X200479029Y-94785670D01*
X200803885Y-94299489D01*
X200917959Y-93726000D01*
X200803885Y-93152511D01*
X200479029Y-92666330D01*
X199992848Y-92341474D01*
X199419359Y-92227400D01*
X199360641Y-92227400D01*
X198787152Y-92341474D01*
X198300971Y-92666330D01*
X198120008Y-92937161D01*
X197738490Y-92519179D01*
X197209027Y-92271032D01*
X196977000Y-92391531D01*
X196977000Y-93599000D01*
X196997000Y-93599000D01*
X196997000Y-93853000D01*
X196977000Y-93853000D01*
X196977000Y-93873000D01*
X196723000Y-93873000D01*
X196723000Y-93853000D01*
X195516183Y-93853000D01*
X195395042Y-94085026D01*
X195567312Y-94500947D01*
X195961510Y-94932821D01*
X196084228Y-94990336D01*
X195760971Y-95206330D01*
X195560738Y-95506000D01*
X195132802Y-95506000D01*
X194943000Y-95316198D01*
X194943000Y-93980000D01*
X194885148Y-93689161D01*
X194885148Y-93689160D01*
X194720401Y-93442599D01*
X194644776Y-93366974D01*
X195395042Y-93366974D01*
X195516183Y-93599000D01*
X196723000Y-93599000D01*
X196723000Y-92391531D01*
X196490973Y-92271032D01*
X195961510Y-92519179D01*
X195567312Y-92951053D01*
X195395042Y-93366974D01*
X194644776Y-93366974D01*
X192842802Y-91565000D01*
X200599198Y-91565000D01*
X201297000Y-92262802D01*
X201297000Y-103831537D01*
X201264808Y-103863673D01*
X201122162Y-104207201D01*
X201121838Y-104579167D01*
X201263883Y-104922943D01*
X201526673Y-105186192D01*
X201870201Y-105328838D01*
X202242167Y-105329162D01*
X202585943Y-105187117D01*
X202849192Y-104924327D01*
X202991838Y-104580799D01*
X202992162Y-104208833D01*
X202850117Y-103865057D01*
X202817000Y-103831882D01*
X202817000Y-92131802D01*
X203202000Y-92516802D01*
X203202000Y-105603197D01*
X197932198Y-110873000D01*
X187379463Y-110873000D01*
X187347327Y-110840808D01*
X187003799Y-110698162D01*
X186631833Y-110697838D01*
X186288057Y-110839883D01*
X186024808Y-111102673D01*
X185882162Y-111446201D01*
X185881838Y-111818167D01*
X186023883Y-112161943D01*
X186286673Y-112425192D01*
X186630201Y-112567838D01*
X187002167Y-112568162D01*
X187345943Y-112426117D01*
X187379118Y-112393000D01*
X198247000Y-112393000D01*
X198537839Y-112335148D01*
X198784401Y-112170401D01*
X204499402Y-106455401D01*
X204664148Y-106208839D01*
X204722000Y-105918000D01*
X204722000Y-92202000D01*
X204664148Y-91911161D01*
X204499401Y-91664599D01*
X202467401Y-89632599D01*
X202220839Y-89467852D01*
X201930000Y-89410000D01*
X186115802Y-89410000D01*
X184402000Y-87696198D01*
X184402000Y-82517655D01*
X191135000Y-82517655D01*
X191135000Y-82582345D01*
X191260675Y-83214155D01*
X191618567Y-83749778D01*
X192154190Y-84107670D01*
X192786000Y-84233345D01*
X193417810Y-84107670D01*
X193757792Y-83880501D01*
X193845910Y-84017441D01*
X194058110Y-84162431D01*
X194310000Y-84213440D01*
X196342000Y-84213440D01*
X196577317Y-84169162D01*
X196793441Y-84030090D01*
X196938431Y-83817890D01*
X196989440Y-83566000D01*
X196989440Y-81534000D01*
X196945162Y-81298683D01*
X196806090Y-81082559D01*
X196593890Y-80937569D01*
X196342000Y-80886560D01*
X194310000Y-80886560D01*
X194074683Y-80930838D01*
X193858559Y-81069910D01*
X193756802Y-81218837D01*
X193546000Y-81077984D01*
X193546000Y-77911802D01*
X198480350Y-72977452D01*
X198882000Y-73057345D01*
X199389579Y-72956381D01*
X199630599Y-73197401D01*
X199877161Y-73362148D01*
X200168000Y-73420000D01*
X200463721Y-73420000D01*
X200586910Y-73611441D01*
X200656711Y-73659134D01*
X200599559Y-73695910D01*
X200454569Y-73908110D01*
X200435893Y-74000337D01*
X200182370Y-73746371D01*
X199669100Y-73533243D01*
X199113339Y-73532758D01*
X198599697Y-73744990D01*
X198206371Y-74137630D01*
X197993243Y-74650900D01*
X197992758Y-75206661D01*
X198204990Y-75720303D01*
X198597630Y-76113629D01*
X198805512Y-76199949D01*
X198599697Y-76284990D01*
X198206371Y-76677630D01*
X197993243Y-77190900D01*
X197992758Y-77746661D01*
X198204990Y-78260303D01*
X198597630Y-78653629D01*
X198805512Y-78739949D01*
X198599697Y-78824990D01*
X198206371Y-79217630D01*
X197993243Y-79730900D01*
X197992758Y-80286661D01*
X198204990Y-80800303D01*
X198597630Y-81193629D01*
X198805512Y-81279949D01*
X198599697Y-81364990D01*
X198206371Y-81757630D01*
X197993243Y-82270900D01*
X197992758Y-82826661D01*
X198204990Y-83340303D01*
X198597630Y-83733629D01*
X199110900Y-83946757D01*
X199666661Y-83947242D01*
X200180303Y-83735010D01*
X200573629Y-83342370D01*
X200786757Y-82829100D01*
X200787242Y-82273339D01*
X200575010Y-81759697D01*
X200182370Y-81366371D01*
X199974488Y-81280051D01*
X200180303Y-81195010D01*
X200573629Y-80802370D01*
X200786757Y-80289100D01*
X200787242Y-79733339D01*
X200575010Y-79219697D01*
X200182370Y-78826371D01*
X199974488Y-78740051D01*
X200180303Y-78655010D01*
X200573629Y-78262370D01*
X200786757Y-77749100D01*
X200787242Y-77193339D01*
X200575010Y-76679697D01*
X200182370Y-76286371D01*
X199974488Y-76200051D01*
X200180303Y-76115010D01*
X200573629Y-75722370D01*
X200612446Y-75628889D01*
X200799110Y-75756431D01*
X201051000Y-75807440D01*
X202301000Y-75807440D01*
X202536317Y-75763162D01*
X202752441Y-75624090D01*
X202897431Y-75411890D01*
X202948440Y-75160000D01*
X202948440Y-74160000D01*
X202904162Y-73924683D01*
X202782800Y-73736081D01*
X202972110Y-73865431D01*
X203224000Y-73916440D01*
X204224000Y-73916440D01*
X204459317Y-73872162D01*
X204675441Y-73733090D01*
X204723134Y-73663289D01*
X204759910Y-73720441D01*
X204972110Y-73865431D01*
X205224000Y-73916440D01*
X206224000Y-73916440D01*
X206459317Y-73872162D01*
X206675441Y-73733090D01*
X206820431Y-73520890D01*
X206871440Y-73269000D01*
X206871440Y-72019000D01*
X206827162Y-71783683D01*
X206688090Y-71567559D01*
X206475890Y-71422569D01*
X206224000Y-71371560D01*
X205224000Y-71371560D01*
X204988683Y-71415838D01*
X204772559Y-71554910D01*
X204724866Y-71624711D01*
X204688090Y-71567559D01*
X204475890Y-71422569D01*
X204224000Y-71371560D01*
X203224000Y-71371560D01*
X202988683Y-71415838D01*
X202772559Y-71554910D01*
X202698611Y-71663136D01*
X202552890Y-71563569D01*
X202301000Y-71512560D01*
X201051000Y-71512560D01*
X200815683Y-71556838D01*
X200599559Y-71695910D01*
X200469321Y-71886519D01*
X200442769Y-71859967D01*
X200533000Y-71406345D01*
X200533000Y-71341655D01*
X200407325Y-70709845D01*
X200049433Y-70174222D01*
X199513810Y-69816330D01*
X198882000Y-69690655D01*
X198250190Y-69816330D01*
X197910208Y-70043499D01*
X197822090Y-69906559D01*
X197609890Y-69761569D01*
X197358000Y-69710560D01*
X195326000Y-69710560D01*
X195090683Y-69754838D01*
X194874559Y-69893910D01*
X194729569Y-70106110D01*
X194678560Y-70358000D01*
X194678560Y-72390000D01*
X194722838Y-72625317D01*
X194861910Y-72841441D01*
X195074110Y-72986431D01*
X195326000Y-73037440D01*
X196270758Y-73037440D01*
X192248599Y-77059599D01*
X192083852Y-77306161D01*
X192026000Y-77597000D01*
X192026000Y-81077984D01*
X191618567Y-81350222D01*
X191260675Y-81885845D01*
X191135000Y-82517655D01*
X184402000Y-82517655D01*
X184402000Y-77343000D01*
X184344148Y-77052161D01*
X184179401Y-76805599D01*
X181693761Y-74319959D01*
X181815431Y-74141890D01*
X181866440Y-73890000D01*
X181866440Y-73675750D01*
X182001000Y-73675750D01*
X182001000Y-74016309D01*
X182097673Y-74249698D01*
X182276301Y-74428327D01*
X182509690Y-74525000D01*
X182975250Y-74525000D01*
X183134000Y-74366250D01*
X183134000Y-73517000D01*
X183388000Y-73517000D01*
X183388000Y-74366250D01*
X183546750Y-74525000D01*
X184012310Y-74525000D01*
X184245699Y-74428327D01*
X184424327Y-74249698D01*
X184521000Y-74016309D01*
X184521000Y-73675750D01*
X184362250Y-73517000D01*
X183388000Y-73517000D01*
X183134000Y-73517000D01*
X182159750Y-73517000D01*
X182001000Y-73675750D01*
X181866440Y-73675750D01*
X181866440Y-72890000D01*
X181822162Y-72654683D01*
X181683090Y-72438559D01*
X181613289Y-72390866D01*
X181670441Y-72354090D01*
X181809890Y-72150000D01*
X182048721Y-72150000D01*
X182171910Y-72341441D01*
X182240006Y-72387969D01*
X182097673Y-72530302D01*
X182001000Y-72763691D01*
X182001000Y-73104250D01*
X182159750Y-73263000D01*
X183134000Y-73263000D01*
X183134000Y-73243000D01*
X183388000Y-73243000D01*
X183388000Y-73263000D01*
X184362250Y-73263000D01*
X184521000Y-73104250D01*
X184521000Y-72763691D01*
X184424327Y-72530302D01*
X184283090Y-72389064D01*
X184337441Y-72354090D01*
X184476890Y-72150000D01*
X187365539Y-72150000D01*
X187420883Y-72283943D01*
X187683673Y-72547192D01*
X188027201Y-72689838D01*
X188399167Y-72690162D01*
X188742943Y-72548117D01*
X189006192Y-72285327D01*
X189148838Y-71941799D01*
X189149162Y-71569833D01*
X189007117Y-71226057D01*
X188744327Y-70962808D01*
X188400799Y-70820162D01*
X188337773Y-70820107D01*
X188139839Y-70687852D01*
X187849000Y-70630000D01*
X184473279Y-70630000D01*
X184350090Y-70438559D01*
X184137890Y-70293569D01*
X183886000Y-70242560D01*
X182636000Y-70242560D01*
X182400683Y-70286838D01*
X182184559Y-70425910D01*
X182045110Y-70630000D01*
X181806279Y-70630000D01*
X181683090Y-70438559D01*
X181470890Y-70293569D01*
X181219000Y-70242560D01*
X179969000Y-70242560D01*
X179733683Y-70286838D01*
X179517559Y-70425910D01*
X179372569Y-70638110D01*
X179321560Y-70890000D01*
X179321560Y-71890000D01*
X179365838Y-72125317D01*
X179504910Y-72341441D01*
X179574711Y-72389134D01*
X179517559Y-72425910D01*
X179372569Y-72638110D01*
X179321560Y-72890000D01*
X179321560Y-73890000D01*
X179365838Y-74125317D01*
X179504910Y-74341441D01*
X179717110Y-74486431D01*
X179878583Y-74519130D01*
X179891852Y-74585839D01*
X180056599Y-74832401D01*
X181307594Y-76083396D01*
X180819697Y-76284990D01*
X180426371Y-76677630D01*
X180340051Y-76885512D01*
X180255010Y-76679697D01*
X179862370Y-76286371D01*
X179349100Y-76073243D01*
X178793339Y-76072758D01*
X178279697Y-76284990D01*
X177886371Y-76677630D01*
X177673243Y-77190900D01*
X177672758Y-77746661D01*
X177769171Y-77980000D01*
X171480879Y-77980000D01*
X171576757Y-77749100D01*
X171577242Y-77193339D01*
X171365010Y-76679697D01*
X170972370Y-76286371D01*
X170764488Y-76200051D01*
X170970303Y-76115010D01*
X171363629Y-75722370D01*
X171576757Y-75209100D01*
X171577242Y-74653339D01*
X171365010Y-74139697D01*
X170972370Y-73746371D01*
X170459100Y-73533243D01*
X169903339Y-73532758D01*
X169389697Y-73744990D01*
X168996371Y-74137630D01*
X168910051Y-74345512D01*
X168825010Y-74139697D01*
X168432370Y-73746371D01*
X167919100Y-73533243D01*
X167363339Y-73532758D01*
X166876000Y-73734122D01*
X166876000Y-71688802D01*
X166907401Y-71657401D01*
X167072148Y-71410840D01*
X167124326Y-71148523D01*
X167360900Y-71246757D01*
X167916661Y-71247242D01*
X168430303Y-71035010D01*
X168823629Y-70642370D01*
X168909949Y-70434488D01*
X168994990Y-70640303D01*
X169387630Y-71033629D01*
X169900900Y-71246757D01*
X170456661Y-71247242D01*
X170970303Y-71035010D01*
X171363629Y-70642370D01*
X171576757Y-70129100D01*
X171577242Y-69573339D01*
X171415327Y-69181475D01*
X181124644Y-59472158D01*
X181453641Y-59537600D01*
X181512359Y-59537600D01*
X182085848Y-59423526D01*
X182501000Y-59146130D01*
X182501000Y-59375198D01*
X172944599Y-68931599D01*
X172779852Y-69178161D01*
X172722000Y-69469000D01*
X172722000Y-75057000D01*
X172779852Y-75347839D01*
X172944599Y-75594401D01*
X173960599Y-76610401D01*
X174207161Y-76775148D01*
X174498000Y-76833000D01*
X175459537Y-76833000D01*
X175491673Y-76865192D01*
X175835201Y-77007838D01*
X176207167Y-77008162D01*
X176550943Y-76866117D01*
X176814192Y-76603327D01*
X176956838Y-76259799D01*
X176957162Y-75887833D01*
X176815117Y-75544057D01*
X176552327Y-75280808D01*
X176208799Y-75138162D01*
X175836833Y-75137838D01*
X175493057Y-75279883D01*
X175459882Y-75313000D01*
X174812802Y-75313000D01*
X174242000Y-74742198D01*
X174242000Y-69783802D01*
X176949630Y-67076172D01*
X194436538Y-67076172D01*
X194841709Y-68056761D01*
X195591293Y-68807655D01*
X196571173Y-69214536D01*
X197632172Y-69215462D01*
X198612761Y-68810291D01*
X199363655Y-68060707D01*
X199770536Y-67080827D01*
X199771462Y-66019828D01*
X199366291Y-65039239D01*
X198616707Y-64288345D01*
X197636827Y-63881464D01*
X196575828Y-63880538D01*
X195595239Y-64285709D01*
X194844345Y-65035293D01*
X194437464Y-66015173D01*
X194436538Y-67076172D01*
X176949630Y-67076172D01*
X181472547Y-62553255D01*
X182905400Y-62553255D01*
X182905400Y-62922745D01*
X183019474Y-63496234D01*
X183344330Y-63982415D01*
X183830511Y-64307271D01*
X184404000Y-64421345D01*
X184977489Y-64307271D01*
X185463670Y-63982415D01*
X185674000Y-63667634D01*
X185884330Y-63982415D01*
X186370511Y-64307271D01*
X186944000Y-64421345D01*
X187517489Y-64307271D01*
X188003670Y-63982415D01*
X188013243Y-63968087D01*
X188017238Y-63989317D01*
X188156310Y-64205441D01*
X188368510Y-64350431D01*
X188620400Y-64401440D01*
X190347600Y-64401440D01*
X190582917Y-64357162D01*
X190799041Y-64218090D01*
X190944031Y-64005890D01*
X190995040Y-63754000D01*
X190995040Y-61722000D01*
X190950762Y-61486683D01*
X190811690Y-61270559D01*
X190599490Y-61125569D01*
X190347600Y-61074560D01*
X188620400Y-61074560D01*
X188385083Y-61118838D01*
X188168959Y-61257910D01*
X188023969Y-61470110D01*
X188015600Y-61511439D01*
X188003670Y-61493585D01*
X187517489Y-61168729D01*
X186944000Y-61054655D01*
X186370511Y-61168729D01*
X185884330Y-61493585D01*
X185674000Y-61808366D01*
X185463670Y-61493585D01*
X184977489Y-61168729D01*
X184404000Y-61054655D01*
X183830511Y-61168729D01*
X183344330Y-61493585D01*
X183019474Y-61979766D01*
X182905400Y-62553255D01*
X181472547Y-62553255D01*
X183798401Y-60227401D01*
X183963148Y-59980840D01*
X183972746Y-59932586D01*
X184021000Y-59690000D01*
X184021000Y-57277000D01*
X183963148Y-56986161D01*
X183798401Y-56739599D01*
X182935775Y-55876973D01*
X183010959Y-55499000D01*
X182896885Y-54925511D01*
X182572029Y-54439330D01*
X182085848Y-54114474D01*
X181512359Y-54000400D01*
X181453641Y-54000400D01*
X180880152Y-54114474D01*
X180393971Y-54439330D01*
X180213000Y-54710172D01*
X180032029Y-54439330D01*
X179545848Y-54114474D01*
X178972359Y-54000400D01*
X178913641Y-54000400D01*
X178340152Y-54114474D01*
X177853971Y-54439330D01*
X177673000Y-54710172D01*
X177492029Y-54439330D01*
X177005848Y-54114474D01*
X176432359Y-54000400D01*
X176373641Y-54000400D01*
X175800152Y-54114474D01*
X175313971Y-54439330D01*
X175133000Y-54710172D01*
X174952029Y-54439330D01*
X174465848Y-54114474D01*
X173892359Y-54000400D01*
X173833641Y-54000400D01*
X173260152Y-54114474D01*
X172773971Y-54439330D01*
X172593000Y-54710172D01*
X172412029Y-54439330D01*
X171925848Y-54114474D01*
X171352359Y-54000400D01*
X171293641Y-54000400D01*
X170720152Y-54114474D01*
X170233971Y-54439330D01*
X170053000Y-54710172D01*
X169872029Y-54439330D01*
X169385848Y-54114474D01*
X168812359Y-54000400D01*
X168753641Y-54000400D01*
X168180152Y-54114474D01*
X167693971Y-54439330D01*
X167513000Y-54710172D01*
X167332029Y-54439330D01*
X166845848Y-54114474D01*
X166272359Y-54000400D01*
X166213641Y-54000400D01*
X165640152Y-54114474D01*
X165153971Y-54439330D01*
X164973000Y-54710172D01*
X164792029Y-54439330D01*
X164305848Y-54114474D01*
X163732359Y-54000400D01*
X163673641Y-54000400D01*
X163100152Y-54114474D01*
X162613971Y-54439330D01*
X162433000Y-54710172D01*
X162252029Y-54439330D01*
X161765848Y-54114474D01*
X161192359Y-54000400D01*
X161133641Y-54000400D01*
X160560152Y-54114474D01*
X160073971Y-54439330D01*
X159893000Y-54710172D01*
X159712029Y-54439330D01*
X159225848Y-54114474D01*
X158652359Y-54000400D01*
X158593641Y-54000400D01*
X158020152Y-54114474D01*
X157533971Y-54439330D01*
X157353000Y-54710172D01*
X157172029Y-54439330D01*
X156685848Y-54114474D01*
X156112359Y-54000400D01*
X156053641Y-54000400D01*
X155480152Y-54114474D01*
X154993971Y-54439330D01*
X154813000Y-54710172D01*
X154632029Y-54439330D01*
X154145848Y-54114474D01*
X153572359Y-54000400D01*
X153513641Y-54000400D01*
X152940152Y-54114474D01*
X152474558Y-54425574D01*
X152469762Y-54400083D01*
X152330690Y-54183959D01*
X152118490Y-54038969D01*
X151866600Y-53987960D01*
X150139400Y-53987960D01*
X149904083Y-54032238D01*
X149687959Y-54171310D01*
X149542969Y-54383510D01*
X149491960Y-54635400D01*
X149491960Y-56362600D01*
X149536238Y-56597917D01*
X149675310Y-56814041D01*
X149887510Y-56959031D01*
X149981375Y-56978039D01*
X149720312Y-57264053D01*
X149548042Y-57679974D01*
X149669183Y-57912000D01*
X150876000Y-57912000D01*
X150876000Y-57892000D01*
X151130000Y-57892000D01*
X151130000Y-57912000D01*
X151150000Y-57912000D01*
X151150000Y-58166000D01*
X151130000Y-58166000D01*
X151130000Y-58186000D01*
X150876000Y-58186000D01*
X150876000Y-58166000D01*
X149669183Y-58166000D01*
X149548042Y-58398026D01*
X149720312Y-58813947D01*
X150114510Y-59245821D01*
X150643973Y-59493968D01*
X150875998Y-59373470D01*
X150875998Y-59537600D01*
X150969598Y-59537600D01*
X142054361Y-68452837D01*
X141963339Y-68452758D01*
X141730000Y-68549171D01*
X141730000Y-68259802D01*
X142523401Y-67466401D01*
X142688148Y-67219839D01*
X142746000Y-66929000D01*
X142746000Y-65840463D01*
X142778192Y-65808327D01*
X142920838Y-65464799D01*
X142921162Y-65092833D01*
X142779117Y-64749057D01*
X142516327Y-64485808D01*
X142172799Y-64343162D01*
X141800833Y-64342838D01*
X141457057Y-64484883D01*
X141193808Y-64747673D01*
X141051162Y-65091201D01*
X141050838Y-65463167D01*
X141192883Y-65806943D01*
X141226000Y-65840118D01*
X141226000Y-66614198D01*
X141223941Y-66616257D01*
X141224462Y-66019828D01*
X140819291Y-65039239D01*
X140069707Y-64288345D01*
X139089827Y-63881464D01*
X138028828Y-63880538D01*
X137048239Y-64285709D01*
X136297345Y-65035293D01*
X135890464Y-66015173D01*
X135889538Y-67076172D01*
X136294709Y-68056761D01*
X137044293Y-68807655D01*
X138024173Y-69214536D01*
X138443338Y-69214902D01*
X138290856Y-69642302D01*
X138318638Y-70197368D01*
X138477603Y-70581143D01*
X138719787Y-70650608D01*
X139520395Y-69850000D01*
X139506253Y-69835858D01*
X139685858Y-69656253D01*
X139700000Y-69670395D01*
X139714143Y-69656253D01*
X139893748Y-69835858D01*
X139879605Y-69850000D01*
X139893748Y-69864143D01*
X139714143Y-70043748D01*
X139700000Y-70029605D01*
X138899392Y-70830213D01*
X138968857Y-71072397D01*
X139492302Y-71259144D01*
X140047368Y-71231362D01*
X140210000Y-71163998D01*
X140210000Y-71247000D01*
X140267852Y-71537839D01*
X140432599Y-71784401D01*
X141480000Y-72831802D01*
X141480000Y-86432469D01*
X141449697Y-86444990D01*
X141056371Y-86837630D01*
X140970051Y-87045512D01*
X140885010Y-86839697D01*
X140492370Y-86446371D01*
X139979100Y-86233243D01*
X139423339Y-86232758D01*
X138909697Y-86444990D01*
X138516371Y-86837630D01*
X138303243Y-87350900D01*
X138302758Y-87906661D01*
X138514990Y-88420303D01*
X138907630Y-88813629D01*
X139420900Y-89026757D01*
X139976661Y-89027242D01*
X140490303Y-88815010D01*
X140883629Y-88422370D01*
X140969949Y-88214488D01*
X141054990Y-88420303D01*
X141447630Y-88813629D01*
X141960900Y-89026757D01*
X142516661Y-89027242D01*
X143030303Y-88815010D01*
X143423629Y-88422370D01*
X143509949Y-88214488D01*
X143594990Y-88420303D01*
X143987630Y-88813629D01*
X144500900Y-89026757D01*
X145056661Y-89027242D01*
X145089055Y-89013857D01*
X147036599Y-90961401D01*
X147283161Y-91126148D01*
X147574000Y-91184000D01*
X164404198Y-91184000D01*
X173484000Y-100263802D01*
X173484000Y-102813198D01*
X165637401Y-94966599D01*
X165390839Y-94801852D01*
X165100000Y-94744000D01*
X162226648Y-94744000D01*
X162026415Y-94444330D01*
X161711634Y-94234000D01*
X162026415Y-94023670D01*
X162351271Y-93537489D01*
X162465345Y-92964000D01*
X162351271Y-92390511D01*
X162026415Y-91904330D01*
X161540234Y-91579474D01*
X160966745Y-91465400D01*
X160597255Y-91465400D01*
X160023766Y-91579474D01*
X159537585Y-91904330D01*
X159212729Y-92390511D01*
X159098655Y-92964000D01*
X159212729Y-93537489D01*
X159537585Y-94023670D01*
X159852366Y-94234000D01*
X159537585Y-94444330D01*
X159212729Y-94930511D01*
X159098655Y-95504000D01*
X159212729Y-96077489D01*
X159537585Y-96563670D01*
X159852366Y-96774000D01*
X159537585Y-96984330D01*
X159212729Y-97470511D01*
X159098655Y-98044000D01*
X159212729Y-98617489D01*
X159537585Y-99103670D01*
X159852366Y-99314000D01*
X159537585Y-99524330D01*
X159258800Y-99941560D01*
X159101599Y-100046599D01*
X157800198Y-101348000D01*
X148860590Y-101348000D01*
X148987885Y-101157489D01*
X149101959Y-100584000D01*
X148987885Y-100010511D01*
X148663029Y-99524330D01*
X148339772Y-99308336D01*
X148462490Y-99250821D01*
X148856688Y-98818947D01*
X149028958Y-98403026D01*
X148907817Y-98171000D01*
X147701000Y-98171000D01*
X147701000Y-98191000D01*
X147447000Y-98191000D01*
X147447000Y-98171000D01*
X147427000Y-98171000D01*
X147427000Y-97917000D01*
X147447000Y-97917000D01*
X147447000Y-97897000D01*
X147701000Y-97897000D01*
X147701000Y-97917000D01*
X148907817Y-97917000D01*
X149028958Y-97684974D01*
X148966426Y-97534000D01*
X149932537Y-97534000D01*
X149964673Y-97566192D01*
X150308201Y-97708838D01*
X150680167Y-97709162D01*
X151023943Y-97567117D01*
X151287192Y-97304327D01*
X151429838Y-96960799D01*
X151430162Y-96588833D01*
X151288117Y-96245057D01*
X151025327Y-95981808D01*
X150681799Y-95839162D01*
X150309833Y-95838838D01*
X149966057Y-95980883D01*
X149932882Y-96014000D01*
X149000514Y-96014000D01*
X149101959Y-95504000D01*
X148987885Y-94930511D01*
X148663029Y-94444330D01*
X148176848Y-94119474D01*
X147603359Y-94005400D01*
X147544641Y-94005400D01*
X146971152Y-94119474D01*
X146505558Y-94430574D01*
X146500762Y-94405083D01*
X146361690Y-94188959D01*
X146149490Y-94043969D01*
X145897600Y-93992960D01*
X144170400Y-93992960D01*
X143935083Y-94037238D01*
X143718959Y-94176310D01*
X143573969Y-94388510D01*
X143522960Y-94640400D01*
X143522960Y-96367600D01*
X143567238Y-96602917D01*
X143706310Y-96819041D01*
X143918510Y-96964031D01*
X143962131Y-96972864D01*
X143944971Y-96984330D01*
X143620115Y-97470511D01*
X143506041Y-98044000D01*
X143620115Y-98617489D01*
X143944971Y-99103670D01*
X144259752Y-99314000D01*
X143944971Y-99524330D01*
X143620115Y-100010511D01*
X143506041Y-100584000D01*
X143620115Y-101157489D01*
X143747410Y-101348000D01*
X130048000Y-101348000D01*
X129757160Y-101405852D01*
X129510599Y-101570599D01*
X128638320Y-102442878D01*
X128592833Y-102442838D01*
X128249057Y-102584883D01*
X127985808Y-102847673D01*
X127843162Y-103191201D01*
X127842838Y-103563167D01*
X120829357Y-103563167D01*
X120490732Y-101860786D01*
X121404136Y-89635221D01*
X123066092Y-81280000D01*
X125078968Y-81280000D01*
X125172977Y-81752614D01*
X125440691Y-82153277D01*
X125841354Y-82420991D01*
X126313968Y-82515000D01*
X127178032Y-82515000D01*
X127650646Y-82420991D01*
X128051309Y-82153277D01*
X128319023Y-81752614D01*
X128413032Y-81280000D01*
X132698968Y-81280000D01*
X132792977Y-81752614D01*
X133060691Y-82153277D01*
X133461354Y-82420991D01*
X133933968Y-82515000D01*
X134798032Y-82515000D01*
X135270646Y-82420991D01*
X135671309Y-82153277D01*
X135939023Y-81752614D01*
X136033032Y-81280000D01*
X135939023Y-80807386D01*
X135671309Y-80406723D01*
X135270646Y-80139009D01*
X134798032Y-80045000D01*
X133933968Y-80045000D01*
X133461354Y-80139009D01*
X133060691Y-80406723D01*
X132792977Y-80807386D01*
X132698968Y-81280000D01*
X128413032Y-81280000D01*
X128319023Y-80807386D01*
X128051309Y-80406723D01*
X127650646Y-80139009D01*
X127178032Y-80045000D01*
X126313968Y-80045000D01*
X125841354Y-80139009D01*
X125440691Y-80406723D01*
X125172977Y-80807386D01*
X125078968Y-81280000D01*
X123066092Y-81280000D01*
X123397676Y-79613019D01*
X125267684Y-76814354D01*
X125440691Y-77073277D01*
X125841354Y-77340991D01*
X126313968Y-77435000D01*
X127178032Y-77435000D01*
X127650646Y-77340991D01*
X128051309Y-77073277D01*
X128319023Y-76672614D01*
X128413032Y-76200000D01*
X132698968Y-76200000D01*
X132792977Y-76672614D01*
X133060691Y-77073277D01*
X133461354Y-77340991D01*
X133933968Y-77435000D01*
X134798032Y-77435000D01*
X135270646Y-77340991D01*
X135671309Y-77073277D01*
X135939023Y-76672614D01*
X136033032Y-76200000D01*
X135939023Y-75727386D01*
X135671309Y-75326723D01*
X135270646Y-75059009D01*
X134798032Y-74965000D01*
X133933968Y-74965000D01*
X133461354Y-75059009D01*
X133060691Y-75326723D01*
X132792977Y-75727386D01*
X132698968Y-76200000D01*
X128413032Y-76200000D01*
X128319023Y-75727386D01*
X128051309Y-75326723D01*
X127650646Y-75059009D01*
X127178032Y-74965000D01*
X126503383Y-74965000D01*
X132692940Y-65701674D01*
X133186533Y-64989329D01*
X150545646Y-53458823D01*
X155780375Y-52291076D01*
X167894000Y-49881526D01*
X184480010Y-53180688D01*
G36*
X193480852Y-95921839D02*
X193645599Y-96168401D01*
X194280599Y-96803401D01*
X194527161Y-96968148D01*
X194818000Y-97026000D01*
X195560738Y-97026000D01*
X195760971Y-97325670D01*
X196075752Y-97536000D01*
X195760971Y-97746330D01*
X195436115Y-98232511D01*
X195422691Y-98300000D01*
X193416426Y-98300000D01*
X193478958Y-98149026D01*
X193357817Y-97917000D01*
X192151000Y-97917000D01*
X192151000Y-97937000D01*
X191897000Y-97937000D01*
X191897000Y-97917000D01*
X191877000Y-97917000D01*
X191877000Y-97663000D01*
X191897000Y-97663000D01*
X191897000Y-97643000D01*
X192151000Y-97643000D01*
X192151000Y-97663000D01*
X193357817Y-97663000D01*
X193478958Y-97430974D01*
X193306688Y-97015053D01*
X192912490Y-96583179D01*
X192789772Y-96525664D01*
X193113029Y-96309670D01*
X193437885Y-95823489D01*
X193449587Y-95764660D01*
X193480852Y-95921839D01*
X193480852Y-95921839D01*
G37*
X193480852Y-95921839D02*
X193645599Y-96168401D01*
X194280599Y-96803401D01*
X194527161Y-96968148D01*
X194818000Y-97026000D01*
X195560738Y-97026000D01*
X195760971Y-97325670D01*
X196075752Y-97536000D01*
X195760971Y-97746330D01*
X195436115Y-98232511D01*
X195422691Y-98300000D01*
X193416426Y-98300000D01*
X193478958Y-98149026D01*
X193357817Y-97917000D01*
X192151000Y-97917000D01*
X192151000Y-97937000D01*
X191897000Y-97937000D01*
X191897000Y-97917000D01*
X191877000Y-97917000D01*
X191877000Y-97663000D01*
X191897000Y-97663000D01*
X191897000Y-97643000D01*
X192151000Y-97643000D01*
X192151000Y-97663000D01*
X193357817Y-97663000D01*
X193478958Y-97430974D01*
X193306688Y-97015053D01*
X192912490Y-96583179D01*
X192789772Y-96525664D01*
X193113029Y-96309670D01*
X193437885Y-95823489D01*
X193449587Y-95764660D01*
X193480852Y-95921839D01*
M02*
