M48
;DRILL file {KiCad 4.0.1-stable} date Tuesday, March 22, 2016 'PMt' 12:31:04 PM
;FORMAT={-:-/ absolute / inch / decimal}
FMAT,2
INCH,TZ
T1C0.016
T2C0.030
T3C0.031
T4C0.040
T5C0.125
%
G90
G05
M72
T1
X5.07Y-4.07
X5.125Y-4.08
X5.195Y-4.165
X5.2744Y-4.165
X5.59Y-2.57
X5.875Y-2.5
X5.925Y-3.81
X5.93Y-2.555
X5.94Y-3.325
X5.97Y-2.835
X6.065Y-2.525
X6.065Y-2.83
X6.075Y-5.2
X6.095Y-4.1
X6.115Y-2.565
X6.215Y-5.195
X6.275Y-5.3
X6.28Y-2.495
X6.4Y-5.375
X6.415Y-4.595
X6.45Y-5.675
X6.475Y-5.54
X6.505Y-2.665
X6.625Y-5.415
X6.65Y-5.625
X6.675Y-5.3
X6.7Y-5.45
X6.705Y-3.57
X6.715Y-5.54
X6.76Y-4.415
X6.845Y-5.61
X6.885Y-5.54
X6.93Y-2.995
X7.025Y-3.485
X7.11Y-2.8106
X7.11Y-2.89
X7.215Y-2.8894
X7.355Y-4.395
X7.41Y-2.825
X7.94Y-2.94
X7.955Y-4.11
X8.0167Y-2.86
X8.1Y-2.86
T2
X5.5Y-2.75
X5.5Y-3.45
X5.6Y-2.75
X5.6Y-3.45
X5.7Y-2.75
X5.7Y-3.45
X5.8Y-2.75
X5.8Y-3.45
X5.9Y-2.75
X5.9Y-3.45
X6.Y-2.75
X6.Y-3.45
X6.1Y-2.75
X6.1Y-3.45
X6.2Y-2.75
X6.2Y-3.45
X6.3Y-2.75
X6.3Y-3.45
X6.4Y-2.75
X6.4Y-3.45
X6.5Y-2.75
X6.5Y-3.45
X6.6Y-2.75
X6.6Y-2.95
X6.6Y-3.05
X6.6Y-3.15
X6.6Y-3.25
X6.6Y-3.45
X6.7Y-2.75
X6.7Y-2.95
X6.7Y-3.05
X6.7Y-3.15
X6.7Y-3.25
X6.7Y-3.45
X7.05Y-3.05
X7.05Y-3.15
X7.05Y-3.25
X7.15Y-3.05
X7.15Y-3.15
X7.15Y-3.25
X7.85Y-2.95
X7.85Y-3.05
X7.85Y-3.15
X7.85Y-3.25
T3
X4.99Y-3.
X4.99Y-3.2
X5.29Y-3.
X5.29Y-3.2
X6.712Y-4.249
X6.712Y-4.549
X6.812Y-4.249
X6.812Y-4.549
X6.912Y-4.249
X6.912Y-4.549
X7.012Y-4.249
X7.012Y-4.549
X7.112Y-4.249
X7.112Y-4.549
X7.212Y-4.249
X7.212Y-4.549
X7.312Y-4.249
X7.312Y-4.549
T4
X5.71Y-3.76
X5.71Y-3.86
X5.71Y-3.96
X5.81Y-3.76
X5.81Y-3.86
X5.81Y-3.96
X5.945Y-2.185
X5.945Y-2.285
X6.045Y-2.185
X6.045Y-2.285
X6.1Y-4.71
X6.145Y-2.185
X6.145Y-2.285
X6.2Y-4.71
X6.245Y-2.185
X6.245Y-2.285
X6.3Y-4.71
X6.33Y-3.66
X6.33Y-3.76
X6.33Y-3.86
X6.33Y-3.96
X6.33Y-4.06
X6.345Y-2.185
X6.345Y-2.285
X6.4Y-4.71
X6.445Y-2.185
X6.445Y-2.285
X6.5Y-4.71
X6.545Y-2.185
X6.545Y-2.285
X6.6Y-4.71
X6.645Y-2.185
X6.645Y-2.285
X6.7Y-4.71
X6.745Y-2.185
X6.745Y-2.285
X6.8Y-4.71
X6.845Y-2.185
X6.845Y-2.285
X6.9Y-4.71
X6.945Y-2.185
X6.945Y-2.285
X7.Y-4.71
X7.045Y-2.185
X7.045Y-2.285
X7.1Y-4.71
X7.145Y-2.185
X7.145Y-2.285
X7.2Y-4.71
X7.26Y-2.47
X7.3Y-4.71
X7.36Y-2.47
X7.4Y-4.71
X7.46Y-2.47
X7.46Y-3.75
X7.46Y-3.85
X7.46Y-3.95
X7.5Y-4.71
X7.56Y-3.75
X7.56Y-3.85
X7.56Y-3.95
X7.59Y-3.25
X7.6Y-4.71
X7.69Y-3.25
X7.73Y-2.81
X7.75Y-3.69
X7.75Y-3.79
X7.75Y-3.89
X7.75Y-3.99
X7.83Y-2.81
X7.85Y-3.69
X7.85Y-3.79
X7.85Y-3.89
X7.85Y-3.99
T5
X5.455Y-2.62
X5.455Y-4.925
X7.76Y-2.62
X7.76Y-4.92
T0
M30
