G04 #@! TF.FileFunction,Copper,L1,Top,Signal*
%FSLAX46Y46*%
G04 Gerber Fmt 4.6, Leading zero omitted, Abs format (unit mm)*
G04 Created by KiCad (PCBNEW 4.0.1-stable) date Tuesday, March 22, 2016 'PMt' 12:33:31 PM*
%MOMM*%
G01*
G04 APERTURE LIST*
%ADD10C,0.100000*%
%ADD11C,4.064000*%
%ADD12C,1.524000*%
%ADD13R,2.032000X2.032000*%
%ADD14O,2.032000X2.032000*%
%ADD15R,1.000000X1.250000*%
%ADD16R,1.250000X1.000000*%
%ADD17R,1.300000X0.700000*%
%ADD18R,0.700000X1.300000*%
%ADD19R,1.727200X1.727200*%
%ADD20O,1.727200X1.727200*%
%ADD21R,2.032000X1.727200*%
%ADD22O,2.032000X1.727200*%
%ADD23R,0.650000X1.060000*%
%ADD24R,0.400000X1.100000*%
%ADD25R,1.060000X0.650000*%
%ADD26R,1.727200X2.032000*%
%ADD27O,1.727200X2.032000*%
%ADD28O,1.200000X2.000000*%
%ADD29R,0.510000X2.000000*%
%ADD30R,1.000000X1.200000*%
%ADD31O,2.000000X1.200000*%
%ADD32C,0.600000*%
%ADD33C,0.250000*%
%ADD34C,0.254000*%
G04 APERTURE END LIST*
D10*
D11*
X138557000Y-66548000D03*
X197104000Y-124968000D03*
X138557000Y-125095000D03*
D12*
X199390000Y-74930000D03*
X199390000Y-77470000D03*
X199390000Y-80010000D03*
X199390000Y-82550000D03*
X181610000Y-82550000D03*
X181610000Y-80010000D03*
X181610000Y-77470000D03*
X179070000Y-77470000D03*
X179070000Y-80010000D03*
X179070000Y-82550000D03*
D13*
X196342000Y-71374000D03*
D14*
X198882000Y-71374000D03*
D15*
X153400000Y-134620000D03*
X151400000Y-134620000D03*
D16*
X161290000Y-136890000D03*
X161290000Y-134890000D03*
D15*
X155845000Y-132080000D03*
X157845000Y-132080000D03*
X164735000Y-132080000D03*
X166735000Y-132080000D03*
D16*
X185674000Y-70374000D03*
X185674000Y-72374000D03*
D17*
X164465000Y-134940000D03*
X164465000Y-136840000D03*
D18*
X153350000Y-131445000D03*
X151450000Y-131445000D03*
X153350000Y-137160000D03*
X151450000Y-137160000D03*
D17*
X164465000Y-140650000D03*
X164465000Y-138750000D03*
X161290000Y-138750000D03*
X161290000Y-140650000D03*
D18*
X162240000Y-132080000D03*
X160340000Y-132080000D03*
D19*
X199390000Y-101346000D03*
D20*
X196850000Y-101346000D03*
X199390000Y-98806000D03*
X196850000Y-98806000D03*
X199390000Y-96266000D03*
X196850000Y-96266000D03*
X199390000Y-93726000D03*
X196850000Y-93726000D03*
D21*
X160782000Y-103124000D03*
D22*
X160782000Y-100584000D03*
X160782000Y-98044000D03*
X160782000Y-95504000D03*
X160782000Y-92964000D03*
D23*
X155895000Y-136990000D03*
X156845000Y-136990000D03*
X157795000Y-136990000D03*
X157795000Y-134790000D03*
X155895000Y-134790000D03*
D24*
X167300000Y-140580000D03*
X167950000Y-140580000D03*
X168600000Y-140580000D03*
X169250000Y-140580000D03*
X169250000Y-136280000D03*
X168600000Y-136280000D03*
X167950000Y-136280000D03*
X167300000Y-136280000D03*
D25*
X203624000Y-71694000D03*
X203624000Y-72644000D03*
X203624000Y-73594000D03*
X205824000Y-73594000D03*
X205824000Y-71694000D03*
X180510000Y-70424000D03*
X180510000Y-71374000D03*
X180510000Y-72324000D03*
X182710000Y-72324000D03*
X182710000Y-70424000D03*
D26*
X193040000Y-119634000D03*
D27*
X190500000Y-119634000D03*
X187960000Y-119634000D03*
X185420000Y-119634000D03*
X182880000Y-119634000D03*
X180340000Y-119634000D03*
X177800000Y-119634000D03*
X175260000Y-119634000D03*
X172720000Y-119634000D03*
X170180000Y-119634000D03*
X167640000Y-119634000D03*
X165100000Y-119634000D03*
X162560000Y-119634000D03*
X160020000Y-119634000D03*
X157480000Y-119634000D03*
X154940000Y-119634000D03*
D19*
X145034000Y-95504000D03*
D20*
X147574000Y-95504000D03*
X145034000Y-98044000D03*
X147574000Y-98044000D03*
X145034000Y-100584000D03*
X147574000Y-100584000D03*
D19*
X189484000Y-95250000D03*
D20*
X192024000Y-95250000D03*
X189484000Y-97790000D03*
X192024000Y-97790000D03*
X189484000Y-100330000D03*
X192024000Y-100330000D03*
D26*
X189484000Y-62738000D03*
D27*
X186944000Y-62738000D03*
X184404000Y-62738000D03*
D12*
X139700000Y-69850000D03*
X139700000Y-87630000D03*
X142240000Y-69850000D03*
X142240000Y-87630000D03*
X144780000Y-69850000D03*
X144780000Y-87630000D03*
X147320000Y-69850000D03*
X147320000Y-87630000D03*
X149860000Y-69850000D03*
X149860000Y-87630000D03*
X152400000Y-69850000D03*
X152400000Y-87630000D03*
X154940000Y-69850000D03*
X154940000Y-87630000D03*
X157480000Y-69850000D03*
X157480000Y-87630000D03*
X160020000Y-69850000D03*
X160020000Y-87630000D03*
X162560000Y-69850000D03*
X162560000Y-87630000D03*
X165100000Y-69850000D03*
X165100000Y-87630000D03*
X167640000Y-69850000D03*
X167640000Y-87630000D03*
X170180000Y-69850000D03*
X170180000Y-87630000D03*
X170180000Y-74930000D03*
X170180000Y-77470000D03*
X170180000Y-80010000D03*
X170180000Y-82550000D03*
X167640000Y-82550000D03*
X167640000Y-80010000D03*
X167640000Y-77470000D03*
X167640000Y-74930000D03*
D13*
X195326000Y-82550000D03*
D14*
X192786000Y-82550000D03*
D28*
X170484800Y-107924600D03*
X170484800Y-115544600D03*
X173024800Y-107924600D03*
X173024800Y-115544600D03*
X175564800Y-107924600D03*
X175564800Y-115544600D03*
X178104800Y-107924600D03*
X178104800Y-115544600D03*
X180644800Y-107924600D03*
X180644800Y-115544600D03*
X183184800Y-107924600D03*
X183184800Y-115544600D03*
X185724800Y-107924600D03*
X185724800Y-115544600D03*
D29*
X144145000Y-113735000D03*
X144145000Y-103435000D03*
X142875000Y-113735000D03*
X142875000Y-103435000D03*
X141605000Y-113735000D03*
X141605000Y-103435000D03*
X140335000Y-113735000D03*
X140335000Y-103435000D03*
X139065000Y-113735000D03*
X139065000Y-103435000D03*
X137795000Y-113735000D03*
X137795000Y-103435000D03*
X136525000Y-113735000D03*
X136525000Y-103435000D03*
X135255000Y-113735000D03*
X135255000Y-103435000D03*
X133985000Y-113735000D03*
X133985000Y-103435000D03*
X132715000Y-113735000D03*
X132715000Y-103435000D03*
X131445000Y-113735000D03*
X131445000Y-103435000D03*
X130175000Y-113735000D03*
X130175000Y-103435000D03*
X128905000Y-113735000D03*
X128905000Y-103435000D03*
X127635000Y-113735000D03*
X127635000Y-103435000D03*
D30*
X166575000Y-144780000D03*
X169975000Y-144780000D03*
D19*
X151003000Y-55499000D03*
D20*
X151003000Y-58039000D03*
X153543000Y-55499000D03*
X153543000Y-58039000D03*
X156083000Y-55499000D03*
X156083000Y-58039000D03*
X158623000Y-55499000D03*
X158623000Y-58039000D03*
X161163000Y-55499000D03*
X161163000Y-58039000D03*
X163703000Y-55499000D03*
X163703000Y-58039000D03*
X166243000Y-55499000D03*
X166243000Y-58039000D03*
X168783000Y-55499000D03*
X168783000Y-58039000D03*
X171323000Y-55499000D03*
X171323000Y-58039000D03*
X173863000Y-55499000D03*
X173863000Y-58039000D03*
X176403000Y-55499000D03*
X176403000Y-58039000D03*
X178943000Y-55499000D03*
X178943000Y-58039000D03*
X181483000Y-55499000D03*
X181483000Y-58039000D03*
D31*
X134366000Y-76200000D03*
X126746000Y-76200000D03*
X134366000Y-81280000D03*
X126746000Y-81280000D03*
D11*
X197104000Y-66548000D03*
D32*
X186817000Y-111633000D03*
X180594000Y-73406000D03*
X201676000Y-74676000D03*
X157861000Y-131953000D03*
X170561000Y-140716000D03*
X150495000Y-96774000D03*
X188214000Y-71755000D03*
X131953000Y-105791000D03*
X180594000Y-71390000D03*
X203624000Y-72644000D03*
X170180000Y-138430000D03*
X163830000Y-144145000D03*
X162560000Y-136525000D03*
X169545000Y-134620000D03*
X168910000Y-142875000D03*
X159385000Y-134620000D03*
X168275000Y-137541000D03*
X133969000Y-105791000D03*
X183261000Y-73390000D03*
X154305000Y-132080000D03*
X173863000Y-142494000D03*
X171704000Y-112141000D03*
X154813000Y-104140000D03*
X150876000Y-84455000D03*
X202057000Y-104394000D03*
X164465000Y-140716000D03*
X174879000Y-140716000D03*
X128778000Y-103378000D03*
X130175000Y-103632000D03*
X149225000Y-63500000D03*
X155321000Y-65151000D03*
X151638000Y-72009000D03*
X170307000Y-90678000D03*
X159512000Y-63373000D03*
X154051000Y-71882000D03*
X165227000Y-67691000D03*
X176022000Y-76073000D03*
X178435000Y-88519000D03*
X162941000Y-116713000D03*
X205740000Y-72644000D03*
X141986000Y-65278000D03*
X150622000Y-64897000D03*
X154051000Y-64135000D03*
D33*
X176530000Y-111633000D02*
X173024800Y-108127800D01*
X186817000Y-111633000D02*
X176530000Y-111633000D01*
X173024800Y-108127800D02*
X173024800Y-107924600D01*
X180510000Y-72324000D02*
X180510000Y-73322000D01*
X180510000Y-73322000D02*
X180594000Y-73406000D01*
X203624000Y-73594000D02*
X201996000Y-73594000D01*
X201676000Y-73914000D02*
X201676000Y-74676000D01*
X201996000Y-73594000D02*
X201676000Y-73914000D01*
X186944000Y-62738000D02*
X186690000Y-62738000D01*
X186690000Y-62738000D02*
X180510000Y-68918000D01*
X180510000Y-68918000D02*
X180510000Y-70424000D01*
X180510000Y-70424000D02*
X181422000Y-70424000D01*
X181422000Y-72324000D02*
X180510000Y-72324000D01*
X181610000Y-72136000D02*
X181422000Y-72324000D01*
X181610000Y-70612000D02*
X181610000Y-72136000D01*
X181422000Y-70424000D02*
X181610000Y-70612000D01*
X203624000Y-73594000D02*
X203624000Y-75522000D01*
X184386000Y-76200000D02*
X180576000Y-72390000D01*
X202946000Y-76200000D02*
X184386000Y-76200000D01*
X203624000Y-75522000D02*
X202946000Y-76200000D01*
X157845000Y-131969000D02*
X157845000Y-132080000D01*
X157861000Y-131953000D02*
X157845000Y-131969000D01*
X170425000Y-140580000D02*
X169250000Y-140580000D01*
X170561000Y-140716000D02*
X170425000Y-140580000D01*
X151450000Y-137160000D02*
X151450000Y-138115000D01*
X156845000Y-138430000D02*
X156845000Y-136990000D01*
X156591000Y-138684000D02*
X156845000Y-138430000D01*
X152019000Y-138684000D02*
X156591000Y-138684000D01*
X151450000Y-138115000D02*
X152019000Y-138684000D01*
X150495000Y-96774000D02*
X151765000Y-98044000D01*
X151765000Y-98044000D02*
X160782000Y-98044000D01*
X188214000Y-71755000D02*
X188214000Y-71882000D01*
X132715000Y-103435000D02*
X132715000Y-105029000D01*
X132715000Y-105029000D02*
X131953000Y-105791000D01*
X180594000Y-71390000D02*
X180578000Y-71374000D01*
X180578000Y-71374000D02*
X180510000Y-71374000D01*
X155725000Y-137160000D02*
X155895000Y-136990000D01*
X153350000Y-137160000D02*
X155725000Y-137160000D01*
X153400000Y-134620000D02*
X153400000Y-137110000D01*
X153400000Y-137110000D02*
X153350000Y-137160000D01*
X151450000Y-131445000D02*
X151450000Y-132400000D01*
X151450000Y-132400000D02*
X153400000Y-134350000D01*
X153400000Y-134350000D02*
X153400000Y-134620000D01*
X162195000Y-136890000D02*
X162560000Y-136525000D01*
X161290000Y-136890000D02*
X162195000Y-136890000D01*
X169250000Y-134915000D02*
X169545000Y-134620000D01*
X169250000Y-134915000D02*
X169250000Y-136280000D01*
X161290000Y-138750000D02*
X161290000Y-136890000D01*
X168600000Y-140580000D02*
X168600000Y-142565000D01*
X168600000Y-142565000D02*
X168910000Y-142875000D01*
X160340000Y-132080000D02*
X160020000Y-132080000D01*
X160020000Y-132080000D02*
X159385000Y-132715000D01*
X159385000Y-132715000D02*
X159385000Y-134620000D01*
X161290000Y-134890000D02*
X159655000Y-134890000D01*
X159655000Y-134890000D02*
X159385000Y-134620000D01*
X157795000Y-134790000D02*
X159215000Y-134790000D01*
X159215000Y-134790000D02*
X159385000Y-134620000D01*
X161190000Y-134790000D02*
X161290000Y-134890000D01*
X157795000Y-134790000D02*
X157795000Y-136990000D01*
X167300000Y-136280000D02*
X167300000Y-137119000D01*
X167722000Y-137541000D02*
X168275000Y-137541000D01*
X167300000Y-137119000D02*
X167722000Y-137541000D01*
X192024000Y-97790000D02*
X192786000Y-97790000D01*
X192786000Y-97790000D02*
X196850000Y-93726000D01*
X133969000Y-105791000D02*
X133985000Y-105791000D01*
X131445000Y-113735000D02*
X131445000Y-110363000D01*
X133985000Y-107823000D02*
X133985000Y-105791000D01*
X133985000Y-105791000D02*
X133985000Y-103435000D01*
X131445000Y-110363000D02*
X133985000Y-107823000D01*
X127635000Y-113735000D02*
X128905000Y-113735000D01*
X128905000Y-113735000D02*
X130175000Y-113735000D01*
X130175000Y-113735000D02*
X131445000Y-113735000D01*
X182710000Y-72324000D02*
X182710000Y-72839000D01*
X182710000Y-72839000D02*
X183261000Y-73390000D01*
X182710000Y-72324000D02*
X185624000Y-72324000D01*
X185624000Y-72324000D02*
X185674000Y-72374000D01*
X153670000Y-131445000D02*
X154305000Y-132080000D01*
X154305000Y-132080000D02*
X155845000Y-132080000D01*
X155895000Y-134790000D02*
X155895000Y-132130000D01*
X155895000Y-132130000D02*
X155845000Y-132080000D01*
X153350000Y-131445000D02*
X153670000Y-131445000D01*
X164735000Y-132080000D02*
X164735000Y-134670000D01*
X164735000Y-134670000D02*
X164465000Y-134940000D01*
X167950000Y-136280000D02*
X167950000Y-135565000D01*
X167325000Y-134940000D02*
X164465000Y-134940000D01*
X167950000Y-135565000D02*
X167325000Y-134940000D01*
X182710000Y-70424000D02*
X185624000Y-70424000D01*
X185624000Y-70424000D02*
X185674000Y-70374000D01*
X181737000Y-138938000D02*
X181991000Y-138938000D01*
X181737000Y-138938000D02*
X174625000Y-138938000D01*
X173863000Y-139700000D02*
X173863000Y-142494000D01*
X174625000Y-138938000D02*
X173863000Y-139700000D01*
X196977000Y-120650000D02*
X196977000Y-120015000D01*
X185547000Y-132080000D02*
X196977000Y-120650000D01*
X185547000Y-135382000D02*
X185547000Y-132080000D01*
X181991000Y-138938000D02*
X185547000Y-135382000D01*
X171704000Y-112141000D02*
X172720000Y-113157000D01*
X172720000Y-113157000D02*
X196215000Y-113157000D01*
X196215000Y-113157000D02*
X196977000Y-113919000D01*
X196977000Y-113919000D02*
X196977000Y-120015000D01*
X149733000Y-99060000D02*
X154813000Y-104140000D01*
X149733000Y-95123000D02*
X149733000Y-99060000D01*
X151130000Y-93726000D02*
X149733000Y-95123000D01*
X151130000Y-84709000D02*
X151130000Y-93726000D01*
X150876000Y-84455000D02*
X151130000Y-84709000D01*
X191135000Y-131191000D02*
X200914000Y-131191000D01*
X200914000Y-131191000D02*
X202057000Y-130048000D01*
X202057000Y-104394000D02*
X202057000Y-107569000D01*
X202057000Y-107569000D02*
X202057000Y-130048000D01*
X174879000Y-140716000D02*
X181610000Y-140716000D01*
X164465000Y-140650000D02*
X164465000Y-140716000D01*
X181610000Y-140716000D02*
X191135000Y-131191000D01*
X161290000Y-140650000D02*
X164465000Y-140650000D01*
X164465000Y-140650000D02*
X167230000Y-140650000D01*
X167230000Y-140650000D02*
X167300000Y-140580000D01*
X128778000Y-103378000D02*
X128835000Y-103435000D01*
X128835000Y-103435000D02*
X128905000Y-103435000D01*
X128905000Y-103435000D02*
X128905000Y-80899000D01*
X142240000Y-74676000D02*
X142240000Y-69850000D01*
X138430000Y-78486000D02*
X142240000Y-74676000D01*
X131318000Y-78486000D02*
X138430000Y-78486000D01*
X128905000Y-80899000D02*
X131318000Y-78486000D01*
X181610000Y-77470000D02*
X181610000Y-77597000D01*
X181610000Y-77597000D02*
X180467000Y-78740000D01*
X180467000Y-78740000D02*
X171450000Y-78740000D01*
X171450000Y-78740000D02*
X170180000Y-77470000D01*
X130175000Y-103632000D02*
X130175000Y-103435000D01*
X130175000Y-103435000D02*
X130175000Y-81661000D01*
X144780000Y-75057000D02*
X144780000Y-69850000D01*
X140335000Y-79502000D02*
X144780000Y-75057000D01*
X132334000Y-79502000D02*
X140335000Y-79502000D01*
X130175000Y-81661000D02*
X132334000Y-79502000D01*
X154813000Y-56769000D02*
X156083000Y-55499000D01*
X154813000Y-59055000D02*
X154813000Y-56769000D01*
X154432000Y-59436000D02*
X154813000Y-59055000D01*
X153289000Y-59436000D02*
X154432000Y-59436000D01*
X149225000Y-63500000D02*
X153289000Y-59436000D01*
X145034000Y-98044000D02*
X145796000Y-98044000D01*
X145796000Y-98044000D02*
X146304000Y-97536000D01*
X146304000Y-97536000D02*
X146304000Y-89535000D01*
X146304000Y-89535000D02*
X146050000Y-89281000D01*
X146050000Y-89281000D02*
X146050000Y-74803000D01*
X146050000Y-74803000D02*
X147320000Y-73533000D01*
X147320000Y-73533000D02*
X147320000Y-69850000D01*
X181610000Y-80010000D02*
X181610000Y-80391000D01*
X181610000Y-80391000D02*
X180721000Y-81280000D01*
X180721000Y-81280000D02*
X171450000Y-81280000D01*
X171450000Y-81280000D02*
X170180000Y-80010000D01*
X147574000Y-95504000D02*
X147574000Y-91313000D01*
X149860000Y-73533000D02*
X149860000Y-69850000D01*
X148590000Y-74803000D02*
X149860000Y-73533000D01*
X148590000Y-90297000D02*
X148590000Y-74803000D01*
X147574000Y-91313000D02*
X148590000Y-90297000D01*
X152400000Y-87630000D02*
X152400000Y-72771000D01*
X162433000Y-56769000D02*
X163703000Y-55499000D01*
X162433000Y-58547000D02*
X162433000Y-56769000D01*
X161671000Y-59309000D02*
X162433000Y-58547000D01*
X161163000Y-59309000D02*
X161671000Y-59309000D01*
X155321000Y-65151000D02*
X161163000Y-59309000D01*
X152400000Y-72771000D02*
X151638000Y-72009000D01*
X154813000Y-90043000D02*
X152400000Y-87630000D01*
X169672000Y-90043000D02*
X154813000Y-90043000D01*
X170307000Y-90678000D02*
X169672000Y-90043000D01*
X154940000Y-87630000D02*
X154940000Y-72771000D01*
X164973000Y-56769000D02*
X166243000Y-55499000D01*
X164973000Y-58928000D02*
X164973000Y-56769000D01*
X164592000Y-59309000D02*
X164973000Y-58928000D01*
X163576000Y-59309000D02*
X164592000Y-59309000D01*
X159512000Y-63373000D02*
X163576000Y-59309000D01*
X154940000Y-72771000D02*
X154051000Y-71882000D01*
X157480000Y-87630000D02*
X157480000Y-73406000D01*
X167513000Y-56769000D02*
X168783000Y-55499000D01*
X167513000Y-58928000D02*
X167513000Y-56769000D01*
X167132000Y-59309000D02*
X167513000Y-58928000D01*
X166243000Y-59309000D02*
X167132000Y-59309000D01*
X156210000Y-69342000D02*
X166243000Y-59309000D01*
X156210000Y-72136000D02*
X156210000Y-69342000D01*
X157480000Y-73406000D02*
X156210000Y-72136000D01*
X162560000Y-87630000D02*
X162560000Y-73406000D01*
X172593000Y-56769000D02*
X173863000Y-55499000D01*
X172593000Y-59309000D02*
X172593000Y-56769000D01*
X163576000Y-68326000D02*
X172593000Y-59309000D01*
X161925000Y-68326000D02*
X163576000Y-68326000D01*
X161290000Y-68961000D02*
X161925000Y-68326000D01*
X161290000Y-72136000D02*
X161290000Y-68961000D01*
X162560000Y-73406000D02*
X161290000Y-72136000D01*
X192024000Y-95250000D02*
X192024000Y-93345000D01*
X164465000Y-85725000D02*
X162560000Y-87630000D01*
X171069000Y-85725000D02*
X164465000Y-85725000D01*
X172593000Y-87249000D02*
X171069000Y-85725000D01*
X172593000Y-89408000D02*
X172593000Y-87249000D01*
X175895000Y-92710000D02*
X172593000Y-89408000D01*
X191389000Y-92710000D02*
X175895000Y-92710000D01*
X192024000Y-93345000D02*
X191389000Y-92710000D01*
X175133000Y-56769000D02*
X176403000Y-55499000D01*
X175133000Y-58928000D02*
X175133000Y-56769000D01*
X174752000Y-59309000D02*
X175133000Y-58928000D01*
X173609000Y-59309000D02*
X174752000Y-59309000D01*
X165227000Y-67691000D02*
X173609000Y-59309000D01*
X189484000Y-97790000D02*
X178943000Y-97790000D01*
X166751000Y-89281000D02*
X165100000Y-87630000D01*
X170434000Y-89281000D02*
X166751000Y-89281000D01*
X178943000Y-97790000D02*
X170434000Y-89281000D01*
X170180000Y-74930000D02*
X182245000Y-74930000D01*
X202057000Y-98679000D02*
X199390000Y-101346000D01*
X202057000Y-91948000D02*
X202057000Y-98679000D01*
X199390000Y-89281000D02*
X202057000Y-91948000D01*
X193421000Y-89281000D02*
X199390000Y-89281000D01*
X189230000Y-85090000D02*
X193421000Y-89281000D01*
X189230000Y-81915000D02*
X189230000Y-85090000D01*
X182245000Y-74930000D02*
X189230000Y-81915000D01*
X167640000Y-74930000D02*
X166116000Y-74930000D01*
X198120000Y-94996000D02*
X199390000Y-96266000D01*
X198120000Y-91948000D02*
X198120000Y-94996000D01*
X196342000Y-90170000D02*
X198120000Y-91948000D01*
X178181000Y-90170000D02*
X196342000Y-90170000D01*
X172847000Y-84836000D02*
X178181000Y-90170000D01*
X165989000Y-84836000D02*
X172847000Y-84836000D01*
X164338000Y-83185000D02*
X165989000Y-84836000D01*
X164338000Y-76708000D02*
X164338000Y-83185000D01*
X166116000Y-74930000D02*
X164338000Y-76708000D01*
X176403000Y-75692000D02*
X176022000Y-76073000D01*
X181864000Y-75692000D02*
X176403000Y-75692000D01*
X184023000Y-77851000D02*
X181864000Y-75692000D01*
X184023000Y-85725000D02*
X184023000Y-77851000D01*
X183388000Y-86360000D02*
X184023000Y-85725000D01*
X180594000Y-86360000D02*
X183388000Y-86360000D01*
X178435000Y-88519000D02*
X180594000Y-86360000D01*
X144145000Y-103435000D02*
X145345000Y-103435000D01*
X158623000Y-116713000D02*
X162941000Y-116713000D01*
X145345000Y-103435000D02*
X158623000Y-116713000D01*
X142875000Y-103435000D02*
X142875000Y-105283000D01*
X183515000Y-117729000D02*
X185420000Y-119634000D01*
X158115000Y-117729000D02*
X183515000Y-117729000D01*
X147066000Y-106680000D02*
X158115000Y-117729000D01*
X144272000Y-106680000D02*
X147066000Y-106680000D01*
X142875000Y-105283000D02*
X144272000Y-106680000D01*
X157480000Y-119634000D02*
X157480000Y-117983000D01*
X141605000Y-105664000D02*
X141605000Y-103435000D01*
X143256000Y-107315000D02*
X141605000Y-105664000D01*
X146812000Y-107315000D02*
X143256000Y-107315000D01*
X157480000Y-117983000D02*
X146812000Y-107315000D01*
X135255000Y-113735000D02*
X135255000Y-116332000D01*
X169545000Y-127889000D02*
X177800000Y-119634000D01*
X146812000Y-127889000D02*
X169545000Y-127889000D01*
X135255000Y-116332000D02*
X146812000Y-127889000D01*
X136525000Y-113735000D02*
X136525000Y-116332000D01*
X167894000Y-127000000D02*
X175260000Y-119634000D01*
X147193000Y-127000000D02*
X167894000Y-127000000D01*
X136525000Y-116332000D02*
X147193000Y-127000000D01*
X137795000Y-113735000D02*
X137795000Y-116332000D01*
X166116000Y-126238000D02*
X172720000Y-119634000D01*
X147701000Y-126238000D02*
X166116000Y-126238000D01*
X137795000Y-116332000D02*
X147701000Y-126238000D01*
X139065000Y-113735000D02*
X139065000Y-116205000D01*
X164465000Y-125349000D02*
X170180000Y-119634000D01*
X148209000Y-125349000D02*
X164465000Y-125349000D01*
X139065000Y-116205000D02*
X148209000Y-125349000D01*
X140335000Y-113735000D02*
X140335000Y-116205000D01*
X162687000Y-124587000D02*
X167640000Y-119634000D01*
X148717000Y-124587000D02*
X162687000Y-124587000D01*
X140335000Y-116205000D02*
X148717000Y-124587000D01*
X141605000Y-113735000D02*
X141605000Y-116205000D01*
X160909000Y-123825000D02*
X165100000Y-119634000D01*
X149225000Y-123825000D02*
X160909000Y-123825000D01*
X141605000Y-116205000D02*
X149225000Y-123825000D01*
X142875000Y-113735000D02*
X142875000Y-116078000D01*
X159258000Y-122936000D02*
X162560000Y-119634000D01*
X149733000Y-122936000D02*
X159258000Y-122936000D01*
X142875000Y-116078000D02*
X149733000Y-122936000D01*
X144145000Y-113735000D02*
X144145000Y-116205000D01*
X157480000Y-122174000D02*
X160020000Y-119634000D01*
X150114000Y-122174000D02*
X157480000Y-122174000D01*
X144145000Y-116205000D02*
X150114000Y-122174000D01*
X145034000Y-100584000D02*
X145034000Y-100965000D01*
X145034000Y-100965000D02*
X149733000Y-105664000D01*
X149733000Y-105664000D02*
X173304200Y-105664000D01*
X173304200Y-105664000D02*
X175564800Y-107924600D01*
X175209200Y-105029000D02*
X178104800Y-107924600D01*
X152146000Y-105029000D02*
X175209200Y-105029000D01*
X147701000Y-100584000D02*
X152146000Y-105029000D01*
X147574000Y-100584000D02*
X147701000Y-100584000D01*
X180644800Y-107924600D02*
X180644800Y-106502200D01*
X186817000Y-100330000D02*
X189484000Y-100330000D01*
X180644800Y-106502200D02*
X186817000Y-100330000D01*
X183184800Y-107924600D02*
X183184800Y-106883200D01*
X189865000Y-102489000D02*
X192024000Y-100330000D01*
X187579000Y-102489000D02*
X189865000Y-102489000D01*
X183184800Y-106883200D02*
X187579000Y-102489000D01*
X193167000Y-62738000D02*
X193675000Y-62738000D01*
X194056000Y-69088000D02*
X196342000Y-71374000D01*
X194056000Y-63119000D02*
X194056000Y-69088000D01*
X193675000Y-62738000D02*
X194056000Y-63119000D01*
X189484000Y-62738000D02*
X193167000Y-62738000D01*
X193167000Y-62738000D02*
X193294000Y-62738000D01*
X205824000Y-73594000D02*
X205824000Y-72728000D01*
X205824000Y-72728000D02*
X205740000Y-72644000D01*
X205824000Y-71694000D02*
X205824000Y-72560000D01*
X205824000Y-72560000D02*
X205740000Y-72644000D01*
X199390000Y-74930000D02*
X199390000Y-74422000D01*
X199390000Y-74422000D02*
X202118000Y-71694000D01*
X202118000Y-71694000D02*
X203624000Y-71694000D01*
X164465000Y-138750000D02*
X164465000Y-136840000D01*
X167950000Y-140580000D02*
X167950000Y-139375000D01*
X167325000Y-138750000D02*
X164465000Y-138750000D01*
X167950000Y-139375000D02*
X167325000Y-138750000D01*
X166575000Y-144780000D02*
X166575000Y-143305000D01*
X167950000Y-141930000D02*
X167950000Y-140580000D01*
X166575000Y-143305000D02*
X167950000Y-141930000D01*
X138811000Y-71755000D02*
X136271000Y-74295000D01*
X140335000Y-71755000D02*
X138811000Y-71755000D01*
X140970000Y-71120000D02*
X140335000Y-71755000D01*
X140970000Y-67945000D02*
X140970000Y-71120000D01*
X141859000Y-67056000D02*
X140970000Y-67945000D01*
X126746000Y-76200000D02*
X134366000Y-76200000D01*
X134366000Y-76200000D02*
X136271000Y-74295000D01*
X181610000Y-82550000D02*
X181610000Y-83312000D01*
X181610000Y-83312000D02*
X180975000Y-83947000D01*
X180975000Y-83947000D02*
X171577000Y-83947000D01*
X171577000Y-83947000D02*
X170180000Y-82550000D01*
X195326000Y-82550000D02*
X199390000Y-82550000D01*
X168600000Y-136280000D02*
X168600000Y-133945000D01*
X168600000Y-133945000D02*
X166735000Y-132080000D01*
X166735000Y-132080000D02*
X166735000Y-131175000D01*
X162240000Y-131130000D02*
X162240000Y-132080000D01*
X163195000Y-130175000D02*
X162240000Y-131130000D01*
X165735000Y-130175000D02*
X163195000Y-130175000D01*
X166735000Y-131175000D02*
X165735000Y-130175000D01*
X152273000Y-56769000D02*
X153543000Y-55499000D01*
X152273000Y-59309000D02*
X152273000Y-56769000D01*
X149225000Y-62357000D02*
X152273000Y-59309000D01*
X144907000Y-62357000D02*
X149225000Y-62357000D01*
X141986000Y-65278000D02*
X144907000Y-62357000D01*
X157353000Y-56769000D02*
X158623000Y-55499000D01*
X157353000Y-58928000D02*
X157353000Y-56769000D01*
X156972000Y-59309000D02*
X157353000Y-58928000D01*
X156210000Y-59309000D02*
X156972000Y-59309000D01*
X150622000Y-64897000D02*
X156210000Y-59309000D01*
X159893000Y-56769000D02*
X161163000Y-55499000D01*
X159893000Y-58547000D02*
X159893000Y-56769000D01*
X159131000Y-59309000D02*
X159893000Y-58547000D01*
X158877000Y-59309000D02*
X159131000Y-59309000D01*
X154051000Y-64135000D02*
X158877000Y-59309000D01*
X151257000Y-67056000D02*
X141859000Y-67056000D01*
X152400000Y-68199000D02*
X152400000Y-69850000D01*
X151257000Y-67056000D02*
X152400000Y-68199000D01*
X160020000Y-87630000D02*
X160020000Y-72771000D01*
X170053000Y-56769000D02*
X171323000Y-55499000D01*
X170053000Y-59309000D02*
X170053000Y-56769000D01*
X161036000Y-68326000D02*
X170053000Y-59309000D01*
X159639000Y-68326000D02*
X161036000Y-68326000D01*
X158750000Y-69215000D02*
X159639000Y-68326000D01*
X158750000Y-71501000D02*
X158750000Y-69215000D01*
X160020000Y-72771000D02*
X158750000Y-71501000D01*
D34*
G36*
X185252186Y-113971577D02*
X184851523Y-114239291D01*
X184583809Y-114639954D01*
X184489800Y-115112568D01*
X184489800Y-115976632D01*
X184583809Y-116449246D01*
X184851523Y-116849909D01*
X185252186Y-117117623D01*
X185724800Y-117211632D01*
X186197414Y-117117623D01*
X186598077Y-116849909D01*
X186865791Y-116449246D01*
X186959800Y-115976632D01*
X186959800Y-115112568D01*
X186865791Y-114639954D01*
X186598077Y-114239291D01*
X186197414Y-113971577D01*
X185923038Y-113917000D01*
X195900198Y-113917000D01*
X196217000Y-114233802D01*
X196217000Y-120335198D01*
X187958498Y-128593700D01*
X173862730Y-128651000D01*
X172748677Y-128651000D01*
X172699267Y-128661006D01*
X172657642Y-128689447D01*
X172630362Y-128731841D01*
X172621743Y-128782095D01*
X172715837Y-131699000D01*
X172085000Y-131699000D01*
X172035590Y-131709006D01*
X171993965Y-131737447D01*
X171966685Y-131779841D01*
X171958000Y-131826000D01*
X171958000Y-144092394D01*
X171047322Y-145003072D01*
X170951250Y-144907000D01*
X170102000Y-144907000D01*
X170102000Y-144927000D01*
X169848000Y-144927000D01*
X169848000Y-144907000D01*
X168998750Y-144907000D01*
X168840000Y-145065750D01*
X168840000Y-145288000D01*
X167722440Y-145288000D01*
X167722440Y-144180000D01*
X167678162Y-143944683D01*
X167539090Y-143728559D01*
X167353233Y-143601569D01*
X167974908Y-142979894D01*
X167974838Y-143060167D01*
X168116883Y-143403943D01*
X168379673Y-143667192D01*
X168723201Y-143809838D01*
X168946941Y-143810033D01*
X168936673Y-143820301D01*
X168840000Y-144053690D01*
X168840000Y-144494250D01*
X168998750Y-144653000D01*
X169848000Y-144653000D01*
X169848000Y-143703750D01*
X170102000Y-143703750D01*
X170102000Y-144653000D01*
X170951250Y-144653000D01*
X171110000Y-144494250D01*
X171110000Y-144053690D01*
X171013327Y-143820301D01*
X170834698Y-143641673D01*
X170601309Y-143545000D01*
X170260750Y-143545000D01*
X170102000Y-143703750D01*
X169848000Y-143703750D01*
X169689250Y-143545000D01*
X169562275Y-143545000D01*
X169702192Y-143405327D01*
X169844838Y-143061799D01*
X169845162Y-142689833D01*
X169703117Y-142346057D01*
X169440327Y-142082808D01*
X169360000Y-142049453D01*
X169360000Y-141765000D01*
X169377002Y-141765000D01*
X169377002Y-141633252D01*
X169508750Y-141765000D01*
X169576310Y-141765000D01*
X169809699Y-141668327D01*
X169988327Y-141489698D01*
X170085000Y-141256309D01*
X170085000Y-140865750D01*
X169926250Y-140707000D01*
X169447440Y-140707000D01*
X169447440Y-140453000D01*
X169926250Y-140453000D01*
X170085000Y-140294250D01*
X170085000Y-139903691D01*
X169988327Y-139670302D01*
X169809699Y-139491673D01*
X169576310Y-139395000D01*
X169508750Y-139395000D01*
X169350000Y-139553750D01*
X169350000Y-139712067D01*
X169264090Y-139578559D01*
X169051890Y-139433569D01*
X169024215Y-139427965D01*
X168991250Y-139395000D01*
X168923690Y-139395000D01*
X168903247Y-139403468D01*
X168800000Y-139382560D01*
X168710000Y-139382560D01*
X168710000Y-139375000D01*
X168652148Y-139084161D01*
X168652148Y-139084160D01*
X168487401Y-138837599D01*
X168125673Y-138475871D01*
X168460167Y-138476162D01*
X168803943Y-138334117D01*
X169067192Y-138071327D01*
X169209838Y-137727799D01*
X169210056Y-137477440D01*
X169450000Y-137477440D01*
X169685317Y-137433162D01*
X169901441Y-137294090D01*
X170046431Y-137081890D01*
X170097440Y-136830000D01*
X170097440Y-135730000D01*
X170053162Y-135494683D01*
X170016064Y-135437032D01*
X170073943Y-135413117D01*
X170337192Y-135150327D01*
X170479838Y-134806799D01*
X170480162Y-134434833D01*
X170338117Y-134091057D01*
X170075327Y-133827808D01*
X169731799Y-133685162D01*
X169359833Y-133684838D01*
X169312168Y-133704533D01*
X169308250Y-133684838D01*
X169302148Y-133654160D01*
X169137401Y-133407599D01*
X167882440Y-132152638D01*
X167882440Y-131455000D01*
X167838162Y-131219683D01*
X167699090Y-131003559D01*
X167486890Y-130858569D01*
X167409588Y-130842915D01*
X167272401Y-130637599D01*
X166272401Y-129637599D01*
X166025839Y-129472852D01*
X165735000Y-129415000D01*
X163195000Y-129415000D01*
X162904161Y-129472852D01*
X162657599Y-129637599D01*
X161702599Y-130592599D01*
X161537852Y-130839161D01*
X161523514Y-130911243D01*
X161438559Y-130965910D01*
X161293569Y-131178110D01*
X161290919Y-131191197D01*
X161154090Y-130978559D01*
X160941890Y-130833569D01*
X160690000Y-130782560D01*
X159990000Y-130782560D01*
X159754683Y-130826838D01*
X159538559Y-130965910D01*
X159393569Y-131178110D01*
X159342560Y-131430000D01*
X159342560Y-131682638D01*
X158980000Y-132045198D01*
X158980000Y-131952998D01*
X158821252Y-131952998D01*
X158980000Y-131794250D01*
X158980000Y-131328690D01*
X158883327Y-131095301D01*
X158704698Y-130916673D01*
X158471309Y-130820000D01*
X158130750Y-130820000D01*
X157972000Y-130978750D01*
X157972000Y-131953000D01*
X157992000Y-131953000D01*
X157992000Y-132207000D01*
X157972000Y-132207000D01*
X157972000Y-133181250D01*
X158130750Y-133340000D01*
X158471309Y-133340000D01*
X158625000Y-133276339D01*
X158625000Y-133872135D01*
X158584090Y-133808559D01*
X158371890Y-133663569D01*
X158120000Y-133612560D01*
X157470000Y-133612560D01*
X157234683Y-133656838D01*
X157018559Y-133795910D01*
X156873569Y-134008110D01*
X156845824Y-134145120D01*
X156823162Y-134024683D01*
X156684090Y-133808559D01*
X156655000Y-133788683D01*
X156655000Y-133260105D01*
X156796441Y-133169090D01*
X156842969Y-133100994D01*
X156985302Y-133243327D01*
X157218691Y-133340000D01*
X157559250Y-133340000D01*
X157718000Y-133181250D01*
X157718000Y-132207000D01*
X157698000Y-132207000D01*
X157698000Y-131953000D01*
X157718000Y-131953000D01*
X157718000Y-130978750D01*
X157559250Y-130820000D01*
X157218691Y-130820000D01*
X156985302Y-130916673D01*
X156844064Y-131057910D01*
X156809090Y-131003559D01*
X156596890Y-130858569D01*
X156345000Y-130807560D01*
X155345000Y-130807560D01*
X155109683Y-130851838D01*
X154893559Y-130990910D01*
X154748569Y-131203110D01*
X154739477Y-131248007D01*
X154491799Y-131145162D01*
X154444923Y-131145121D01*
X154347440Y-131047638D01*
X154347440Y-130795000D01*
X154303162Y-130559683D01*
X154164090Y-130343559D01*
X153951890Y-130198569D01*
X153700000Y-130147560D01*
X153000000Y-130147560D01*
X152764683Y-130191838D01*
X152548559Y-130330910D01*
X152403569Y-130543110D01*
X152400919Y-130556197D01*
X152264090Y-130343559D01*
X152051890Y-130198569D01*
X151800000Y-130147560D01*
X151100000Y-130147560D01*
X150864683Y-130191838D01*
X150648559Y-130330910D01*
X150503569Y-130543110D01*
X150452560Y-130795000D01*
X150452560Y-132095000D01*
X150496838Y-132330317D01*
X150635910Y-132546441D01*
X150732219Y-132612246D01*
X150747852Y-132690839D01*
X150912599Y-132937401D01*
X151335198Y-133360000D01*
X151272998Y-133360000D01*
X151272998Y-133518748D01*
X151114250Y-133360000D01*
X150773691Y-133360000D01*
X150540302Y-133456673D01*
X150361673Y-133635301D01*
X150265000Y-133868690D01*
X150265000Y-134334250D01*
X150423750Y-134493000D01*
X151273000Y-134493000D01*
X151273000Y-134473000D01*
X151527000Y-134473000D01*
X151527000Y-134493000D01*
X151547000Y-134493000D01*
X151547000Y-134747000D01*
X151527000Y-134747000D01*
X151527000Y-135721250D01*
X151685750Y-135880000D01*
X151730750Y-135880000D01*
X151577000Y-136033750D01*
X151577000Y-137033000D01*
X151597000Y-137033000D01*
X151597000Y-137287000D01*
X151577000Y-137287000D01*
X151577000Y-138286250D01*
X151735750Y-138445000D01*
X151926309Y-138445000D01*
X152159698Y-138348327D01*
X152338327Y-138169699D01*
X152394654Y-138033713D01*
X152396838Y-138045317D01*
X152535910Y-138261441D01*
X152748110Y-138406431D01*
X153000000Y-138457440D01*
X153700000Y-138457440D01*
X153935317Y-138413162D01*
X154151441Y-138274090D01*
X154296431Y-138061890D01*
X154325164Y-137920000D01*
X155072809Y-137920000D01*
X155105910Y-137971441D01*
X155318110Y-138116431D01*
X155570000Y-138167440D01*
X156220000Y-138167440D01*
X156360086Y-138141081D01*
X156393690Y-138155000D01*
X156559250Y-138155000D01*
X156718000Y-137996250D01*
X156718000Y-137915949D01*
X156816431Y-137771890D01*
X156844176Y-137634880D01*
X156866838Y-137755317D01*
X156972000Y-137918743D01*
X156972000Y-137996250D01*
X157130750Y-138155000D01*
X157296310Y-138155000D01*
X157333171Y-138139732D01*
X157470000Y-138167440D01*
X158120000Y-138167440D01*
X158355317Y-138123162D01*
X158571441Y-137984090D01*
X158716431Y-137771890D01*
X158767440Y-137520000D01*
X158767440Y-136460000D01*
X158723162Y-136224683D01*
X158584090Y-136008559D01*
X158555000Y-135988683D01*
X158555000Y-135794669D01*
X158571441Y-135784090D01*
X158716431Y-135571890D01*
X158720864Y-135550000D01*
X159186550Y-135550000D01*
X159198201Y-135554838D01*
X159308466Y-135554934D01*
X159364161Y-135592148D01*
X159655000Y-135650000D01*
X160077721Y-135650000D01*
X160200910Y-135841441D01*
X160270711Y-135889134D01*
X160213559Y-135925910D01*
X160068569Y-136138110D01*
X160017560Y-136390000D01*
X160017560Y-137390000D01*
X160061838Y-137625317D01*
X160200910Y-137841441D01*
X160266123Y-137885999D01*
X160188559Y-137935910D01*
X160043569Y-138148110D01*
X159992560Y-138400000D01*
X159992560Y-139100000D01*
X160036838Y-139335317D01*
X160175910Y-139551441D01*
X160388110Y-139696431D01*
X160401197Y-139699081D01*
X160188559Y-139835910D01*
X160043569Y-140048110D01*
X159992560Y-140300000D01*
X159992560Y-141000000D01*
X160036838Y-141235317D01*
X160175910Y-141451441D01*
X160388110Y-141596431D01*
X160640000Y-141647440D01*
X161940000Y-141647440D01*
X162175317Y-141603162D01*
X162391441Y-141464090D01*
X162428399Y-141410000D01*
X163324243Y-141410000D01*
X163350910Y-141451441D01*
X163563110Y-141596431D01*
X163815000Y-141647440D01*
X164270018Y-141647440D01*
X164278201Y-141650838D01*
X164650167Y-141651162D01*
X164659175Y-141647440D01*
X165115000Y-141647440D01*
X165350317Y-141603162D01*
X165566441Y-141464090D01*
X165603399Y-141410000D01*
X166525591Y-141410000D01*
X166635910Y-141581441D01*
X166848110Y-141726431D01*
X167039924Y-141765274D01*
X166037599Y-142767599D01*
X165872852Y-143014161D01*
X165815000Y-143305000D01*
X165815000Y-143592721D01*
X165623559Y-143715910D01*
X165478569Y-143928110D01*
X165427560Y-144180000D01*
X165427560Y-145288000D01*
X163276520Y-145288000D01*
X159846699Y-144605766D01*
X154992143Y-143392127D01*
X151233268Y-140886211D01*
X149987000Y-137770541D01*
X149987000Y-137445750D01*
X150465000Y-137445750D01*
X150465000Y-137936310D01*
X150561673Y-138169699D01*
X150740302Y-138348327D01*
X150973691Y-138445000D01*
X151164250Y-138445000D01*
X151323000Y-138286250D01*
X151323000Y-137287000D01*
X150623750Y-137287000D01*
X150465000Y-137445750D01*
X149987000Y-137445750D01*
X149987000Y-134905750D01*
X150265000Y-134905750D01*
X150265000Y-135371310D01*
X150361673Y-135604699D01*
X150540302Y-135783327D01*
X150773691Y-135880000D01*
X150961620Y-135880000D01*
X150740302Y-135971673D01*
X150561673Y-136150301D01*
X150465000Y-136383690D01*
X150465000Y-136874250D01*
X150623750Y-137033000D01*
X151323000Y-137033000D01*
X151323000Y-136033750D01*
X151164250Y-135875000D01*
X151119250Y-135875000D01*
X151273000Y-135721250D01*
X151273000Y-134747000D01*
X150423750Y-134747000D01*
X150265000Y-134905750D01*
X149987000Y-134905750D01*
X149987000Y-130862606D01*
X151182606Y-129667000D01*
X156464000Y-129667000D01*
X156513410Y-129656994D01*
X156555035Y-129628553D01*
X156582315Y-129586159D01*
X156591000Y-129540000D01*
X156591000Y-128778000D01*
X156580994Y-128728590D01*
X156552553Y-128686965D01*
X156510159Y-128659685D01*
X156464000Y-128651000D01*
X146824410Y-128651000D01*
X146814272Y-128649000D01*
X169545000Y-128649000D01*
X169835839Y-128591148D01*
X170082401Y-128426401D01*
X177292421Y-121216381D01*
X177800000Y-121317345D01*
X178373489Y-121203271D01*
X178859670Y-120878415D01*
X179070000Y-120563634D01*
X179280330Y-120878415D01*
X179766511Y-121203271D01*
X180340000Y-121317345D01*
X180913489Y-121203271D01*
X181399670Y-120878415D01*
X181606461Y-120568931D01*
X181977964Y-120984732D01*
X182505209Y-121238709D01*
X182520974Y-121241358D01*
X182753000Y-121120217D01*
X182753000Y-119761000D01*
X182733000Y-119761000D01*
X182733000Y-119507000D01*
X182753000Y-119507000D01*
X182753000Y-119487000D01*
X183007000Y-119487000D01*
X183007000Y-119507000D01*
X183027000Y-119507000D01*
X183027000Y-119761000D01*
X183007000Y-119761000D01*
X183007000Y-121120217D01*
X183239026Y-121241358D01*
X183254791Y-121238709D01*
X183782036Y-120984732D01*
X184153539Y-120568931D01*
X184360330Y-120878415D01*
X184846511Y-121203271D01*
X185420000Y-121317345D01*
X185993489Y-121203271D01*
X186479670Y-120878415D01*
X186690000Y-120563634D01*
X186900330Y-120878415D01*
X187386511Y-121203271D01*
X187960000Y-121317345D01*
X188533489Y-121203271D01*
X189019670Y-120878415D01*
X189230000Y-120563634D01*
X189440330Y-120878415D01*
X189926511Y-121203271D01*
X190500000Y-121317345D01*
X191073489Y-121203271D01*
X191559670Y-120878415D01*
X191574500Y-120856220D01*
X191638073Y-121009698D01*
X191816701Y-121188327D01*
X192050090Y-121285000D01*
X192754250Y-121285000D01*
X192913000Y-121126250D01*
X192913000Y-119761000D01*
X193167000Y-119761000D01*
X193167000Y-121126250D01*
X193325750Y-121285000D01*
X194029910Y-121285000D01*
X194263299Y-121188327D01*
X194441927Y-121009698D01*
X194538600Y-120776309D01*
X194538600Y-119919750D01*
X194379850Y-119761000D01*
X193167000Y-119761000D01*
X192913000Y-119761000D01*
X192893000Y-119761000D01*
X192893000Y-119507000D01*
X192913000Y-119507000D01*
X192913000Y-118141750D01*
X193167000Y-118141750D01*
X193167000Y-119507000D01*
X194379850Y-119507000D01*
X194538600Y-119348250D01*
X194538600Y-118491691D01*
X194441927Y-118258302D01*
X194263299Y-118079673D01*
X194029910Y-117983000D01*
X193325750Y-117983000D01*
X193167000Y-118141750D01*
X192913000Y-118141750D01*
X192754250Y-117983000D01*
X192050090Y-117983000D01*
X191816701Y-118079673D01*
X191638073Y-118258302D01*
X191574500Y-118411780D01*
X191559670Y-118389585D01*
X191073489Y-118064729D01*
X190500000Y-117950655D01*
X189926511Y-118064729D01*
X189440330Y-118389585D01*
X189230000Y-118704366D01*
X189019670Y-118389585D01*
X188533489Y-118064729D01*
X187960000Y-117950655D01*
X187386511Y-118064729D01*
X186900330Y-118389585D01*
X186690000Y-118704366D01*
X186479670Y-118389585D01*
X185993489Y-118064729D01*
X185420000Y-117950655D01*
X184912421Y-118051619D01*
X184052401Y-117191599D01*
X183805839Y-117026852D01*
X183796148Y-117024924D01*
X184058077Y-116849909D01*
X184325791Y-116449246D01*
X184419800Y-115976632D01*
X184419800Y-115112568D01*
X184325791Y-114639954D01*
X184058077Y-114239291D01*
X183657414Y-113971577D01*
X183383038Y-113917000D01*
X185526562Y-113917000D01*
X185252186Y-113971577D01*
X185252186Y-113971577D01*
G37*
X185252186Y-113971577D02*
X184851523Y-114239291D01*
X184583809Y-114639954D01*
X184489800Y-115112568D01*
X184489800Y-115976632D01*
X184583809Y-116449246D01*
X184851523Y-116849909D01*
X185252186Y-117117623D01*
X185724800Y-117211632D01*
X186197414Y-117117623D01*
X186598077Y-116849909D01*
X186865791Y-116449246D01*
X186959800Y-115976632D01*
X186959800Y-115112568D01*
X186865791Y-114639954D01*
X186598077Y-114239291D01*
X186197414Y-113971577D01*
X185923038Y-113917000D01*
X195900198Y-113917000D01*
X196217000Y-114233802D01*
X196217000Y-120335198D01*
X187958498Y-128593700D01*
X173862730Y-128651000D01*
X172748677Y-128651000D01*
X172699267Y-128661006D01*
X172657642Y-128689447D01*
X172630362Y-128731841D01*
X172621743Y-128782095D01*
X172715837Y-131699000D01*
X172085000Y-131699000D01*
X172035590Y-131709006D01*
X171993965Y-131737447D01*
X171966685Y-131779841D01*
X171958000Y-131826000D01*
X171958000Y-144092394D01*
X171047322Y-145003072D01*
X170951250Y-144907000D01*
X170102000Y-144907000D01*
X170102000Y-144927000D01*
X169848000Y-144927000D01*
X169848000Y-144907000D01*
X168998750Y-144907000D01*
X168840000Y-145065750D01*
X168840000Y-145288000D01*
X167722440Y-145288000D01*
X167722440Y-144180000D01*
X167678162Y-143944683D01*
X167539090Y-143728559D01*
X167353233Y-143601569D01*
X167974908Y-142979894D01*
X167974838Y-143060167D01*
X168116883Y-143403943D01*
X168379673Y-143667192D01*
X168723201Y-143809838D01*
X168946941Y-143810033D01*
X168936673Y-143820301D01*
X168840000Y-144053690D01*
X168840000Y-144494250D01*
X168998750Y-144653000D01*
X169848000Y-144653000D01*
X169848000Y-143703750D01*
X170102000Y-143703750D01*
X170102000Y-144653000D01*
X170951250Y-144653000D01*
X171110000Y-144494250D01*
X171110000Y-144053690D01*
X171013327Y-143820301D01*
X170834698Y-143641673D01*
X170601309Y-143545000D01*
X170260750Y-143545000D01*
X170102000Y-143703750D01*
X169848000Y-143703750D01*
X169689250Y-143545000D01*
X169562275Y-143545000D01*
X169702192Y-143405327D01*
X169844838Y-143061799D01*
X169845162Y-142689833D01*
X169703117Y-142346057D01*
X169440327Y-142082808D01*
X169360000Y-142049453D01*
X169360000Y-141765000D01*
X169377002Y-141765000D01*
X169377002Y-141633252D01*
X169508750Y-141765000D01*
X169576310Y-141765000D01*
X169809699Y-141668327D01*
X169988327Y-141489698D01*
X170085000Y-141256309D01*
X170085000Y-140865750D01*
X169926250Y-140707000D01*
X169447440Y-140707000D01*
X169447440Y-140453000D01*
X169926250Y-140453000D01*
X170085000Y-140294250D01*
X170085000Y-139903691D01*
X169988327Y-139670302D01*
X169809699Y-139491673D01*
X169576310Y-139395000D01*
X169508750Y-139395000D01*
X169350000Y-139553750D01*
X169350000Y-139712067D01*
X169264090Y-139578559D01*
X169051890Y-139433569D01*
X169024215Y-139427965D01*
X168991250Y-139395000D01*
X168923690Y-139395000D01*
X168903247Y-139403468D01*
X168800000Y-139382560D01*
X168710000Y-139382560D01*
X168710000Y-139375000D01*
X168652148Y-139084161D01*
X168652148Y-139084160D01*
X168487401Y-138837599D01*
X168125673Y-138475871D01*
X168460167Y-138476162D01*
X168803943Y-138334117D01*
X169067192Y-138071327D01*
X169209838Y-137727799D01*
X169210056Y-137477440D01*
X169450000Y-137477440D01*
X169685317Y-137433162D01*
X169901441Y-137294090D01*
X170046431Y-137081890D01*
X170097440Y-136830000D01*
X170097440Y-135730000D01*
X170053162Y-135494683D01*
X170016064Y-135437032D01*
X170073943Y-135413117D01*
X170337192Y-135150327D01*
X170479838Y-134806799D01*
X170480162Y-134434833D01*
X170338117Y-134091057D01*
X170075327Y-133827808D01*
X169731799Y-133685162D01*
X169359833Y-133684838D01*
X169312168Y-133704533D01*
X169308250Y-133684838D01*
X169302148Y-133654160D01*
X169137401Y-133407599D01*
X167882440Y-132152638D01*
X167882440Y-131455000D01*
X167838162Y-131219683D01*
X167699090Y-131003559D01*
X167486890Y-130858569D01*
X167409588Y-130842915D01*
X167272401Y-130637599D01*
X166272401Y-129637599D01*
X166025839Y-129472852D01*
X165735000Y-129415000D01*
X163195000Y-129415000D01*
X162904161Y-129472852D01*
X162657599Y-129637599D01*
X161702599Y-130592599D01*
X161537852Y-130839161D01*
X161523514Y-130911243D01*
X161438559Y-130965910D01*
X161293569Y-131178110D01*
X161290919Y-131191197D01*
X161154090Y-130978559D01*
X160941890Y-130833569D01*
X160690000Y-130782560D01*
X159990000Y-130782560D01*
X159754683Y-130826838D01*
X159538559Y-130965910D01*
X159393569Y-131178110D01*
X159342560Y-131430000D01*
X159342560Y-131682638D01*
X158980000Y-132045198D01*
X158980000Y-131952998D01*
X158821252Y-131952998D01*
X158980000Y-131794250D01*
X158980000Y-131328690D01*
X158883327Y-131095301D01*
X158704698Y-130916673D01*
X158471309Y-130820000D01*
X158130750Y-130820000D01*
X157972000Y-130978750D01*
X157972000Y-131953000D01*
X157992000Y-131953000D01*
X157992000Y-132207000D01*
X157972000Y-132207000D01*
X157972000Y-133181250D01*
X158130750Y-133340000D01*
X158471309Y-133340000D01*
X158625000Y-133276339D01*
X158625000Y-133872135D01*
X158584090Y-133808559D01*
X158371890Y-133663569D01*
X158120000Y-133612560D01*
X157470000Y-133612560D01*
X157234683Y-133656838D01*
X157018559Y-133795910D01*
X156873569Y-134008110D01*
X156845824Y-134145120D01*
X156823162Y-134024683D01*
X156684090Y-133808559D01*
X156655000Y-133788683D01*
X156655000Y-133260105D01*
X156796441Y-133169090D01*
X156842969Y-133100994D01*
X156985302Y-133243327D01*
X157218691Y-133340000D01*
X157559250Y-133340000D01*
X157718000Y-133181250D01*
X157718000Y-132207000D01*
X157698000Y-132207000D01*
X157698000Y-131953000D01*
X157718000Y-131953000D01*
X157718000Y-130978750D01*
X157559250Y-130820000D01*
X157218691Y-130820000D01*
X156985302Y-130916673D01*
X156844064Y-131057910D01*
X156809090Y-131003559D01*
X156596890Y-130858569D01*
X156345000Y-130807560D01*
X155345000Y-130807560D01*
X155109683Y-130851838D01*
X154893559Y-130990910D01*
X154748569Y-131203110D01*
X154739477Y-131248007D01*
X154491799Y-131145162D01*
X154444923Y-131145121D01*
X154347440Y-131047638D01*
X154347440Y-130795000D01*
X154303162Y-130559683D01*
X154164090Y-130343559D01*
X153951890Y-130198569D01*
X153700000Y-130147560D01*
X153000000Y-130147560D01*
X152764683Y-130191838D01*
X152548559Y-130330910D01*
X152403569Y-130543110D01*
X152400919Y-130556197D01*
X152264090Y-130343559D01*
X152051890Y-130198569D01*
X151800000Y-130147560D01*
X151100000Y-130147560D01*
X150864683Y-130191838D01*
X150648559Y-130330910D01*
X150503569Y-130543110D01*
X150452560Y-130795000D01*
X150452560Y-132095000D01*
X150496838Y-132330317D01*
X150635910Y-132546441D01*
X150732219Y-132612246D01*
X150747852Y-132690839D01*
X150912599Y-132937401D01*
X151335198Y-133360000D01*
X151272998Y-133360000D01*
X151272998Y-133518748D01*
X151114250Y-133360000D01*
X150773691Y-133360000D01*
X150540302Y-133456673D01*
X150361673Y-133635301D01*
X150265000Y-133868690D01*
X150265000Y-134334250D01*
X150423750Y-134493000D01*
X151273000Y-134493000D01*
X151273000Y-134473000D01*
X151527000Y-134473000D01*
X151527000Y-134493000D01*
X151547000Y-134493000D01*
X151547000Y-134747000D01*
X151527000Y-134747000D01*
X151527000Y-135721250D01*
X151685750Y-135880000D01*
X151730750Y-135880000D01*
X151577000Y-136033750D01*
X151577000Y-137033000D01*
X151597000Y-137033000D01*
X151597000Y-137287000D01*
X151577000Y-137287000D01*
X151577000Y-138286250D01*
X151735750Y-138445000D01*
X151926309Y-138445000D01*
X152159698Y-138348327D01*
X152338327Y-138169699D01*
X152394654Y-138033713D01*
X152396838Y-138045317D01*
X152535910Y-138261441D01*
X152748110Y-138406431D01*
X153000000Y-138457440D01*
X153700000Y-138457440D01*
X153935317Y-138413162D01*
X154151441Y-138274090D01*
X154296431Y-138061890D01*
X154325164Y-137920000D01*
X155072809Y-137920000D01*
X155105910Y-137971441D01*
X155318110Y-138116431D01*
X155570000Y-138167440D01*
X156220000Y-138167440D01*
X156360086Y-138141081D01*
X156393690Y-138155000D01*
X156559250Y-138155000D01*
X156718000Y-137996250D01*
X156718000Y-137915949D01*
X156816431Y-137771890D01*
X156844176Y-137634880D01*
X156866838Y-137755317D01*
X156972000Y-137918743D01*
X156972000Y-137996250D01*
X157130750Y-138155000D01*
X157296310Y-138155000D01*
X157333171Y-138139732D01*
X157470000Y-138167440D01*
X158120000Y-138167440D01*
X158355317Y-138123162D01*
X158571441Y-137984090D01*
X158716431Y-137771890D01*
X158767440Y-137520000D01*
X158767440Y-136460000D01*
X158723162Y-136224683D01*
X158584090Y-136008559D01*
X158555000Y-135988683D01*
X158555000Y-135794669D01*
X158571441Y-135784090D01*
X158716431Y-135571890D01*
X158720864Y-135550000D01*
X159186550Y-135550000D01*
X159198201Y-135554838D01*
X159308466Y-135554934D01*
X159364161Y-135592148D01*
X159655000Y-135650000D01*
X160077721Y-135650000D01*
X160200910Y-135841441D01*
X160270711Y-135889134D01*
X160213559Y-135925910D01*
X160068569Y-136138110D01*
X160017560Y-136390000D01*
X160017560Y-137390000D01*
X160061838Y-137625317D01*
X160200910Y-137841441D01*
X160266123Y-137885999D01*
X160188559Y-137935910D01*
X160043569Y-138148110D01*
X159992560Y-138400000D01*
X159992560Y-139100000D01*
X160036838Y-139335317D01*
X160175910Y-139551441D01*
X160388110Y-139696431D01*
X160401197Y-139699081D01*
X160188559Y-139835910D01*
X160043569Y-140048110D01*
X159992560Y-140300000D01*
X159992560Y-141000000D01*
X160036838Y-141235317D01*
X160175910Y-141451441D01*
X160388110Y-141596431D01*
X160640000Y-141647440D01*
X161940000Y-141647440D01*
X162175317Y-141603162D01*
X162391441Y-141464090D01*
X162428399Y-141410000D01*
X163324243Y-141410000D01*
X163350910Y-141451441D01*
X163563110Y-141596431D01*
X163815000Y-141647440D01*
X164270018Y-141647440D01*
X164278201Y-141650838D01*
X164650167Y-141651162D01*
X164659175Y-141647440D01*
X165115000Y-141647440D01*
X165350317Y-141603162D01*
X165566441Y-141464090D01*
X165603399Y-141410000D01*
X166525591Y-141410000D01*
X166635910Y-141581441D01*
X166848110Y-141726431D01*
X167039924Y-141765274D01*
X166037599Y-142767599D01*
X165872852Y-143014161D01*
X165815000Y-143305000D01*
X165815000Y-143592721D01*
X165623559Y-143715910D01*
X165478569Y-143928110D01*
X165427560Y-144180000D01*
X165427560Y-145288000D01*
X163276520Y-145288000D01*
X159846699Y-144605766D01*
X154992143Y-143392127D01*
X151233268Y-140886211D01*
X149987000Y-137770541D01*
X149987000Y-137445750D01*
X150465000Y-137445750D01*
X150465000Y-137936310D01*
X150561673Y-138169699D01*
X150740302Y-138348327D01*
X150973691Y-138445000D01*
X151164250Y-138445000D01*
X151323000Y-138286250D01*
X151323000Y-137287000D01*
X150623750Y-137287000D01*
X150465000Y-137445750D01*
X149987000Y-137445750D01*
X149987000Y-134905750D01*
X150265000Y-134905750D01*
X150265000Y-135371310D01*
X150361673Y-135604699D01*
X150540302Y-135783327D01*
X150773691Y-135880000D01*
X150961620Y-135880000D01*
X150740302Y-135971673D01*
X150561673Y-136150301D01*
X150465000Y-136383690D01*
X150465000Y-136874250D01*
X150623750Y-137033000D01*
X151323000Y-137033000D01*
X151323000Y-136033750D01*
X151164250Y-135875000D01*
X151119250Y-135875000D01*
X151273000Y-135721250D01*
X151273000Y-134747000D01*
X150423750Y-134747000D01*
X150265000Y-134905750D01*
X149987000Y-134905750D01*
X149987000Y-130862606D01*
X151182606Y-129667000D01*
X156464000Y-129667000D01*
X156513410Y-129656994D01*
X156555035Y-129628553D01*
X156582315Y-129586159D01*
X156591000Y-129540000D01*
X156591000Y-128778000D01*
X156580994Y-128728590D01*
X156552553Y-128686965D01*
X156510159Y-128659685D01*
X156464000Y-128651000D01*
X146824410Y-128651000D01*
X146814272Y-128649000D01*
X169545000Y-128649000D01*
X169835839Y-128591148D01*
X170082401Y-128426401D01*
X177292421Y-121216381D01*
X177800000Y-121317345D01*
X178373489Y-121203271D01*
X178859670Y-120878415D01*
X179070000Y-120563634D01*
X179280330Y-120878415D01*
X179766511Y-121203271D01*
X180340000Y-121317345D01*
X180913489Y-121203271D01*
X181399670Y-120878415D01*
X181606461Y-120568931D01*
X181977964Y-120984732D01*
X182505209Y-121238709D01*
X182520974Y-121241358D01*
X182753000Y-121120217D01*
X182753000Y-119761000D01*
X182733000Y-119761000D01*
X182733000Y-119507000D01*
X182753000Y-119507000D01*
X182753000Y-119487000D01*
X183007000Y-119487000D01*
X183007000Y-119507000D01*
X183027000Y-119507000D01*
X183027000Y-119761000D01*
X183007000Y-119761000D01*
X183007000Y-121120217D01*
X183239026Y-121241358D01*
X183254791Y-121238709D01*
X183782036Y-120984732D01*
X184153539Y-120568931D01*
X184360330Y-120878415D01*
X184846511Y-121203271D01*
X185420000Y-121317345D01*
X185993489Y-121203271D01*
X186479670Y-120878415D01*
X186690000Y-120563634D01*
X186900330Y-120878415D01*
X187386511Y-121203271D01*
X187960000Y-121317345D01*
X188533489Y-121203271D01*
X189019670Y-120878415D01*
X189230000Y-120563634D01*
X189440330Y-120878415D01*
X189926511Y-121203271D01*
X190500000Y-121317345D01*
X191073489Y-121203271D01*
X191559670Y-120878415D01*
X191574500Y-120856220D01*
X191638073Y-121009698D01*
X191816701Y-121188327D01*
X192050090Y-121285000D01*
X192754250Y-121285000D01*
X192913000Y-121126250D01*
X192913000Y-119761000D01*
X193167000Y-119761000D01*
X193167000Y-121126250D01*
X193325750Y-121285000D01*
X194029910Y-121285000D01*
X194263299Y-121188327D01*
X194441927Y-121009698D01*
X194538600Y-120776309D01*
X194538600Y-119919750D01*
X194379850Y-119761000D01*
X193167000Y-119761000D01*
X192913000Y-119761000D01*
X192893000Y-119761000D01*
X192893000Y-119507000D01*
X192913000Y-119507000D01*
X192913000Y-118141750D01*
X193167000Y-118141750D01*
X193167000Y-119507000D01*
X194379850Y-119507000D01*
X194538600Y-119348250D01*
X194538600Y-118491691D01*
X194441927Y-118258302D01*
X194263299Y-118079673D01*
X194029910Y-117983000D01*
X193325750Y-117983000D01*
X193167000Y-118141750D01*
X192913000Y-118141750D01*
X192754250Y-117983000D01*
X192050090Y-117983000D01*
X191816701Y-118079673D01*
X191638073Y-118258302D01*
X191574500Y-118411780D01*
X191559670Y-118389585D01*
X191073489Y-118064729D01*
X190500000Y-117950655D01*
X189926511Y-118064729D01*
X189440330Y-118389585D01*
X189230000Y-118704366D01*
X189019670Y-118389585D01*
X188533489Y-118064729D01*
X187960000Y-117950655D01*
X187386511Y-118064729D01*
X186900330Y-118389585D01*
X186690000Y-118704366D01*
X186479670Y-118389585D01*
X185993489Y-118064729D01*
X185420000Y-117950655D01*
X184912421Y-118051619D01*
X184052401Y-117191599D01*
X183805839Y-117026852D01*
X183796148Y-117024924D01*
X184058077Y-116849909D01*
X184325791Y-116449246D01*
X184419800Y-115976632D01*
X184419800Y-115112568D01*
X184325791Y-114639954D01*
X184058077Y-114239291D01*
X183657414Y-113971577D01*
X183383038Y-113917000D01*
X185526562Y-113917000D01*
X185252186Y-113971577D01*
G36*
X141480000Y-74361198D02*
X138115198Y-77726000D01*
X131318000Y-77726000D01*
X131027160Y-77783852D01*
X130780599Y-77948599D01*
X128367599Y-80361599D01*
X128202852Y-80608161D01*
X128193365Y-80655856D01*
X128109080Y-80496526D01*
X127735947Y-80187610D01*
X127273000Y-80045000D01*
X126873000Y-80045000D01*
X126873000Y-81153000D01*
X126893000Y-81153000D01*
X126893000Y-81407000D01*
X126873000Y-81407000D01*
X126873000Y-82515000D01*
X127273000Y-82515000D01*
X127735947Y-82372390D01*
X128109080Y-82063474D01*
X128145000Y-81995572D01*
X128145000Y-101840694D01*
X128141890Y-101838569D01*
X127890000Y-101787560D01*
X127380000Y-101787560D01*
X127144683Y-101831838D01*
X126928559Y-101970910D01*
X126783569Y-102183110D01*
X126732560Y-102435000D01*
X126732560Y-104435000D01*
X126776838Y-104670317D01*
X126915910Y-104886441D01*
X127128110Y-105031431D01*
X127380000Y-105082440D01*
X127890000Y-105082440D01*
X128125317Y-105038162D01*
X128270877Y-104944497D01*
X128398110Y-105031431D01*
X128650000Y-105082440D01*
X129160000Y-105082440D01*
X129395317Y-105038162D01*
X129540877Y-104944497D01*
X129668110Y-105031431D01*
X129920000Y-105082440D01*
X130430000Y-105082440D01*
X130665317Y-105038162D01*
X130810877Y-104944497D01*
X130938110Y-105031431D01*
X131190000Y-105082440D01*
X131700000Y-105082440D01*
X131935317Y-105038162D01*
X132075154Y-104948179D01*
X132100302Y-104973327D01*
X132333691Y-105070000D01*
X132429250Y-105070000D01*
X132588000Y-104911250D01*
X132588000Y-103562000D01*
X132568000Y-103562000D01*
X132568000Y-103308000D01*
X132588000Y-103308000D01*
X132588000Y-101958750D01*
X132429250Y-101800000D01*
X132333691Y-101800000D01*
X132100302Y-101896673D01*
X132074577Y-101922398D01*
X131951890Y-101838569D01*
X131700000Y-101787560D01*
X131190000Y-101787560D01*
X130954683Y-101831838D01*
X130935000Y-101844504D01*
X130935000Y-94514090D01*
X143535400Y-94514090D01*
X143535400Y-95218250D01*
X143694150Y-95377000D01*
X144907000Y-95377000D01*
X144907000Y-94164150D01*
X144748250Y-94005400D01*
X144044091Y-94005400D01*
X143810702Y-94102073D01*
X143632073Y-94280701D01*
X143535400Y-94514090D01*
X130935000Y-94514090D01*
X130935000Y-88610213D01*
X138899392Y-88610213D01*
X138968857Y-88852397D01*
X139492302Y-89039144D01*
X140047368Y-89011362D01*
X140431143Y-88852397D01*
X140500608Y-88610213D01*
X139700000Y-87809605D01*
X138899392Y-88610213D01*
X130935000Y-88610213D01*
X130935000Y-87422302D01*
X138290856Y-87422302D01*
X138318638Y-87977368D01*
X138477603Y-88361143D01*
X138719787Y-88430608D01*
X139520395Y-87630000D01*
X138719787Y-86829392D01*
X138477603Y-86898857D01*
X138290856Y-87422302D01*
X130935000Y-87422302D01*
X130935000Y-86649787D01*
X138899392Y-86649787D01*
X139700000Y-87450395D01*
X140500608Y-86649787D01*
X140431143Y-86407603D01*
X139907698Y-86220856D01*
X139352632Y-86248638D01*
X138968857Y-86407603D01*
X138899392Y-86649787D01*
X130935000Y-86649787D01*
X130935000Y-81975802D01*
X131313193Y-81597609D01*
X132772538Y-81597609D01*
X132776408Y-81635281D01*
X133002920Y-82063474D01*
X133376053Y-82372390D01*
X133839000Y-82515000D01*
X134239000Y-82515000D01*
X134239000Y-81407000D01*
X134493000Y-81407000D01*
X134493000Y-82515000D01*
X134893000Y-82515000D01*
X135355947Y-82372390D01*
X135729080Y-82063474D01*
X135955592Y-81635281D01*
X135959462Y-81597609D01*
X135834731Y-81407000D01*
X134493000Y-81407000D01*
X134239000Y-81407000D01*
X132897269Y-81407000D01*
X132772538Y-81597609D01*
X131313193Y-81597609D01*
X132648802Y-80262000D01*
X133286199Y-80262000D01*
X133002920Y-80496526D01*
X132776408Y-80924719D01*
X132772538Y-80962391D01*
X132897269Y-81153000D01*
X134239000Y-81153000D01*
X134239000Y-81133000D01*
X134493000Y-81133000D01*
X134493000Y-81153000D01*
X135834731Y-81153000D01*
X135959462Y-80962391D01*
X135955592Y-80924719D01*
X135729080Y-80496526D01*
X135445801Y-80262000D01*
X140335000Y-80262000D01*
X140625839Y-80204148D01*
X140872401Y-80039401D01*
X145290000Y-75621802D01*
X145290000Y-86329121D01*
X145059100Y-86233243D01*
X144503339Y-86232758D01*
X143989697Y-86444990D01*
X143596371Y-86837630D01*
X143510051Y-87045512D01*
X143425010Y-86839697D01*
X143032370Y-86446371D01*
X142519100Y-86233243D01*
X141963339Y-86232758D01*
X141449697Y-86444990D01*
X141056371Y-86837630D01*
X140976605Y-87029727D01*
X140922397Y-86898857D01*
X140680213Y-86829392D01*
X139879605Y-87630000D01*
X140680213Y-88430608D01*
X140922397Y-88361143D01*
X140972509Y-88220682D01*
X141054990Y-88420303D01*
X141447630Y-88813629D01*
X141960900Y-89026757D01*
X142516661Y-89027242D01*
X143030303Y-88815010D01*
X143423629Y-88422370D01*
X143509949Y-88214488D01*
X143594990Y-88420303D01*
X143987630Y-88813629D01*
X144500900Y-89026757D01*
X145056661Y-89027242D01*
X145290000Y-88930829D01*
X145290000Y-89281000D01*
X145347852Y-89571839D01*
X145512599Y-89818401D01*
X145544000Y-89849802D01*
X145544000Y-94005400D01*
X145319750Y-94005400D01*
X145161000Y-94164150D01*
X145161000Y-95377000D01*
X145181000Y-95377000D01*
X145181000Y-95631000D01*
X145161000Y-95631000D01*
X145161000Y-95651000D01*
X144907000Y-95651000D01*
X144907000Y-95631000D01*
X143694150Y-95631000D01*
X143535400Y-95789750D01*
X143535400Y-96493910D01*
X143632073Y-96727299D01*
X143810702Y-96905927D01*
X143966023Y-96970263D01*
X143944971Y-96984330D01*
X143620115Y-97470511D01*
X143506041Y-98044000D01*
X143620115Y-98617489D01*
X143944971Y-99103670D01*
X144259752Y-99314000D01*
X143944971Y-99524330D01*
X143620115Y-100010511D01*
X143506041Y-100584000D01*
X143620115Y-101157489D01*
X143944971Y-101643670D01*
X144160317Y-101787560D01*
X143890000Y-101787560D01*
X143654683Y-101831838D01*
X143509123Y-101925503D01*
X143381890Y-101838569D01*
X143130000Y-101787560D01*
X142620000Y-101787560D01*
X142384683Y-101831838D01*
X142239123Y-101925503D01*
X142111890Y-101838569D01*
X141860000Y-101787560D01*
X141350000Y-101787560D01*
X141114683Y-101831838D01*
X140969123Y-101925503D01*
X140841890Y-101838569D01*
X140590000Y-101787560D01*
X140080000Y-101787560D01*
X139844683Y-101831838D01*
X139699123Y-101925503D01*
X139571890Y-101838569D01*
X139320000Y-101787560D01*
X138810000Y-101787560D01*
X138574683Y-101831838D01*
X138429123Y-101925503D01*
X138301890Y-101838569D01*
X138050000Y-101787560D01*
X137540000Y-101787560D01*
X137304683Y-101831838D01*
X137159123Y-101925503D01*
X137031890Y-101838569D01*
X136780000Y-101787560D01*
X136270000Y-101787560D01*
X136034683Y-101831838D01*
X135889123Y-101925503D01*
X135761890Y-101838569D01*
X135510000Y-101787560D01*
X135000000Y-101787560D01*
X134764683Y-101831838D01*
X134619123Y-101925503D01*
X134491890Y-101838569D01*
X134240000Y-101787560D01*
X133730000Y-101787560D01*
X133494683Y-101831838D01*
X133354846Y-101921821D01*
X133329698Y-101896673D01*
X133096309Y-101800000D01*
X133000750Y-101800000D01*
X132842000Y-101958750D01*
X132842000Y-103308000D01*
X132862000Y-103308000D01*
X132862000Y-103562000D01*
X132842000Y-103562000D01*
X132842000Y-104911250D01*
X133000750Y-105070000D01*
X133096309Y-105070000D01*
X133225000Y-105016694D01*
X133225000Y-105212565D01*
X133176808Y-105260673D01*
X133034162Y-105604201D01*
X133033838Y-105976167D01*
X133175883Y-106319943D01*
X133225000Y-106369146D01*
X133225000Y-107508198D01*
X130907599Y-109825599D01*
X130742852Y-110072161D01*
X130685000Y-110363000D01*
X130685000Y-112140694D01*
X130681890Y-112138569D01*
X130430000Y-112087560D01*
X129920000Y-112087560D01*
X129684683Y-112131838D01*
X129539123Y-112225503D01*
X129411890Y-112138569D01*
X129160000Y-112087560D01*
X128650000Y-112087560D01*
X128414683Y-112131838D01*
X128269123Y-112225503D01*
X128141890Y-112138569D01*
X127890000Y-112087560D01*
X127380000Y-112087560D01*
X127144683Y-112131838D01*
X126928559Y-112270910D01*
X126783569Y-112483110D01*
X126732560Y-112735000D01*
X126732560Y-114735000D01*
X126776838Y-114970317D01*
X126915910Y-115186441D01*
X127128110Y-115331431D01*
X127380000Y-115382440D01*
X127890000Y-115382440D01*
X128125317Y-115338162D01*
X128270877Y-115244497D01*
X128398110Y-115331431D01*
X128650000Y-115382440D01*
X129160000Y-115382440D01*
X129395317Y-115338162D01*
X129540877Y-115244497D01*
X129668110Y-115331431D01*
X129920000Y-115382440D01*
X130430000Y-115382440D01*
X130665317Y-115338162D01*
X130810877Y-115244497D01*
X130938110Y-115331431D01*
X131190000Y-115382440D01*
X131700000Y-115382440D01*
X131935317Y-115338162D01*
X132080877Y-115244497D01*
X132208110Y-115331431D01*
X132460000Y-115382440D01*
X132970000Y-115382440D01*
X133205317Y-115338162D01*
X133350877Y-115244497D01*
X133478110Y-115331431D01*
X133730000Y-115382440D01*
X134240000Y-115382440D01*
X134475317Y-115338162D01*
X134495000Y-115325496D01*
X134495000Y-116332000D01*
X134552852Y-116622839D01*
X134717599Y-116869401D01*
X146274599Y-128426401D01*
X146521161Y-128591148D01*
X146537899Y-128594477D01*
X140098909Y-127324201D01*
X140816655Y-126607707D01*
X141223536Y-125627827D01*
X141224462Y-124566828D01*
X140819291Y-123586239D01*
X140069707Y-122835345D01*
X139089827Y-122428464D01*
X138028828Y-122427538D01*
X137048239Y-122832709D01*
X136297345Y-123582293D01*
X135890464Y-124562173D01*
X135889538Y-125623172D01*
X136281191Y-126571045D01*
X129211778Y-125176399D01*
X124083607Y-117501549D01*
X121929165Y-109092278D01*
X120490732Y-101860786D01*
X121404136Y-89635221D01*
X123002916Y-81597609D01*
X125152538Y-81597609D01*
X125156408Y-81635281D01*
X125382920Y-82063474D01*
X125756053Y-82372390D01*
X126219000Y-82515000D01*
X126619000Y-82515000D01*
X126619000Y-81407000D01*
X125277269Y-81407000D01*
X125152538Y-81597609D01*
X123002916Y-81597609D01*
X123129268Y-80962391D01*
X125152538Y-80962391D01*
X125277269Y-81153000D01*
X126619000Y-81153000D01*
X126619000Y-80045000D01*
X126219000Y-80045000D01*
X125756053Y-80187610D01*
X125382920Y-80496526D01*
X125156408Y-80924719D01*
X125152538Y-80962391D01*
X123129268Y-80962391D01*
X123397676Y-79613019D01*
X125267684Y-76814354D01*
X125440691Y-77073277D01*
X125841354Y-77340991D01*
X126313968Y-77435000D01*
X127178032Y-77435000D01*
X127650646Y-77340991D01*
X128051309Y-77073277D01*
X128126998Y-76960000D01*
X132985002Y-76960000D01*
X133060691Y-77073277D01*
X133461354Y-77340991D01*
X133933968Y-77435000D01*
X134798032Y-77435000D01*
X135270646Y-77340991D01*
X135671309Y-77073277D01*
X135939023Y-76672614D01*
X136033032Y-76200000D01*
X135939023Y-75727386D01*
X135928766Y-75712036D01*
X139125802Y-72515000D01*
X140335000Y-72515000D01*
X140625839Y-72457148D01*
X140872401Y-72292401D01*
X141480000Y-71684802D01*
X141480000Y-74361198D01*
X141480000Y-74361198D01*
G37*
X141480000Y-74361198D02*
X138115198Y-77726000D01*
X131318000Y-77726000D01*
X131027160Y-77783852D01*
X130780599Y-77948599D01*
X128367599Y-80361599D01*
X128202852Y-80608161D01*
X128193365Y-80655856D01*
X128109080Y-80496526D01*
X127735947Y-80187610D01*
X127273000Y-80045000D01*
X126873000Y-80045000D01*
X126873000Y-81153000D01*
X126893000Y-81153000D01*
X126893000Y-81407000D01*
X126873000Y-81407000D01*
X126873000Y-82515000D01*
X127273000Y-82515000D01*
X127735947Y-82372390D01*
X128109080Y-82063474D01*
X128145000Y-81995572D01*
X128145000Y-101840694D01*
X128141890Y-101838569D01*
X127890000Y-101787560D01*
X127380000Y-101787560D01*
X127144683Y-101831838D01*
X126928559Y-101970910D01*
X126783569Y-102183110D01*
X126732560Y-102435000D01*
X126732560Y-104435000D01*
X126776838Y-104670317D01*
X126915910Y-104886441D01*
X127128110Y-105031431D01*
X127380000Y-105082440D01*
X127890000Y-105082440D01*
X128125317Y-105038162D01*
X128270877Y-104944497D01*
X128398110Y-105031431D01*
X128650000Y-105082440D01*
X129160000Y-105082440D01*
X129395317Y-105038162D01*
X129540877Y-104944497D01*
X129668110Y-105031431D01*
X129920000Y-105082440D01*
X130430000Y-105082440D01*
X130665317Y-105038162D01*
X130810877Y-104944497D01*
X130938110Y-105031431D01*
X131190000Y-105082440D01*
X131700000Y-105082440D01*
X131935317Y-105038162D01*
X132075154Y-104948179D01*
X132100302Y-104973327D01*
X132333691Y-105070000D01*
X132429250Y-105070000D01*
X132588000Y-104911250D01*
X132588000Y-103562000D01*
X132568000Y-103562000D01*
X132568000Y-103308000D01*
X132588000Y-103308000D01*
X132588000Y-101958750D01*
X132429250Y-101800000D01*
X132333691Y-101800000D01*
X132100302Y-101896673D01*
X132074577Y-101922398D01*
X131951890Y-101838569D01*
X131700000Y-101787560D01*
X131190000Y-101787560D01*
X130954683Y-101831838D01*
X130935000Y-101844504D01*
X130935000Y-94514090D01*
X143535400Y-94514090D01*
X143535400Y-95218250D01*
X143694150Y-95377000D01*
X144907000Y-95377000D01*
X144907000Y-94164150D01*
X144748250Y-94005400D01*
X144044091Y-94005400D01*
X143810702Y-94102073D01*
X143632073Y-94280701D01*
X143535400Y-94514090D01*
X130935000Y-94514090D01*
X130935000Y-88610213D01*
X138899392Y-88610213D01*
X138968857Y-88852397D01*
X139492302Y-89039144D01*
X140047368Y-89011362D01*
X140431143Y-88852397D01*
X140500608Y-88610213D01*
X139700000Y-87809605D01*
X138899392Y-88610213D01*
X130935000Y-88610213D01*
X130935000Y-87422302D01*
X138290856Y-87422302D01*
X138318638Y-87977368D01*
X138477603Y-88361143D01*
X138719787Y-88430608D01*
X139520395Y-87630000D01*
X138719787Y-86829392D01*
X138477603Y-86898857D01*
X138290856Y-87422302D01*
X130935000Y-87422302D01*
X130935000Y-86649787D01*
X138899392Y-86649787D01*
X139700000Y-87450395D01*
X140500608Y-86649787D01*
X140431143Y-86407603D01*
X139907698Y-86220856D01*
X139352632Y-86248638D01*
X138968857Y-86407603D01*
X138899392Y-86649787D01*
X130935000Y-86649787D01*
X130935000Y-81975802D01*
X131313193Y-81597609D01*
X132772538Y-81597609D01*
X132776408Y-81635281D01*
X133002920Y-82063474D01*
X133376053Y-82372390D01*
X133839000Y-82515000D01*
X134239000Y-82515000D01*
X134239000Y-81407000D01*
X134493000Y-81407000D01*
X134493000Y-82515000D01*
X134893000Y-82515000D01*
X135355947Y-82372390D01*
X135729080Y-82063474D01*
X135955592Y-81635281D01*
X135959462Y-81597609D01*
X135834731Y-81407000D01*
X134493000Y-81407000D01*
X134239000Y-81407000D01*
X132897269Y-81407000D01*
X132772538Y-81597609D01*
X131313193Y-81597609D01*
X132648802Y-80262000D01*
X133286199Y-80262000D01*
X133002920Y-80496526D01*
X132776408Y-80924719D01*
X132772538Y-80962391D01*
X132897269Y-81153000D01*
X134239000Y-81153000D01*
X134239000Y-81133000D01*
X134493000Y-81133000D01*
X134493000Y-81153000D01*
X135834731Y-81153000D01*
X135959462Y-80962391D01*
X135955592Y-80924719D01*
X135729080Y-80496526D01*
X135445801Y-80262000D01*
X140335000Y-80262000D01*
X140625839Y-80204148D01*
X140872401Y-80039401D01*
X145290000Y-75621802D01*
X145290000Y-86329121D01*
X145059100Y-86233243D01*
X144503339Y-86232758D01*
X143989697Y-86444990D01*
X143596371Y-86837630D01*
X143510051Y-87045512D01*
X143425010Y-86839697D01*
X143032370Y-86446371D01*
X142519100Y-86233243D01*
X141963339Y-86232758D01*
X141449697Y-86444990D01*
X141056371Y-86837630D01*
X140976605Y-87029727D01*
X140922397Y-86898857D01*
X140680213Y-86829392D01*
X139879605Y-87630000D01*
X140680213Y-88430608D01*
X140922397Y-88361143D01*
X140972509Y-88220682D01*
X141054990Y-88420303D01*
X141447630Y-88813629D01*
X141960900Y-89026757D01*
X142516661Y-89027242D01*
X143030303Y-88815010D01*
X143423629Y-88422370D01*
X143509949Y-88214488D01*
X143594990Y-88420303D01*
X143987630Y-88813629D01*
X144500900Y-89026757D01*
X145056661Y-89027242D01*
X145290000Y-88930829D01*
X145290000Y-89281000D01*
X145347852Y-89571839D01*
X145512599Y-89818401D01*
X145544000Y-89849802D01*
X145544000Y-94005400D01*
X145319750Y-94005400D01*
X145161000Y-94164150D01*
X145161000Y-95377000D01*
X145181000Y-95377000D01*
X145181000Y-95631000D01*
X145161000Y-95631000D01*
X145161000Y-95651000D01*
X144907000Y-95651000D01*
X144907000Y-95631000D01*
X143694150Y-95631000D01*
X143535400Y-95789750D01*
X143535400Y-96493910D01*
X143632073Y-96727299D01*
X143810702Y-96905927D01*
X143966023Y-96970263D01*
X143944971Y-96984330D01*
X143620115Y-97470511D01*
X143506041Y-98044000D01*
X143620115Y-98617489D01*
X143944971Y-99103670D01*
X144259752Y-99314000D01*
X143944971Y-99524330D01*
X143620115Y-100010511D01*
X143506041Y-100584000D01*
X143620115Y-101157489D01*
X143944971Y-101643670D01*
X144160317Y-101787560D01*
X143890000Y-101787560D01*
X143654683Y-101831838D01*
X143509123Y-101925503D01*
X143381890Y-101838569D01*
X143130000Y-101787560D01*
X142620000Y-101787560D01*
X142384683Y-101831838D01*
X142239123Y-101925503D01*
X142111890Y-101838569D01*
X141860000Y-101787560D01*
X141350000Y-101787560D01*
X141114683Y-101831838D01*
X140969123Y-101925503D01*
X140841890Y-101838569D01*
X140590000Y-101787560D01*
X140080000Y-101787560D01*
X139844683Y-101831838D01*
X139699123Y-101925503D01*
X139571890Y-101838569D01*
X139320000Y-101787560D01*
X138810000Y-101787560D01*
X138574683Y-101831838D01*
X138429123Y-101925503D01*
X138301890Y-101838569D01*
X138050000Y-101787560D01*
X137540000Y-101787560D01*
X137304683Y-101831838D01*
X137159123Y-101925503D01*
X137031890Y-101838569D01*
X136780000Y-101787560D01*
X136270000Y-101787560D01*
X136034683Y-101831838D01*
X135889123Y-101925503D01*
X135761890Y-101838569D01*
X135510000Y-101787560D01*
X135000000Y-101787560D01*
X134764683Y-101831838D01*
X134619123Y-101925503D01*
X134491890Y-101838569D01*
X134240000Y-101787560D01*
X133730000Y-101787560D01*
X133494683Y-101831838D01*
X133354846Y-101921821D01*
X133329698Y-101896673D01*
X133096309Y-101800000D01*
X133000750Y-101800000D01*
X132842000Y-101958750D01*
X132842000Y-103308000D01*
X132862000Y-103308000D01*
X132862000Y-103562000D01*
X132842000Y-103562000D01*
X132842000Y-104911250D01*
X133000750Y-105070000D01*
X133096309Y-105070000D01*
X133225000Y-105016694D01*
X133225000Y-105212565D01*
X133176808Y-105260673D01*
X133034162Y-105604201D01*
X133033838Y-105976167D01*
X133175883Y-106319943D01*
X133225000Y-106369146D01*
X133225000Y-107508198D01*
X130907599Y-109825599D01*
X130742852Y-110072161D01*
X130685000Y-110363000D01*
X130685000Y-112140694D01*
X130681890Y-112138569D01*
X130430000Y-112087560D01*
X129920000Y-112087560D01*
X129684683Y-112131838D01*
X129539123Y-112225503D01*
X129411890Y-112138569D01*
X129160000Y-112087560D01*
X128650000Y-112087560D01*
X128414683Y-112131838D01*
X128269123Y-112225503D01*
X128141890Y-112138569D01*
X127890000Y-112087560D01*
X127380000Y-112087560D01*
X127144683Y-112131838D01*
X126928559Y-112270910D01*
X126783569Y-112483110D01*
X126732560Y-112735000D01*
X126732560Y-114735000D01*
X126776838Y-114970317D01*
X126915910Y-115186441D01*
X127128110Y-115331431D01*
X127380000Y-115382440D01*
X127890000Y-115382440D01*
X128125317Y-115338162D01*
X128270877Y-115244497D01*
X128398110Y-115331431D01*
X128650000Y-115382440D01*
X129160000Y-115382440D01*
X129395317Y-115338162D01*
X129540877Y-115244497D01*
X129668110Y-115331431D01*
X129920000Y-115382440D01*
X130430000Y-115382440D01*
X130665317Y-115338162D01*
X130810877Y-115244497D01*
X130938110Y-115331431D01*
X131190000Y-115382440D01*
X131700000Y-115382440D01*
X131935317Y-115338162D01*
X132080877Y-115244497D01*
X132208110Y-115331431D01*
X132460000Y-115382440D01*
X132970000Y-115382440D01*
X133205317Y-115338162D01*
X133350877Y-115244497D01*
X133478110Y-115331431D01*
X133730000Y-115382440D01*
X134240000Y-115382440D01*
X134475317Y-115338162D01*
X134495000Y-115325496D01*
X134495000Y-116332000D01*
X134552852Y-116622839D01*
X134717599Y-116869401D01*
X146274599Y-128426401D01*
X146521161Y-128591148D01*
X146537899Y-128594477D01*
X140098909Y-127324201D01*
X140816655Y-126607707D01*
X141223536Y-125627827D01*
X141224462Y-124566828D01*
X140819291Y-123586239D01*
X140069707Y-122835345D01*
X139089827Y-122428464D01*
X138028828Y-122427538D01*
X137048239Y-122832709D01*
X136297345Y-123582293D01*
X135890464Y-124562173D01*
X135889538Y-125623172D01*
X136281191Y-126571045D01*
X129211778Y-125176399D01*
X124083607Y-117501549D01*
X121929165Y-109092278D01*
X120490732Y-101860786D01*
X121404136Y-89635221D01*
X123002916Y-81597609D01*
X125152538Y-81597609D01*
X125156408Y-81635281D01*
X125382920Y-82063474D01*
X125756053Y-82372390D01*
X126219000Y-82515000D01*
X126619000Y-82515000D01*
X126619000Y-81407000D01*
X125277269Y-81407000D01*
X125152538Y-81597609D01*
X123002916Y-81597609D01*
X123129268Y-80962391D01*
X125152538Y-80962391D01*
X125277269Y-81153000D01*
X126619000Y-81153000D01*
X126619000Y-80045000D01*
X126219000Y-80045000D01*
X125756053Y-80187610D01*
X125382920Y-80496526D01*
X125156408Y-80924719D01*
X125152538Y-80962391D01*
X123129268Y-80962391D01*
X123397676Y-79613019D01*
X125267684Y-76814354D01*
X125440691Y-77073277D01*
X125841354Y-77340991D01*
X126313968Y-77435000D01*
X127178032Y-77435000D01*
X127650646Y-77340991D01*
X128051309Y-77073277D01*
X128126998Y-76960000D01*
X132985002Y-76960000D01*
X133060691Y-77073277D01*
X133461354Y-77340991D01*
X133933968Y-77435000D01*
X134798032Y-77435000D01*
X135270646Y-77340991D01*
X135671309Y-77073277D01*
X135939023Y-76672614D01*
X136033032Y-76200000D01*
X135939023Y-75727386D01*
X135928766Y-75712036D01*
X139125802Y-72515000D01*
X140335000Y-72515000D01*
X140625839Y-72457148D01*
X140872401Y-72292401D01*
X141480000Y-71684802D01*
X141480000Y-74361198D01*
G36*
X212390324Y-79613019D02*
X216056474Y-98044000D01*
X212492410Y-115961759D01*
X212330207Y-116564953D01*
X204337343Y-128527119D01*
X202817000Y-128533300D01*
X202817000Y-104956463D01*
X202849192Y-104924327D01*
X202991838Y-104580799D01*
X202992162Y-104208833D01*
X202850117Y-103865057D01*
X202587327Y-103601808D01*
X202243799Y-103459162D01*
X201871833Y-103458838D01*
X201528057Y-103600883D01*
X201264808Y-103863673D01*
X201122162Y-104207201D01*
X201121838Y-104579167D01*
X201263883Y-104922943D01*
X201297000Y-104956118D01*
X201297000Y-128539479D01*
X190116876Y-128584926D01*
X194558772Y-124143030D01*
X194437464Y-124435173D01*
X194436538Y-125496172D01*
X194841709Y-126476761D01*
X195591293Y-127227655D01*
X196571173Y-127634536D01*
X197632172Y-127635462D01*
X198612761Y-127230291D01*
X199363655Y-126480707D01*
X199770536Y-125500827D01*
X199771462Y-124439828D01*
X199366291Y-123459239D01*
X198616707Y-122708345D01*
X197636827Y-122301464D01*
X196575828Y-122300538D01*
X196278348Y-122423454D01*
X197514401Y-121187401D01*
X197679148Y-120940839D01*
X197737000Y-120650000D01*
X197737000Y-113919000D01*
X197679148Y-113628161D01*
X197514401Y-113381599D01*
X196752401Y-112619599D01*
X196505839Y-112454852D01*
X196215000Y-112397000D01*
X187375111Y-112397000D01*
X187609192Y-112163327D01*
X187751838Y-111819799D01*
X187752162Y-111447833D01*
X187610117Y-111104057D01*
X187347327Y-110840808D01*
X187003799Y-110698162D01*
X186631833Y-110697838D01*
X186288057Y-110839883D01*
X186254882Y-110873000D01*
X176844802Y-110873000D01*
X175563095Y-109591293D01*
X175564800Y-109591632D01*
X176037414Y-109497623D01*
X176438077Y-109229909D01*
X176705791Y-108829246D01*
X176799800Y-108356632D01*
X176799800Y-107694402D01*
X176869800Y-107764402D01*
X176869800Y-108356632D01*
X176963809Y-108829246D01*
X177231523Y-109229909D01*
X177632186Y-109497623D01*
X178104800Y-109591632D01*
X178577414Y-109497623D01*
X178978077Y-109229909D01*
X179245791Y-108829246D01*
X179339800Y-108356632D01*
X179339800Y-107492568D01*
X179245791Y-107019954D01*
X178978077Y-106619291D01*
X178577414Y-106351577D01*
X178104800Y-106257568D01*
X177632186Y-106351577D01*
X177616836Y-106361834D01*
X175746601Y-104491599D01*
X175500039Y-104326852D01*
X175209200Y-104269000D01*
X162374268Y-104269000D01*
X162394431Y-104239490D01*
X162445440Y-103987600D01*
X162445440Y-102260400D01*
X162401162Y-102025083D01*
X162262090Y-101808959D01*
X162049890Y-101663969D01*
X162008561Y-101655600D01*
X162026415Y-101643670D01*
X162351271Y-101157489D01*
X162465345Y-100584000D01*
X162351271Y-100010511D01*
X162026415Y-99524330D01*
X161716931Y-99317539D01*
X162132732Y-98946036D01*
X162386709Y-98418791D01*
X162389358Y-98403026D01*
X162268217Y-98171000D01*
X160909000Y-98171000D01*
X160909000Y-98191000D01*
X160655000Y-98191000D01*
X160655000Y-98171000D01*
X159295783Y-98171000D01*
X159174642Y-98403026D01*
X159177291Y-98418791D01*
X159431268Y-98946036D01*
X159847069Y-99317539D01*
X159537585Y-99524330D01*
X159212729Y-100010511D01*
X159098655Y-100584000D01*
X159212729Y-101157489D01*
X159537585Y-101643670D01*
X159551913Y-101653243D01*
X159530683Y-101657238D01*
X159314559Y-101796310D01*
X159169569Y-102008510D01*
X159118560Y-102260400D01*
X159118560Y-103987600D01*
X159162838Y-104222917D01*
X159192492Y-104269000D01*
X155747888Y-104269000D01*
X155748162Y-103954833D01*
X155606117Y-103611057D01*
X155343327Y-103347808D01*
X154999799Y-103205162D01*
X154952923Y-103205121D01*
X150493000Y-98745198D01*
X150493000Y-95437802D01*
X151667401Y-94263401D01*
X151832148Y-94016840D01*
X151890000Y-93726000D01*
X151890000Y-92964000D01*
X159098655Y-92964000D01*
X159212729Y-93537489D01*
X159537585Y-94023670D01*
X159852366Y-94234000D01*
X159537585Y-94444330D01*
X159212729Y-94930511D01*
X159098655Y-95504000D01*
X159212729Y-96077489D01*
X159537585Y-96563670D01*
X159847069Y-96770461D01*
X159431268Y-97141964D01*
X159177291Y-97669209D01*
X159174642Y-97684974D01*
X159295783Y-97917000D01*
X160655000Y-97917000D01*
X160655000Y-97897000D01*
X160909000Y-97897000D01*
X160909000Y-97917000D01*
X162268217Y-97917000D01*
X162389358Y-97684974D01*
X162386709Y-97669209D01*
X162132732Y-97141964D01*
X161716931Y-96770461D01*
X162026415Y-96563670D01*
X162351271Y-96077489D01*
X162465345Y-95504000D01*
X162351271Y-94930511D01*
X162026415Y-94444330D01*
X161711634Y-94234000D01*
X162026415Y-94023670D01*
X162351271Y-93537489D01*
X162465345Y-92964000D01*
X162351271Y-92390511D01*
X162026415Y-91904330D01*
X161540234Y-91579474D01*
X160966745Y-91465400D01*
X160597255Y-91465400D01*
X160023766Y-91579474D01*
X159537585Y-91904330D01*
X159212729Y-92390511D01*
X159098655Y-92964000D01*
X151890000Y-92964000D01*
X151890000Y-88930879D01*
X152120900Y-89026757D01*
X152676661Y-89027242D01*
X152709055Y-89013857D01*
X154275599Y-90580401D01*
X154522160Y-90745148D01*
X154813000Y-90803000D01*
X169357198Y-90803000D01*
X169371878Y-90817680D01*
X169371838Y-90863167D01*
X169513883Y-91206943D01*
X169776673Y-91470192D01*
X170120201Y-91612838D01*
X170492167Y-91613162D01*
X170835943Y-91471117D01*
X171099192Y-91208327D01*
X171154156Y-91075958D01*
X178405599Y-98327401D01*
X178652160Y-98492148D01*
X178943000Y-98550000D01*
X188194738Y-98550000D01*
X188394971Y-98849670D01*
X188709752Y-99060000D01*
X188394971Y-99270330D01*
X188194738Y-99570000D01*
X186817000Y-99570000D01*
X186526161Y-99627852D01*
X186279599Y-99792599D01*
X180107399Y-105964799D01*
X179942652Y-106211361D01*
X179884800Y-106502200D01*
X179884800Y-106543602D01*
X179771523Y-106619291D01*
X179503809Y-107019954D01*
X179409800Y-107492568D01*
X179409800Y-108356632D01*
X179503809Y-108829246D01*
X179771523Y-109229909D01*
X180172186Y-109497623D01*
X180644800Y-109591632D01*
X181117414Y-109497623D01*
X181518077Y-109229909D01*
X181785791Y-108829246D01*
X181879800Y-108356632D01*
X181879800Y-107492568D01*
X181785791Y-107019954D01*
X181551896Y-106669906D01*
X187131802Y-101090000D01*
X188194738Y-101090000D01*
X188394971Y-101389670D01*
X188881152Y-101714526D01*
X188953918Y-101729000D01*
X187579000Y-101729000D01*
X187288160Y-101786852D01*
X187041599Y-101951599D01*
X182647399Y-106345799D01*
X182588170Y-106434442D01*
X182311523Y-106619291D01*
X182043809Y-107019954D01*
X181949800Y-107492568D01*
X181949800Y-108356632D01*
X182043809Y-108829246D01*
X182311523Y-109229909D01*
X182712186Y-109497623D01*
X183184800Y-109591632D01*
X183657414Y-109497623D01*
X184058077Y-109229909D01*
X184325791Y-108829246D01*
X184419800Y-108356632D01*
X184419800Y-107492568D01*
X184489800Y-107492568D01*
X184489800Y-108356632D01*
X184583809Y-108829246D01*
X184851523Y-109229909D01*
X185252186Y-109497623D01*
X185724800Y-109591632D01*
X186197414Y-109497623D01*
X186598077Y-109229909D01*
X186865791Y-108829246D01*
X186959800Y-108356632D01*
X186959800Y-107492568D01*
X186865791Y-107019954D01*
X186598077Y-106619291D01*
X186197414Y-106351577D01*
X185724800Y-106257568D01*
X185252186Y-106351577D01*
X184851523Y-106619291D01*
X184583809Y-107019954D01*
X184489800Y-107492568D01*
X184419800Y-107492568D01*
X184325791Y-107019954D01*
X184244504Y-106898298D01*
X187893802Y-103249000D01*
X189865000Y-103249000D01*
X190155839Y-103191148D01*
X190402401Y-103026401D01*
X191665644Y-101763158D01*
X191994641Y-101828600D01*
X192053359Y-101828600D01*
X192626848Y-101714526D01*
X193113029Y-101389670D01*
X193437885Y-100903489D01*
X193551959Y-100330000D01*
X193437885Y-99756511D01*
X193113029Y-99270330D01*
X192798248Y-99060000D01*
X193113029Y-98849670D01*
X193437885Y-98363489D01*
X193475272Y-98175530D01*
X195332454Y-96318348D01*
X195436115Y-96839489D01*
X195760971Y-97325670D01*
X196084228Y-97541664D01*
X195961510Y-97599179D01*
X195567312Y-98031053D01*
X195395042Y-98446974D01*
X195516183Y-98679000D01*
X196723000Y-98679000D01*
X196723000Y-98659000D01*
X196977000Y-98659000D01*
X196977000Y-98679000D01*
X196997000Y-98679000D01*
X196997000Y-98933000D01*
X196977000Y-98933000D01*
X196977000Y-98953000D01*
X196723000Y-98953000D01*
X196723000Y-98933000D01*
X195516183Y-98933000D01*
X195395042Y-99165026D01*
X195567312Y-99580947D01*
X195961510Y-100012821D01*
X196084228Y-100070336D01*
X195760971Y-100286330D01*
X195436115Y-100772511D01*
X195322041Y-101346000D01*
X195436115Y-101919489D01*
X195760971Y-102405670D01*
X196247152Y-102730526D01*
X196820641Y-102844600D01*
X196879359Y-102844600D01*
X197452848Y-102730526D01*
X197918442Y-102419426D01*
X197923238Y-102444917D01*
X198062310Y-102661041D01*
X198274510Y-102806031D01*
X198526400Y-102857040D01*
X200253600Y-102857040D01*
X200488917Y-102812762D01*
X200705041Y-102673690D01*
X200850031Y-102461490D01*
X200901040Y-102209600D01*
X200901040Y-100909762D01*
X202594401Y-99216401D01*
X202759148Y-98969839D01*
X202817000Y-98679000D01*
X202817000Y-91948000D01*
X202759148Y-91657161D01*
X202594401Y-91410599D01*
X199927401Y-88743599D01*
X199680839Y-88578852D01*
X199390000Y-88521000D01*
X193735802Y-88521000D01*
X189990000Y-84775198D01*
X189990000Y-82932946D01*
X191180017Y-82932946D01*
X191448812Y-83518379D01*
X191921182Y-83956385D01*
X192403056Y-84155975D01*
X192659000Y-84036836D01*
X192659000Y-82677000D01*
X191298633Y-82677000D01*
X191180017Y-82932946D01*
X189990000Y-82932946D01*
X189990000Y-82167054D01*
X191180017Y-82167054D01*
X191298633Y-82423000D01*
X192659000Y-82423000D01*
X192659000Y-81063164D01*
X192403056Y-80944025D01*
X191921182Y-81143615D01*
X191448812Y-81581621D01*
X191180017Y-82167054D01*
X189990000Y-82167054D01*
X189990000Y-81915000D01*
X189932148Y-81624161D01*
X189767401Y-81377599D01*
X185349802Y-76960000D01*
X198089121Y-76960000D01*
X197993243Y-77190900D01*
X197992758Y-77746661D01*
X198204990Y-78260303D01*
X198597630Y-78653629D01*
X198805512Y-78739949D01*
X198599697Y-78824990D01*
X198206371Y-79217630D01*
X197993243Y-79730900D01*
X197992758Y-80286661D01*
X198204990Y-80800303D01*
X198597630Y-81193629D01*
X198805512Y-81279949D01*
X198599697Y-81364990D01*
X198206371Y-81757630D01*
X198192930Y-81790000D01*
X196989440Y-81790000D01*
X196989440Y-81534000D01*
X196945162Y-81298683D01*
X196806090Y-81082559D01*
X196593890Y-80937569D01*
X196342000Y-80886560D01*
X194310000Y-80886560D01*
X194074683Y-80930838D01*
X193858559Y-81069910D01*
X193747160Y-81232948D01*
X193650818Y-81143615D01*
X193168944Y-80944025D01*
X192913000Y-81063164D01*
X192913000Y-82423000D01*
X192933000Y-82423000D01*
X192933000Y-82677000D01*
X192913000Y-82677000D01*
X192913000Y-84036836D01*
X193168944Y-84155975D01*
X193650818Y-83956385D01*
X193748398Y-83865903D01*
X193845910Y-84017441D01*
X194058110Y-84162431D01*
X194310000Y-84213440D01*
X196342000Y-84213440D01*
X196577317Y-84169162D01*
X196793441Y-84030090D01*
X196938431Y-83817890D01*
X196989440Y-83566000D01*
X196989440Y-83310000D01*
X198192469Y-83310000D01*
X198204990Y-83340303D01*
X198597630Y-83733629D01*
X199110900Y-83946757D01*
X199666661Y-83947242D01*
X200180303Y-83735010D01*
X200573629Y-83342370D01*
X200786757Y-82829100D01*
X200787242Y-82273339D01*
X200575010Y-81759697D01*
X200182370Y-81366371D01*
X199974488Y-81280051D01*
X200180303Y-81195010D01*
X200573629Y-80802370D01*
X200786757Y-80289100D01*
X200787242Y-79733339D01*
X200575010Y-79219697D01*
X200182370Y-78826371D01*
X199974488Y-78740051D01*
X200180303Y-78655010D01*
X200573629Y-78262370D01*
X200786757Y-77749100D01*
X200787242Y-77193339D01*
X200690829Y-76960000D01*
X202946000Y-76960000D01*
X203236839Y-76902148D01*
X203483401Y-76737401D01*
X204161401Y-76059401D01*
X204326148Y-75812839D01*
X204384000Y-75522000D01*
X204384000Y-74523162D01*
X204389317Y-74522162D01*
X204605441Y-74383090D01*
X204725233Y-74207768D01*
X204829910Y-74370441D01*
X205042110Y-74515431D01*
X205294000Y-74566440D01*
X206354000Y-74566440D01*
X206589317Y-74522162D01*
X206805441Y-74383090D01*
X206950431Y-74170890D01*
X207001440Y-73919000D01*
X207001440Y-73269000D01*
X206957162Y-73033683D01*
X206818090Y-72817559D01*
X206674935Y-72719745D01*
X206675068Y-72566983D01*
X206805441Y-72483090D01*
X206950431Y-72270890D01*
X207001440Y-72019000D01*
X207001440Y-71547984D01*
X212390324Y-79613019D01*
X212390324Y-79613019D01*
G37*
X212390324Y-79613019D02*
X216056474Y-98044000D01*
X212492410Y-115961759D01*
X212330207Y-116564953D01*
X204337343Y-128527119D01*
X202817000Y-128533300D01*
X202817000Y-104956463D01*
X202849192Y-104924327D01*
X202991838Y-104580799D01*
X202992162Y-104208833D01*
X202850117Y-103865057D01*
X202587327Y-103601808D01*
X202243799Y-103459162D01*
X201871833Y-103458838D01*
X201528057Y-103600883D01*
X201264808Y-103863673D01*
X201122162Y-104207201D01*
X201121838Y-104579167D01*
X201263883Y-104922943D01*
X201297000Y-104956118D01*
X201297000Y-128539479D01*
X190116876Y-128584926D01*
X194558772Y-124143030D01*
X194437464Y-124435173D01*
X194436538Y-125496172D01*
X194841709Y-126476761D01*
X195591293Y-127227655D01*
X196571173Y-127634536D01*
X197632172Y-127635462D01*
X198612761Y-127230291D01*
X199363655Y-126480707D01*
X199770536Y-125500827D01*
X199771462Y-124439828D01*
X199366291Y-123459239D01*
X198616707Y-122708345D01*
X197636827Y-122301464D01*
X196575828Y-122300538D01*
X196278348Y-122423454D01*
X197514401Y-121187401D01*
X197679148Y-120940839D01*
X197737000Y-120650000D01*
X197737000Y-113919000D01*
X197679148Y-113628161D01*
X197514401Y-113381599D01*
X196752401Y-112619599D01*
X196505839Y-112454852D01*
X196215000Y-112397000D01*
X187375111Y-112397000D01*
X187609192Y-112163327D01*
X187751838Y-111819799D01*
X187752162Y-111447833D01*
X187610117Y-111104057D01*
X187347327Y-110840808D01*
X187003799Y-110698162D01*
X186631833Y-110697838D01*
X186288057Y-110839883D01*
X186254882Y-110873000D01*
X176844802Y-110873000D01*
X175563095Y-109591293D01*
X175564800Y-109591632D01*
X176037414Y-109497623D01*
X176438077Y-109229909D01*
X176705791Y-108829246D01*
X176799800Y-108356632D01*
X176799800Y-107694402D01*
X176869800Y-107764402D01*
X176869800Y-108356632D01*
X176963809Y-108829246D01*
X177231523Y-109229909D01*
X177632186Y-109497623D01*
X178104800Y-109591632D01*
X178577414Y-109497623D01*
X178978077Y-109229909D01*
X179245791Y-108829246D01*
X179339800Y-108356632D01*
X179339800Y-107492568D01*
X179245791Y-107019954D01*
X178978077Y-106619291D01*
X178577414Y-106351577D01*
X178104800Y-106257568D01*
X177632186Y-106351577D01*
X177616836Y-106361834D01*
X175746601Y-104491599D01*
X175500039Y-104326852D01*
X175209200Y-104269000D01*
X162374268Y-104269000D01*
X162394431Y-104239490D01*
X162445440Y-103987600D01*
X162445440Y-102260400D01*
X162401162Y-102025083D01*
X162262090Y-101808959D01*
X162049890Y-101663969D01*
X162008561Y-101655600D01*
X162026415Y-101643670D01*
X162351271Y-101157489D01*
X162465345Y-100584000D01*
X162351271Y-100010511D01*
X162026415Y-99524330D01*
X161716931Y-99317539D01*
X162132732Y-98946036D01*
X162386709Y-98418791D01*
X162389358Y-98403026D01*
X162268217Y-98171000D01*
X160909000Y-98171000D01*
X160909000Y-98191000D01*
X160655000Y-98191000D01*
X160655000Y-98171000D01*
X159295783Y-98171000D01*
X159174642Y-98403026D01*
X159177291Y-98418791D01*
X159431268Y-98946036D01*
X159847069Y-99317539D01*
X159537585Y-99524330D01*
X159212729Y-100010511D01*
X159098655Y-100584000D01*
X159212729Y-101157489D01*
X159537585Y-101643670D01*
X159551913Y-101653243D01*
X159530683Y-101657238D01*
X159314559Y-101796310D01*
X159169569Y-102008510D01*
X159118560Y-102260400D01*
X159118560Y-103987600D01*
X159162838Y-104222917D01*
X159192492Y-104269000D01*
X155747888Y-104269000D01*
X155748162Y-103954833D01*
X155606117Y-103611057D01*
X155343327Y-103347808D01*
X154999799Y-103205162D01*
X154952923Y-103205121D01*
X150493000Y-98745198D01*
X150493000Y-95437802D01*
X151667401Y-94263401D01*
X151832148Y-94016840D01*
X151890000Y-93726000D01*
X151890000Y-92964000D01*
X159098655Y-92964000D01*
X159212729Y-93537489D01*
X159537585Y-94023670D01*
X159852366Y-94234000D01*
X159537585Y-94444330D01*
X159212729Y-94930511D01*
X159098655Y-95504000D01*
X159212729Y-96077489D01*
X159537585Y-96563670D01*
X159847069Y-96770461D01*
X159431268Y-97141964D01*
X159177291Y-97669209D01*
X159174642Y-97684974D01*
X159295783Y-97917000D01*
X160655000Y-97917000D01*
X160655000Y-97897000D01*
X160909000Y-97897000D01*
X160909000Y-97917000D01*
X162268217Y-97917000D01*
X162389358Y-97684974D01*
X162386709Y-97669209D01*
X162132732Y-97141964D01*
X161716931Y-96770461D01*
X162026415Y-96563670D01*
X162351271Y-96077489D01*
X162465345Y-95504000D01*
X162351271Y-94930511D01*
X162026415Y-94444330D01*
X161711634Y-94234000D01*
X162026415Y-94023670D01*
X162351271Y-93537489D01*
X162465345Y-92964000D01*
X162351271Y-92390511D01*
X162026415Y-91904330D01*
X161540234Y-91579474D01*
X160966745Y-91465400D01*
X160597255Y-91465400D01*
X160023766Y-91579474D01*
X159537585Y-91904330D01*
X159212729Y-92390511D01*
X159098655Y-92964000D01*
X151890000Y-92964000D01*
X151890000Y-88930879D01*
X152120900Y-89026757D01*
X152676661Y-89027242D01*
X152709055Y-89013857D01*
X154275599Y-90580401D01*
X154522160Y-90745148D01*
X154813000Y-90803000D01*
X169357198Y-90803000D01*
X169371878Y-90817680D01*
X169371838Y-90863167D01*
X169513883Y-91206943D01*
X169776673Y-91470192D01*
X170120201Y-91612838D01*
X170492167Y-91613162D01*
X170835943Y-91471117D01*
X171099192Y-91208327D01*
X171154156Y-91075958D01*
X178405599Y-98327401D01*
X178652160Y-98492148D01*
X178943000Y-98550000D01*
X188194738Y-98550000D01*
X188394971Y-98849670D01*
X188709752Y-99060000D01*
X188394971Y-99270330D01*
X188194738Y-99570000D01*
X186817000Y-99570000D01*
X186526161Y-99627852D01*
X186279599Y-99792599D01*
X180107399Y-105964799D01*
X179942652Y-106211361D01*
X179884800Y-106502200D01*
X179884800Y-106543602D01*
X179771523Y-106619291D01*
X179503809Y-107019954D01*
X179409800Y-107492568D01*
X179409800Y-108356632D01*
X179503809Y-108829246D01*
X179771523Y-109229909D01*
X180172186Y-109497623D01*
X180644800Y-109591632D01*
X181117414Y-109497623D01*
X181518077Y-109229909D01*
X181785791Y-108829246D01*
X181879800Y-108356632D01*
X181879800Y-107492568D01*
X181785791Y-107019954D01*
X181551896Y-106669906D01*
X187131802Y-101090000D01*
X188194738Y-101090000D01*
X188394971Y-101389670D01*
X188881152Y-101714526D01*
X188953918Y-101729000D01*
X187579000Y-101729000D01*
X187288160Y-101786852D01*
X187041599Y-101951599D01*
X182647399Y-106345799D01*
X182588170Y-106434442D01*
X182311523Y-106619291D01*
X182043809Y-107019954D01*
X181949800Y-107492568D01*
X181949800Y-108356632D01*
X182043809Y-108829246D01*
X182311523Y-109229909D01*
X182712186Y-109497623D01*
X183184800Y-109591632D01*
X183657414Y-109497623D01*
X184058077Y-109229909D01*
X184325791Y-108829246D01*
X184419800Y-108356632D01*
X184419800Y-107492568D01*
X184489800Y-107492568D01*
X184489800Y-108356632D01*
X184583809Y-108829246D01*
X184851523Y-109229909D01*
X185252186Y-109497623D01*
X185724800Y-109591632D01*
X186197414Y-109497623D01*
X186598077Y-109229909D01*
X186865791Y-108829246D01*
X186959800Y-108356632D01*
X186959800Y-107492568D01*
X186865791Y-107019954D01*
X186598077Y-106619291D01*
X186197414Y-106351577D01*
X185724800Y-106257568D01*
X185252186Y-106351577D01*
X184851523Y-106619291D01*
X184583809Y-107019954D01*
X184489800Y-107492568D01*
X184419800Y-107492568D01*
X184325791Y-107019954D01*
X184244504Y-106898298D01*
X187893802Y-103249000D01*
X189865000Y-103249000D01*
X190155839Y-103191148D01*
X190402401Y-103026401D01*
X191665644Y-101763158D01*
X191994641Y-101828600D01*
X192053359Y-101828600D01*
X192626848Y-101714526D01*
X193113029Y-101389670D01*
X193437885Y-100903489D01*
X193551959Y-100330000D01*
X193437885Y-99756511D01*
X193113029Y-99270330D01*
X192798248Y-99060000D01*
X193113029Y-98849670D01*
X193437885Y-98363489D01*
X193475272Y-98175530D01*
X195332454Y-96318348D01*
X195436115Y-96839489D01*
X195760971Y-97325670D01*
X196084228Y-97541664D01*
X195961510Y-97599179D01*
X195567312Y-98031053D01*
X195395042Y-98446974D01*
X195516183Y-98679000D01*
X196723000Y-98679000D01*
X196723000Y-98659000D01*
X196977000Y-98659000D01*
X196977000Y-98679000D01*
X196997000Y-98679000D01*
X196997000Y-98933000D01*
X196977000Y-98933000D01*
X196977000Y-98953000D01*
X196723000Y-98953000D01*
X196723000Y-98933000D01*
X195516183Y-98933000D01*
X195395042Y-99165026D01*
X195567312Y-99580947D01*
X195961510Y-100012821D01*
X196084228Y-100070336D01*
X195760971Y-100286330D01*
X195436115Y-100772511D01*
X195322041Y-101346000D01*
X195436115Y-101919489D01*
X195760971Y-102405670D01*
X196247152Y-102730526D01*
X196820641Y-102844600D01*
X196879359Y-102844600D01*
X197452848Y-102730526D01*
X197918442Y-102419426D01*
X197923238Y-102444917D01*
X198062310Y-102661041D01*
X198274510Y-102806031D01*
X198526400Y-102857040D01*
X200253600Y-102857040D01*
X200488917Y-102812762D01*
X200705041Y-102673690D01*
X200850031Y-102461490D01*
X200901040Y-102209600D01*
X200901040Y-100909762D01*
X202594401Y-99216401D01*
X202759148Y-98969839D01*
X202817000Y-98679000D01*
X202817000Y-91948000D01*
X202759148Y-91657161D01*
X202594401Y-91410599D01*
X199927401Y-88743599D01*
X199680839Y-88578852D01*
X199390000Y-88521000D01*
X193735802Y-88521000D01*
X189990000Y-84775198D01*
X189990000Y-82932946D01*
X191180017Y-82932946D01*
X191448812Y-83518379D01*
X191921182Y-83956385D01*
X192403056Y-84155975D01*
X192659000Y-84036836D01*
X192659000Y-82677000D01*
X191298633Y-82677000D01*
X191180017Y-82932946D01*
X189990000Y-82932946D01*
X189990000Y-82167054D01*
X191180017Y-82167054D01*
X191298633Y-82423000D01*
X192659000Y-82423000D01*
X192659000Y-81063164D01*
X192403056Y-80944025D01*
X191921182Y-81143615D01*
X191448812Y-81581621D01*
X191180017Y-82167054D01*
X189990000Y-82167054D01*
X189990000Y-81915000D01*
X189932148Y-81624161D01*
X189767401Y-81377599D01*
X185349802Y-76960000D01*
X198089121Y-76960000D01*
X197993243Y-77190900D01*
X197992758Y-77746661D01*
X198204990Y-78260303D01*
X198597630Y-78653629D01*
X198805512Y-78739949D01*
X198599697Y-78824990D01*
X198206371Y-79217630D01*
X197993243Y-79730900D01*
X197992758Y-80286661D01*
X198204990Y-80800303D01*
X198597630Y-81193629D01*
X198805512Y-81279949D01*
X198599697Y-81364990D01*
X198206371Y-81757630D01*
X198192930Y-81790000D01*
X196989440Y-81790000D01*
X196989440Y-81534000D01*
X196945162Y-81298683D01*
X196806090Y-81082559D01*
X196593890Y-80937569D01*
X196342000Y-80886560D01*
X194310000Y-80886560D01*
X194074683Y-80930838D01*
X193858559Y-81069910D01*
X193747160Y-81232948D01*
X193650818Y-81143615D01*
X193168944Y-80944025D01*
X192913000Y-81063164D01*
X192913000Y-82423000D01*
X192933000Y-82423000D01*
X192933000Y-82677000D01*
X192913000Y-82677000D01*
X192913000Y-84036836D01*
X193168944Y-84155975D01*
X193650818Y-83956385D01*
X193748398Y-83865903D01*
X193845910Y-84017441D01*
X194058110Y-84162431D01*
X194310000Y-84213440D01*
X196342000Y-84213440D01*
X196577317Y-84169162D01*
X196793441Y-84030090D01*
X196938431Y-83817890D01*
X196989440Y-83566000D01*
X196989440Y-83310000D01*
X198192469Y-83310000D01*
X198204990Y-83340303D01*
X198597630Y-83733629D01*
X199110900Y-83946757D01*
X199666661Y-83947242D01*
X200180303Y-83735010D01*
X200573629Y-83342370D01*
X200786757Y-82829100D01*
X200787242Y-82273339D01*
X200575010Y-81759697D01*
X200182370Y-81366371D01*
X199974488Y-81280051D01*
X200180303Y-81195010D01*
X200573629Y-80802370D01*
X200786757Y-80289100D01*
X200787242Y-79733339D01*
X200575010Y-79219697D01*
X200182370Y-78826371D01*
X199974488Y-78740051D01*
X200180303Y-78655010D01*
X200573629Y-78262370D01*
X200786757Y-77749100D01*
X200787242Y-77193339D01*
X200690829Y-76960000D01*
X202946000Y-76960000D01*
X203236839Y-76902148D01*
X203483401Y-76737401D01*
X204161401Y-76059401D01*
X204326148Y-75812839D01*
X204384000Y-75522000D01*
X204384000Y-74523162D01*
X204389317Y-74522162D01*
X204605441Y-74383090D01*
X204725233Y-74207768D01*
X204829910Y-74370441D01*
X205042110Y-74515431D01*
X205294000Y-74566440D01*
X206354000Y-74566440D01*
X206589317Y-74522162D01*
X206805441Y-74383090D01*
X206950431Y-74170890D01*
X207001440Y-73919000D01*
X207001440Y-73269000D01*
X206957162Y-73033683D01*
X206818090Y-72817559D01*
X206674935Y-72719745D01*
X206675068Y-72566983D01*
X206805441Y-72483090D01*
X206950431Y-72270890D01*
X207001440Y-72019000D01*
X207001440Y-71547984D01*
X212390324Y-79613019D01*
G36*
X139828110Y-105031431D02*
X140080000Y-105082440D01*
X140590000Y-105082440D01*
X140825317Y-105038162D01*
X140845000Y-105025496D01*
X140845000Y-105664000D01*
X140902852Y-105954839D01*
X141067599Y-106201401D01*
X142718599Y-107852401D01*
X142965161Y-108017148D01*
X143256000Y-108075000D01*
X146497198Y-108075000D01*
X156654989Y-118232791D01*
X156420330Y-118389585D01*
X156213539Y-118699069D01*
X155842036Y-118283268D01*
X155314791Y-118029291D01*
X155299026Y-118026642D01*
X155067000Y-118147783D01*
X155067000Y-119507000D01*
X155087000Y-119507000D01*
X155087000Y-119761000D01*
X155067000Y-119761000D01*
X155067000Y-121120217D01*
X155299026Y-121241358D01*
X155314791Y-121238709D01*
X155842036Y-120984732D01*
X156213539Y-120568931D01*
X156420330Y-120878415D01*
X156906511Y-121203271D01*
X157298046Y-121281152D01*
X157165198Y-121414000D01*
X150428802Y-121414000D01*
X149010715Y-119995913D01*
X153454816Y-119995913D01*
X153648046Y-120548320D01*
X154037964Y-120984732D01*
X154565209Y-121238709D01*
X154580974Y-121241358D01*
X154813000Y-121120217D01*
X154813000Y-119761000D01*
X153599076Y-119761000D01*
X153454816Y-119995913D01*
X149010715Y-119995913D01*
X148286889Y-119272087D01*
X153454816Y-119272087D01*
X153599076Y-119507000D01*
X154813000Y-119507000D01*
X154813000Y-118147783D01*
X154580974Y-118026642D01*
X154565209Y-118029291D01*
X154037964Y-118283268D01*
X153648046Y-118719680D01*
X153454816Y-119272087D01*
X148286889Y-119272087D01*
X144905000Y-115890198D01*
X144905000Y-115120704D01*
X144996431Y-114986890D01*
X145047440Y-114735000D01*
X145047440Y-112735000D01*
X145003162Y-112499683D01*
X144864090Y-112283559D01*
X144651890Y-112138569D01*
X144400000Y-112087560D01*
X143890000Y-112087560D01*
X143654683Y-112131838D01*
X143509123Y-112225503D01*
X143381890Y-112138569D01*
X143130000Y-112087560D01*
X142620000Y-112087560D01*
X142384683Y-112131838D01*
X142239123Y-112225503D01*
X142111890Y-112138569D01*
X141860000Y-112087560D01*
X141350000Y-112087560D01*
X141114683Y-112131838D01*
X140969123Y-112225503D01*
X140841890Y-112138569D01*
X140590000Y-112087560D01*
X140080000Y-112087560D01*
X139844683Y-112131838D01*
X139699123Y-112225503D01*
X139571890Y-112138569D01*
X139320000Y-112087560D01*
X138810000Y-112087560D01*
X138574683Y-112131838D01*
X138429123Y-112225503D01*
X138301890Y-112138569D01*
X138050000Y-112087560D01*
X137540000Y-112087560D01*
X137304683Y-112131838D01*
X137159123Y-112225503D01*
X137031890Y-112138569D01*
X136780000Y-112087560D01*
X136270000Y-112087560D01*
X136034683Y-112131838D01*
X135889123Y-112225503D01*
X135761890Y-112138569D01*
X135510000Y-112087560D01*
X135000000Y-112087560D01*
X134764683Y-112131838D01*
X134619123Y-112225503D01*
X134491890Y-112138569D01*
X134240000Y-112087560D01*
X133730000Y-112087560D01*
X133494683Y-112131838D01*
X133349123Y-112225503D01*
X133221890Y-112138569D01*
X132970000Y-112087560D01*
X132460000Y-112087560D01*
X132224683Y-112131838D01*
X132205000Y-112144504D01*
X132205000Y-110677802D01*
X134522401Y-108360401D01*
X134687148Y-108113840D01*
X134724790Y-107924600D01*
X134745000Y-107823000D01*
X134745000Y-106337491D01*
X134761192Y-106321327D01*
X134903838Y-105977799D01*
X134904162Y-105605833D01*
X134762117Y-105262057D01*
X134745000Y-105244910D01*
X134745000Y-105029306D01*
X134748110Y-105031431D01*
X135000000Y-105082440D01*
X135510000Y-105082440D01*
X135745317Y-105038162D01*
X135890877Y-104944497D01*
X136018110Y-105031431D01*
X136270000Y-105082440D01*
X136780000Y-105082440D01*
X137015317Y-105038162D01*
X137160877Y-104944497D01*
X137288110Y-105031431D01*
X137540000Y-105082440D01*
X138050000Y-105082440D01*
X138285317Y-105038162D01*
X138430877Y-104944497D01*
X138558110Y-105031431D01*
X138810000Y-105082440D01*
X139320000Y-105082440D01*
X139555317Y-105038162D01*
X139700877Y-104944497D01*
X139828110Y-105031431D01*
X139828110Y-105031431D01*
G37*
X139828110Y-105031431D02*
X140080000Y-105082440D01*
X140590000Y-105082440D01*
X140825317Y-105038162D01*
X140845000Y-105025496D01*
X140845000Y-105664000D01*
X140902852Y-105954839D01*
X141067599Y-106201401D01*
X142718599Y-107852401D01*
X142965161Y-108017148D01*
X143256000Y-108075000D01*
X146497198Y-108075000D01*
X156654989Y-118232791D01*
X156420330Y-118389585D01*
X156213539Y-118699069D01*
X155842036Y-118283268D01*
X155314791Y-118029291D01*
X155299026Y-118026642D01*
X155067000Y-118147783D01*
X155067000Y-119507000D01*
X155087000Y-119507000D01*
X155087000Y-119761000D01*
X155067000Y-119761000D01*
X155067000Y-121120217D01*
X155299026Y-121241358D01*
X155314791Y-121238709D01*
X155842036Y-120984732D01*
X156213539Y-120568931D01*
X156420330Y-120878415D01*
X156906511Y-121203271D01*
X157298046Y-121281152D01*
X157165198Y-121414000D01*
X150428802Y-121414000D01*
X149010715Y-119995913D01*
X153454816Y-119995913D01*
X153648046Y-120548320D01*
X154037964Y-120984732D01*
X154565209Y-121238709D01*
X154580974Y-121241358D01*
X154813000Y-121120217D01*
X154813000Y-119761000D01*
X153599076Y-119761000D01*
X153454816Y-119995913D01*
X149010715Y-119995913D01*
X148286889Y-119272087D01*
X153454816Y-119272087D01*
X153599076Y-119507000D01*
X154813000Y-119507000D01*
X154813000Y-118147783D01*
X154580974Y-118026642D01*
X154565209Y-118029291D01*
X154037964Y-118283268D01*
X153648046Y-118719680D01*
X153454816Y-119272087D01*
X148286889Y-119272087D01*
X144905000Y-115890198D01*
X144905000Y-115120704D01*
X144996431Y-114986890D01*
X145047440Y-114735000D01*
X145047440Y-112735000D01*
X145003162Y-112499683D01*
X144864090Y-112283559D01*
X144651890Y-112138569D01*
X144400000Y-112087560D01*
X143890000Y-112087560D01*
X143654683Y-112131838D01*
X143509123Y-112225503D01*
X143381890Y-112138569D01*
X143130000Y-112087560D01*
X142620000Y-112087560D01*
X142384683Y-112131838D01*
X142239123Y-112225503D01*
X142111890Y-112138569D01*
X141860000Y-112087560D01*
X141350000Y-112087560D01*
X141114683Y-112131838D01*
X140969123Y-112225503D01*
X140841890Y-112138569D01*
X140590000Y-112087560D01*
X140080000Y-112087560D01*
X139844683Y-112131838D01*
X139699123Y-112225503D01*
X139571890Y-112138569D01*
X139320000Y-112087560D01*
X138810000Y-112087560D01*
X138574683Y-112131838D01*
X138429123Y-112225503D01*
X138301890Y-112138569D01*
X138050000Y-112087560D01*
X137540000Y-112087560D01*
X137304683Y-112131838D01*
X137159123Y-112225503D01*
X137031890Y-112138569D01*
X136780000Y-112087560D01*
X136270000Y-112087560D01*
X136034683Y-112131838D01*
X135889123Y-112225503D01*
X135761890Y-112138569D01*
X135510000Y-112087560D01*
X135000000Y-112087560D01*
X134764683Y-112131838D01*
X134619123Y-112225503D01*
X134491890Y-112138569D01*
X134240000Y-112087560D01*
X133730000Y-112087560D01*
X133494683Y-112131838D01*
X133349123Y-112225503D01*
X133221890Y-112138569D01*
X132970000Y-112087560D01*
X132460000Y-112087560D01*
X132224683Y-112131838D01*
X132205000Y-112144504D01*
X132205000Y-110677802D01*
X134522401Y-108360401D01*
X134687148Y-108113840D01*
X134724790Y-107924600D01*
X134745000Y-107823000D01*
X134745000Y-106337491D01*
X134761192Y-106321327D01*
X134903838Y-105977799D01*
X134904162Y-105605833D01*
X134762117Y-105262057D01*
X134745000Y-105244910D01*
X134745000Y-105029306D01*
X134748110Y-105031431D01*
X135000000Y-105082440D01*
X135510000Y-105082440D01*
X135745317Y-105038162D01*
X135890877Y-104944497D01*
X136018110Y-105031431D01*
X136270000Y-105082440D01*
X136780000Y-105082440D01*
X137015317Y-105038162D01*
X137160877Y-104944497D01*
X137288110Y-105031431D01*
X137540000Y-105082440D01*
X138050000Y-105082440D01*
X138285317Y-105038162D01*
X138430877Y-104944497D01*
X138558110Y-105031431D01*
X138810000Y-105082440D01*
X139320000Y-105082440D01*
X139555317Y-105038162D01*
X139700877Y-104944497D01*
X139828110Y-105031431D01*
G36*
X145004641Y-102082600D02*
X145063359Y-102082600D01*
X145074568Y-102080370D01*
X149195599Y-106201401D01*
X149442161Y-106366148D01*
X149733000Y-106424000D01*
X169961291Y-106424000D01*
X169701326Y-106561520D01*
X169392410Y-106934653D01*
X169249800Y-107397600D01*
X169249800Y-107797600D01*
X170357800Y-107797600D01*
X170357800Y-107777600D01*
X170611800Y-107777600D01*
X170611800Y-107797600D01*
X171719800Y-107797600D01*
X171719800Y-107397600D01*
X171577190Y-106934653D01*
X171268274Y-106561520D01*
X171008309Y-106424000D01*
X172443797Y-106424000D01*
X172151523Y-106619291D01*
X171883809Y-107019954D01*
X171789800Y-107492568D01*
X171789800Y-108356632D01*
X171883809Y-108829246D01*
X172151523Y-109229909D01*
X172552186Y-109497623D01*
X173024800Y-109591632D01*
X173349286Y-109527088D01*
X175992599Y-112170401D01*
X176239160Y-112335148D01*
X176530000Y-112393000D01*
X186254537Y-112393000D01*
X186258530Y-112397000D01*
X173034802Y-112397000D01*
X172639122Y-112001320D01*
X172639162Y-111955833D01*
X172497117Y-111612057D01*
X172234327Y-111348808D01*
X171890799Y-111206162D01*
X171518833Y-111205838D01*
X171175057Y-111347883D01*
X170911808Y-111610673D01*
X170769162Y-111954201D01*
X170768838Y-112326167D01*
X170910883Y-112669943D01*
X171173673Y-112933192D01*
X171517201Y-113075838D01*
X171564077Y-113075879D01*
X172182599Y-113694401D01*
X172429161Y-113859148D01*
X172720000Y-113917000D01*
X172826562Y-113917000D01*
X172552186Y-113971577D01*
X172151523Y-114239291D01*
X171883809Y-114639954D01*
X171789800Y-115112568D01*
X171789800Y-115976632D01*
X171883809Y-116449246D01*
X172151523Y-116849909D01*
X172329756Y-116969000D01*
X171152356Y-116969000D01*
X171268274Y-116907680D01*
X171577190Y-116534547D01*
X171719800Y-116071600D01*
X171719800Y-115671600D01*
X170611800Y-115671600D01*
X170611800Y-115691600D01*
X170357800Y-115691600D01*
X170357800Y-115671600D01*
X169249800Y-115671600D01*
X169249800Y-116071600D01*
X169392410Y-116534547D01*
X169701326Y-116907680D01*
X169817244Y-116969000D01*
X163847103Y-116969000D01*
X163875838Y-116899799D01*
X163876162Y-116527833D01*
X163734117Y-116184057D01*
X163471327Y-115920808D01*
X163127799Y-115778162D01*
X162755833Y-115777838D01*
X162412057Y-115919883D01*
X162378882Y-115953000D01*
X158937802Y-115953000D01*
X158002402Y-115017600D01*
X169249800Y-115017600D01*
X169249800Y-115417600D01*
X170357800Y-115417600D01*
X170357800Y-114075869D01*
X170611800Y-114075869D01*
X170611800Y-115417600D01*
X171719800Y-115417600D01*
X171719800Y-115017600D01*
X171577190Y-114554653D01*
X171268274Y-114181520D01*
X170840081Y-113955008D01*
X170802409Y-113951138D01*
X170611800Y-114075869D01*
X170357800Y-114075869D01*
X170167191Y-113951138D01*
X170129519Y-113955008D01*
X169701326Y-114181520D01*
X169392410Y-114554653D01*
X169249800Y-115017600D01*
X158002402Y-115017600D01*
X151036402Y-108051600D01*
X169249800Y-108051600D01*
X169249800Y-108451600D01*
X169392410Y-108914547D01*
X169701326Y-109287680D01*
X170129519Y-109514192D01*
X170167191Y-109518062D01*
X170357800Y-109393331D01*
X170357800Y-108051600D01*
X170611800Y-108051600D01*
X170611800Y-109393331D01*
X170802409Y-109518062D01*
X170840081Y-109514192D01*
X171268274Y-109287680D01*
X171577190Y-108914547D01*
X171719800Y-108451600D01*
X171719800Y-108051600D01*
X170611800Y-108051600D01*
X170357800Y-108051600D01*
X169249800Y-108051600D01*
X151036402Y-108051600D01*
X145882401Y-102897599D01*
X145635839Y-102732852D01*
X145345000Y-102675000D01*
X145047440Y-102675000D01*
X145047440Y-102435000D01*
X145003162Y-102199683D01*
X144916545Y-102065077D01*
X145004641Y-102082600D01*
X145004641Y-102082600D01*
G37*
X145004641Y-102082600D02*
X145063359Y-102082600D01*
X145074568Y-102080370D01*
X149195599Y-106201401D01*
X149442161Y-106366148D01*
X149733000Y-106424000D01*
X169961291Y-106424000D01*
X169701326Y-106561520D01*
X169392410Y-106934653D01*
X169249800Y-107397600D01*
X169249800Y-107797600D01*
X170357800Y-107797600D01*
X170357800Y-107777600D01*
X170611800Y-107777600D01*
X170611800Y-107797600D01*
X171719800Y-107797600D01*
X171719800Y-107397600D01*
X171577190Y-106934653D01*
X171268274Y-106561520D01*
X171008309Y-106424000D01*
X172443797Y-106424000D01*
X172151523Y-106619291D01*
X171883809Y-107019954D01*
X171789800Y-107492568D01*
X171789800Y-108356632D01*
X171883809Y-108829246D01*
X172151523Y-109229909D01*
X172552186Y-109497623D01*
X173024800Y-109591632D01*
X173349286Y-109527088D01*
X175992599Y-112170401D01*
X176239160Y-112335148D01*
X176530000Y-112393000D01*
X186254537Y-112393000D01*
X186258530Y-112397000D01*
X173034802Y-112397000D01*
X172639122Y-112001320D01*
X172639162Y-111955833D01*
X172497117Y-111612057D01*
X172234327Y-111348808D01*
X171890799Y-111206162D01*
X171518833Y-111205838D01*
X171175057Y-111347883D01*
X170911808Y-111610673D01*
X170769162Y-111954201D01*
X170768838Y-112326167D01*
X170910883Y-112669943D01*
X171173673Y-112933192D01*
X171517201Y-113075838D01*
X171564077Y-113075879D01*
X172182599Y-113694401D01*
X172429161Y-113859148D01*
X172720000Y-113917000D01*
X172826562Y-113917000D01*
X172552186Y-113971577D01*
X172151523Y-114239291D01*
X171883809Y-114639954D01*
X171789800Y-115112568D01*
X171789800Y-115976632D01*
X171883809Y-116449246D01*
X172151523Y-116849909D01*
X172329756Y-116969000D01*
X171152356Y-116969000D01*
X171268274Y-116907680D01*
X171577190Y-116534547D01*
X171719800Y-116071600D01*
X171719800Y-115671600D01*
X170611800Y-115671600D01*
X170611800Y-115691600D01*
X170357800Y-115691600D01*
X170357800Y-115671600D01*
X169249800Y-115671600D01*
X169249800Y-116071600D01*
X169392410Y-116534547D01*
X169701326Y-116907680D01*
X169817244Y-116969000D01*
X163847103Y-116969000D01*
X163875838Y-116899799D01*
X163876162Y-116527833D01*
X163734117Y-116184057D01*
X163471327Y-115920808D01*
X163127799Y-115778162D01*
X162755833Y-115777838D01*
X162412057Y-115919883D01*
X162378882Y-115953000D01*
X158937802Y-115953000D01*
X158002402Y-115017600D01*
X169249800Y-115017600D01*
X169249800Y-115417600D01*
X170357800Y-115417600D01*
X170357800Y-114075869D01*
X170611800Y-114075869D01*
X170611800Y-115417600D01*
X171719800Y-115417600D01*
X171719800Y-115017600D01*
X171577190Y-114554653D01*
X171268274Y-114181520D01*
X170840081Y-113955008D01*
X170802409Y-113951138D01*
X170611800Y-114075869D01*
X170357800Y-114075869D01*
X170167191Y-113951138D01*
X170129519Y-113955008D01*
X169701326Y-114181520D01*
X169392410Y-114554653D01*
X169249800Y-115017600D01*
X158002402Y-115017600D01*
X151036402Y-108051600D01*
X169249800Y-108051600D01*
X169249800Y-108451600D01*
X169392410Y-108914547D01*
X169701326Y-109287680D01*
X170129519Y-109514192D01*
X170167191Y-109518062D01*
X170357800Y-109393331D01*
X170357800Y-108051600D01*
X170611800Y-108051600D01*
X170611800Y-109393331D01*
X170802409Y-109518062D01*
X170840081Y-109514192D01*
X171268274Y-109287680D01*
X171577190Y-108914547D01*
X171719800Y-108451600D01*
X171719800Y-108051600D01*
X170611800Y-108051600D01*
X170357800Y-108051600D01*
X169249800Y-108051600D01*
X151036402Y-108051600D01*
X145882401Y-102897599D01*
X145635839Y-102732852D01*
X145345000Y-102675000D01*
X145047440Y-102675000D01*
X145047440Y-102435000D01*
X145003162Y-102199683D01*
X144916545Y-102065077D01*
X145004641Y-102082600D01*
G36*
X175895000Y-93470000D02*
X191074198Y-93470000D01*
X191264000Y-93659802D01*
X191264000Y-93970480D01*
X190949644Y-94180526D01*
X190885927Y-94026701D01*
X190707298Y-93848073D01*
X190473909Y-93751400D01*
X189769750Y-93751400D01*
X189611000Y-93910150D01*
X189611000Y-95123000D01*
X189631000Y-95123000D01*
X189631000Y-95377000D01*
X189611000Y-95377000D01*
X189611000Y-95397000D01*
X189357000Y-95397000D01*
X189357000Y-95377000D01*
X188144150Y-95377000D01*
X187985400Y-95535750D01*
X187985400Y-96239910D01*
X188082073Y-96473299D01*
X188260702Y-96651927D01*
X188416023Y-96716263D01*
X188394971Y-96730330D01*
X188194738Y-97030000D01*
X179257802Y-97030000D01*
X176487892Y-94260090D01*
X187985400Y-94260090D01*
X187985400Y-94964250D01*
X188144150Y-95123000D01*
X189357000Y-95123000D01*
X189357000Y-93910150D01*
X189198250Y-93751400D01*
X188494091Y-93751400D01*
X188260702Y-93848073D01*
X188082073Y-94026701D01*
X187985400Y-94260090D01*
X176487892Y-94260090D01*
X175648837Y-93421035D01*
X175895000Y-93470000D01*
X175895000Y-93470000D01*
G37*
X175895000Y-93470000D02*
X191074198Y-93470000D01*
X191264000Y-93659802D01*
X191264000Y-93970480D01*
X190949644Y-94180526D01*
X190885927Y-94026701D01*
X190707298Y-93848073D01*
X190473909Y-93751400D01*
X189769750Y-93751400D01*
X189611000Y-93910150D01*
X189611000Y-95123000D01*
X189631000Y-95123000D01*
X189631000Y-95377000D01*
X189611000Y-95377000D01*
X189611000Y-95397000D01*
X189357000Y-95397000D01*
X189357000Y-95377000D01*
X188144150Y-95377000D01*
X187985400Y-95535750D01*
X187985400Y-96239910D01*
X188082073Y-96473299D01*
X188260702Y-96651927D01*
X188416023Y-96716263D01*
X188394971Y-96730330D01*
X188194738Y-97030000D01*
X179257802Y-97030000D01*
X176487892Y-94260090D01*
X187985400Y-94260090D01*
X187985400Y-94964250D01*
X188144150Y-95123000D01*
X189357000Y-95123000D01*
X189357000Y-93910150D01*
X189198250Y-93751400D01*
X188494091Y-93751400D01*
X188260702Y-93848073D01*
X188082073Y-94026701D01*
X187985400Y-94260090D01*
X176487892Y-94260090D01*
X175648837Y-93421035D01*
X175895000Y-93470000D01*
G36*
X184480010Y-53180688D02*
X187271471Y-54180101D01*
X201431599Y-63641596D01*
X202423954Y-64697292D01*
X206464145Y-70743865D01*
X206354000Y-70721560D01*
X205294000Y-70721560D01*
X205058683Y-70765838D01*
X204842559Y-70904910D01*
X204722767Y-71080232D01*
X204618090Y-70917559D01*
X204405890Y-70772569D01*
X204154000Y-70721560D01*
X203094000Y-70721560D01*
X202858683Y-70765838D01*
X202642559Y-70904910D01*
X202622683Y-70934000D01*
X202118000Y-70934000D01*
X201827161Y-70991852D01*
X201580599Y-71156599D01*
X199204361Y-73532837D01*
X199113339Y-73532758D01*
X198599697Y-73744990D01*
X198206371Y-74137630D01*
X197993243Y-74650900D01*
X197992758Y-75206661D01*
X198089171Y-75440000D01*
X184700802Y-75440000D01*
X183545090Y-74284288D01*
X183789943Y-74183117D01*
X184053192Y-73920327D01*
X184195838Y-73576799D01*
X184196162Y-73204833D01*
X184146235Y-73084000D01*
X184441074Y-73084000D01*
X184445838Y-73109317D01*
X184584910Y-73325441D01*
X184797110Y-73470431D01*
X185049000Y-73521440D01*
X186299000Y-73521440D01*
X186534317Y-73477162D01*
X186750441Y-73338090D01*
X186895431Y-73125890D01*
X186946440Y-72874000D01*
X186946440Y-71874000D01*
X186902162Y-71638683D01*
X186763090Y-71422559D01*
X186693289Y-71374866D01*
X186750441Y-71338090D01*
X186895431Y-71125890D01*
X186946440Y-70874000D01*
X186946440Y-69874000D01*
X186902162Y-69638683D01*
X186763090Y-69422559D01*
X186550890Y-69277569D01*
X186299000Y-69226560D01*
X185049000Y-69226560D01*
X184813683Y-69270838D01*
X184597559Y-69409910D01*
X184452569Y-69622110D01*
X184444086Y-69664000D01*
X183714669Y-69664000D01*
X183704090Y-69647559D01*
X183491890Y-69502569D01*
X183240000Y-69451560D01*
X182180000Y-69451560D01*
X181944683Y-69495838D01*
X181728559Y-69634910D01*
X181674381Y-69714202D01*
X181528272Y-69685139D01*
X181504090Y-69647559D01*
X181291890Y-69502569D01*
X181270000Y-69498136D01*
X181270000Y-69232802D01*
X186265618Y-64237184D01*
X186370511Y-64307271D01*
X186944000Y-64421345D01*
X187517489Y-64307271D01*
X188003670Y-63982415D01*
X188013243Y-63968087D01*
X188017238Y-63989317D01*
X188156310Y-64205441D01*
X188368510Y-64350431D01*
X188620400Y-64401440D01*
X190347600Y-64401440D01*
X190582917Y-64357162D01*
X190799041Y-64218090D01*
X190944031Y-64005890D01*
X190995040Y-63754000D01*
X190995040Y-63498000D01*
X193296000Y-63498000D01*
X193296000Y-69088000D01*
X193353852Y-69378839D01*
X193518599Y-69625401D01*
X194678560Y-70785362D01*
X194678560Y-72390000D01*
X194722838Y-72625317D01*
X194861910Y-72841441D01*
X195074110Y-72986431D01*
X195326000Y-73037440D01*
X197358000Y-73037440D01*
X197593317Y-72993162D01*
X197809441Y-72854090D01*
X197920840Y-72691052D01*
X198017182Y-72780385D01*
X198499056Y-72979975D01*
X198755000Y-72860836D01*
X198755000Y-71501000D01*
X199009000Y-71501000D01*
X199009000Y-72860836D01*
X199264944Y-72979975D01*
X199746818Y-72780385D01*
X200219188Y-72342379D01*
X200487983Y-71756946D01*
X200369367Y-71501000D01*
X199009000Y-71501000D01*
X198755000Y-71501000D01*
X198735000Y-71501000D01*
X198735000Y-71247000D01*
X198755000Y-71247000D01*
X198755000Y-69887164D01*
X199009000Y-69887164D01*
X199009000Y-71247000D01*
X200369367Y-71247000D01*
X200487983Y-70991054D01*
X200219188Y-70405621D01*
X199746818Y-69967615D01*
X199264944Y-69768025D01*
X199009000Y-69887164D01*
X198755000Y-69887164D01*
X198499056Y-69768025D01*
X198017182Y-69967615D01*
X197919602Y-70058097D01*
X197822090Y-69906559D01*
X197609890Y-69761569D01*
X197358000Y-69710560D01*
X195753362Y-69710560D01*
X194816000Y-68773198D01*
X194816000Y-67994540D01*
X194841709Y-68056761D01*
X195591293Y-68807655D01*
X196571173Y-69214536D01*
X197632172Y-69215462D01*
X198612761Y-68810291D01*
X199363655Y-68060707D01*
X199770536Y-67080827D01*
X199771462Y-66019828D01*
X199366291Y-65039239D01*
X198616707Y-64288345D01*
X197636827Y-63881464D01*
X196575828Y-63880538D01*
X195595239Y-64285709D01*
X194844345Y-65035293D01*
X194816000Y-65103555D01*
X194816000Y-63119000D01*
X194758148Y-62828161D01*
X194758148Y-62828160D01*
X194593401Y-62581599D01*
X194212401Y-62200599D01*
X193965839Y-62035852D01*
X193675000Y-61978000D01*
X190995040Y-61978000D01*
X190995040Y-61722000D01*
X190950762Y-61486683D01*
X190811690Y-61270559D01*
X190599490Y-61125569D01*
X190347600Y-61074560D01*
X188620400Y-61074560D01*
X188385083Y-61118838D01*
X188168959Y-61257910D01*
X188023969Y-61470110D01*
X188015600Y-61511439D01*
X188003670Y-61493585D01*
X187517489Y-61168729D01*
X186944000Y-61054655D01*
X186370511Y-61168729D01*
X185884330Y-61493585D01*
X185674000Y-61808366D01*
X185463670Y-61493585D01*
X184977489Y-61168729D01*
X184404000Y-61054655D01*
X183830511Y-61168729D01*
X183344330Y-61493585D01*
X183019474Y-61979766D01*
X182905400Y-62553255D01*
X182905400Y-62922745D01*
X183019474Y-63496234D01*
X183344330Y-63982415D01*
X183830511Y-64307271D01*
X184010187Y-64343011D01*
X179972599Y-68380599D01*
X179807852Y-68627161D01*
X179750000Y-68918000D01*
X179750000Y-69494838D01*
X179744683Y-69495838D01*
X179528559Y-69634910D01*
X179383569Y-69847110D01*
X179332560Y-70099000D01*
X179332560Y-70749000D01*
X179358919Y-70889086D01*
X179345000Y-70922690D01*
X179345000Y-71088250D01*
X179503750Y-71247000D01*
X179584051Y-71247000D01*
X179728110Y-71345431D01*
X179865120Y-71373176D01*
X179744683Y-71395838D01*
X179581257Y-71501000D01*
X179503750Y-71501000D01*
X179345000Y-71659750D01*
X179345000Y-71825310D01*
X179360268Y-71862171D01*
X179332560Y-71999000D01*
X179332560Y-72649000D01*
X179376838Y-72884317D01*
X179515910Y-73100441D01*
X179665916Y-73202936D01*
X179659162Y-73219201D01*
X179658838Y-73591167D01*
X179800883Y-73934943D01*
X180035530Y-74170000D01*
X171377531Y-74170000D01*
X171365010Y-74139697D01*
X170972370Y-73746371D01*
X170459100Y-73533243D01*
X169903339Y-73532758D01*
X169389697Y-73744990D01*
X168996371Y-74137630D01*
X168910051Y-74345512D01*
X168825010Y-74139697D01*
X168432370Y-73746371D01*
X167919100Y-73533243D01*
X167363339Y-73532758D01*
X166849697Y-73744990D01*
X166456371Y-74137630D01*
X166442930Y-74170000D01*
X166116000Y-74170000D01*
X165825161Y-74227852D01*
X165578599Y-74392599D01*
X163800599Y-76170599D01*
X163635852Y-76417161D01*
X163578000Y-76708000D01*
X163578000Y-83185000D01*
X163635852Y-83475839D01*
X163800599Y-83722401D01*
X165043198Y-84965000D01*
X164465000Y-84965000D01*
X164174161Y-85022852D01*
X163927599Y-85187599D01*
X163320000Y-85795198D01*
X163320000Y-73406000D01*
X163291386Y-73262148D01*
X163262148Y-73115160D01*
X163097401Y-72868599D01*
X162050000Y-71821198D01*
X162050000Y-71150879D01*
X162280900Y-71246757D01*
X162836661Y-71247242D01*
X163350303Y-71035010D01*
X163743629Y-70642370D01*
X163829949Y-70434488D01*
X163914990Y-70640303D01*
X164307630Y-71033629D01*
X164820900Y-71246757D01*
X165376661Y-71247242D01*
X165890303Y-71035010D01*
X166283629Y-70642370D01*
X166369949Y-70434488D01*
X166454990Y-70640303D01*
X166847630Y-71033629D01*
X167360900Y-71246757D01*
X167916661Y-71247242D01*
X168430303Y-71035010D01*
X168823629Y-70642370D01*
X168909949Y-70434488D01*
X168994990Y-70640303D01*
X169387630Y-71033629D01*
X169900900Y-71246757D01*
X170456661Y-71247242D01*
X170970303Y-71035010D01*
X171363629Y-70642370D01*
X171576757Y-70129100D01*
X171577242Y-69573339D01*
X171365010Y-69059697D01*
X170972370Y-68666371D01*
X170459100Y-68453243D01*
X169903339Y-68452758D01*
X169389697Y-68664990D01*
X168996371Y-69057630D01*
X168910051Y-69265512D01*
X168825010Y-69059697D01*
X168432370Y-68666371D01*
X167919100Y-68453243D01*
X167363339Y-68452758D01*
X166849697Y-68664990D01*
X166456371Y-69057630D01*
X166370051Y-69265512D01*
X166285010Y-69059697D01*
X165892370Y-68666371D01*
X165604325Y-68546764D01*
X165755943Y-68484117D01*
X166019192Y-68221327D01*
X166161838Y-67877799D01*
X166161879Y-67830923D01*
X173923802Y-60069000D01*
X174752000Y-60069000D01*
X175042839Y-60011148D01*
X175289401Y-59846401D01*
X175670401Y-59465401D01*
X175729794Y-59376514D01*
X175800152Y-59423526D01*
X176373641Y-59537600D01*
X176432359Y-59537600D01*
X177005848Y-59423526D01*
X177492029Y-59098670D01*
X177673000Y-58827828D01*
X177853971Y-59098670D01*
X178340152Y-59423526D01*
X178913641Y-59537600D01*
X178972359Y-59537600D01*
X179545848Y-59423526D01*
X180032029Y-59098670D01*
X180213000Y-58827828D01*
X180393971Y-59098670D01*
X180880152Y-59423526D01*
X181453641Y-59537600D01*
X181512359Y-59537600D01*
X182085848Y-59423526D01*
X182572029Y-59098670D01*
X182896885Y-58612489D01*
X183010959Y-58039000D01*
X182896885Y-57465511D01*
X182572029Y-56979330D01*
X182257248Y-56769000D01*
X182572029Y-56558670D01*
X182896885Y-56072489D01*
X183010959Y-55499000D01*
X182896885Y-54925511D01*
X182572029Y-54439330D01*
X182085848Y-54114474D01*
X181512359Y-54000400D01*
X181453641Y-54000400D01*
X180880152Y-54114474D01*
X180393971Y-54439330D01*
X180213000Y-54710172D01*
X180032029Y-54439330D01*
X179545848Y-54114474D01*
X178972359Y-54000400D01*
X178913641Y-54000400D01*
X178340152Y-54114474D01*
X177853971Y-54439330D01*
X177673000Y-54710172D01*
X177492029Y-54439330D01*
X177005848Y-54114474D01*
X176432359Y-54000400D01*
X176373641Y-54000400D01*
X175800152Y-54114474D01*
X175313971Y-54439330D01*
X175133000Y-54710172D01*
X174952029Y-54439330D01*
X174465848Y-54114474D01*
X173892359Y-54000400D01*
X173833641Y-54000400D01*
X173260152Y-54114474D01*
X172773971Y-54439330D01*
X172593000Y-54710172D01*
X172412029Y-54439330D01*
X171925848Y-54114474D01*
X171352359Y-54000400D01*
X171293641Y-54000400D01*
X170720152Y-54114474D01*
X170233971Y-54439330D01*
X170053000Y-54710172D01*
X169872029Y-54439330D01*
X169385848Y-54114474D01*
X168812359Y-54000400D01*
X168753641Y-54000400D01*
X168180152Y-54114474D01*
X167693971Y-54439330D01*
X167513000Y-54710172D01*
X167332029Y-54439330D01*
X166845848Y-54114474D01*
X166272359Y-54000400D01*
X166213641Y-54000400D01*
X165640152Y-54114474D01*
X165153971Y-54439330D01*
X164973000Y-54710172D01*
X164792029Y-54439330D01*
X164305848Y-54114474D01*
X163732359Y-54000400D01*
X163673641Y-54000400D01*
X163100152Y-54114474D01*
X162613971Y-54439330D01*
X162433000Y-54710172D01*
X162252029Y-54439330D01*
X161765848Y-54114474D01*
X161192359Y-54000400D01*
X161133641Y-54000400D01*
X160560152Y-54114474D01*
X160073971Y-54439330D01*
X159893000Y-54710172D01*
X159712029Y-54439330D01*
X159225848Y-54114474D01*
X158652359Y-54000400D01*
X158593641Y-54000400D01*
X158020152Y-54114474D01*
X157533971Y-54439330D01*
X157353000Y-54710172D01*
X157172029Y-54439330D01*
X156685848Y-54114474D01*
X156112359Y-54000400D01*
X156053641Y-54000400D01*
X155480152Y-54114474D01*
X154993971Y-54439330D01*
X154813000Y-54710172D01*
X154632029Y-54439330D01*
X154145848Y-54114474D01*
X153572359Y-54000400D01*
X153513641Y-54000400D01*
X152940152Y-54114474D01*
X152468644Y-54429526D01*
X152404927Y-54275701D01*
X152226298Y-54097073D01*
X151992909Y-54000400D01*
X151288750Y-54000400D01*
X151130000Y-54159150D01*
X151130000Y-55372000D01*
X151150000Y-55372000D01*
X151150000Y-55626000D01*
X151130000Y-55626000D01*
X151130000Y-55646000D01*
X150876000Y-55646000D01*
X150876000Y-55626000D01*
X149663150Y-55626000D01*
X149504400Y-55784750D01*
X149504400Y-56488910D01*
X149601073Y-56722299D01*
X149779702Y-56900927D01*
X149935023Y-56965263D01*
X149913971Y-56979330D01*
X149589115Y-57465511D01*
X149475041Y-58039000D01*
X149589115Y-58612489D01*
X149913971Y-59098670D01*
X150400152Y-59423526D01*
X150970269Y-59536929D01*
X148910198Y-61597000D01*
X144907000Y-61597000D01*
X144616161Y-61654852D01*
X144369599Y-61819599D01*
X141846320Y-64342878D01*
X141800833Y-64342838D01*
X141457057Y-64484883D01*
X141193808Y-64747673D01*
X141051162Y-65091201D01*
X141050838Y-65463167D01*
X141192883Y-65806943D01*
X141455673Y-66070192D01*
X141799201Y-66212838D01*
X142171167Y-66213162D01*
X142514943Y-66071117D01*
X142778192Y-65808327D01*
X142920838Y-65464799D01*
X142920879Y-65417923D01*
X145221802Y-63117000D01*
X148371632Y-63117000D01*
X148290162Y-63313201D01*
X148289838Y-63685167D01*
X148431883Y-64028943D01*
X148694673Y-64292192D01*
X149038201Y-64434838D01*
X149410167Y-64435162D01*
X149753943Y-64293117D01*
X150017192Y-64030327D01*
X150159838Y-63686799D01*
X150159879Y-63639923D01*
X153603802Y-60196000D01*
X154248198Y-60196000D01*
X150482320Y-63961878D01*
X150436833Y-63961838D01*
X150093057Y-64103883D01*
X149829808Y-64366673D01*
X149687162Y-64710201D01*
X149686838Y-65082167D01*
X149828883Y-65425943D01*
X150091673Y-65689192D01*
X150435201Y-65831838D01*
X150807167Y-65832162D01*
X151150943Y-65690117D01*
X151414192Y-65427327D01*
X151556838Y-65083799D01*
X151556879Y-65036923D01*
X156524802Y-60069000D01*
X156972000Y-60069000D01*
X157059629Y-60051569D01*
X153911320Y-63199878D01*
X153865833Y-63199838D01*
X153522057Y-63341883D01*
X153258808Y-63604673D01*
X153116162Y-63948201D01*
X153115838Y-64320167D01*
X153257883Y-64663943D01*
X153520673Y-64927192D01*
X153864201Y-65069838D01*
X154236167Y-65070162D01*
X154386124Y-65008201D01*
X154385838Y-65336167D01*
X154527883Y-65679943D01*
X154790673Y-65943192D01*
X155134201Y-66085838D01*
X155506167Y-66086162D01*
X155849943Y-65944117D01*
X156113192Y-65681327D01*
X156255838Y-65337799D01*
X156255879Y-65290923D01*
X161477802Y-60069000D01*
X161671000Y-60069000D01*
X161758629Y-60051569D01*
X159372320Y-62437878D01*
X159326833Y-62437838D01*
X158983057Y-62579883D01*
X158719808Y-62842673D01*
X158577162Y-63186201D01*
X158576838Y-63558167D01*
X158718883Y-63901943D01*
X158981673Y-64165192D01*
X159325201Y-64307838D01*
X159697167Y-64308162D01*
X160040943Y-64166117D01*
X160304192Y-63903327D01*
X160446838Y-63559799D01*
X160446879Y-63512923D01*
X163890802Y-60069000D01*
X164408198Y-60069000D01*
X155771564Y-68705634D01*
X155732370Y-68666371D01*
X155219100Y-68453243D01*
X154663339Y-68452758D01*
X154149697Y-68664990D01*
X153756371Y-69057630D01*
X153670051Y-69265512D01*
X153585010Y-69059697D01*
X153192370Y-68666371D01*
X153160000Y-68652930D01*
X153160000Y-68199000D01*
X153102148Y-67908161D01*
X152937401Y-67661599D01*
X151794401Y-66518599D01*
X151547839Y-66353852D01*
X151257000Y-66296000D01*
X141859000Y-66296000D01*
X141568161Y-66353852D01*
X141321599Y-66518599D01*
X141223941Y-66616257D01*
X141224462Y-66019828D01*
X140819291Y-65039239D01*
X140069707Y-64288345D01*
X139089827Y-63881464D01*
X138028828Y-63880538D01*
X137048239Y-64285709D01*
X136297345Y-65035293D01*
X135890464Y-66015173D01*
X135889538Y-67076172D01*
X136294709Y-68056761D01*
X137044293Y-68807655D01*
X138024173Y-69214536D01*
X138451063Y-69214909D01*
X138303243Y-69570900D01*
X138302758Y-70126661D01*
X138514990Y-70640303D01*
X138869068Y-70995000D01*
X138811000Y-70995000D01*
X138568414Y-71043254D01*
X138520160Y-71052852D01*
X138273599Y-71217599D01*
X134526198Y-74965000D01*
X133933968Y-74965000D01*
X133461354Y-75059009D01*
X133060691Y-75326723D01*
X132985002Y-75440000D01*
X128126998Y-75440000D01*
X128051309Y-75326723D01*
X127650646Y-75059009D01*
X127178032Y-74965000D01*
X126503383Y-74965000D01*
X132692940Y-65701674D01*
X133186533Y-64989329D01*
X148964474Y-54509090D01*
X149504400Y-54509090D01*
X149504400Y-55213250D01*
X149663150Y-55372000D01*
X150876000Y-55372000D01*
X150876000Y-54159150D01*
X150717250Y-54000400D01*
X150013091Y-54000400D01*
X149779702Y-54097073D01*
X149601073Y-54275701D01*
X149504400Y-54509090D01*
X148964474Y-54509090D01*
X150545646Y-53458823D01*
X155780375Y-52291076D01*
X167894000Y-49881526D01*
X184480010Y-53180688D01*
X184480010Y-53180688D01*
G37*
X184480010Y-53180688D02*
X187271471Y-54180101D01*
X201431599Y-63641596D01*
X202423954Y-64697292D01*
X206464145Y-70743865D01*
X206354000Y-70721560D01*
X205294000Y-70721560D01*
X205058683Y-70765838D01*
X204842559Y-70904910D01*
X204722767Y-71080232D01*
X204618090Y-70917559D01*
X204405890Y-70772569D01*
X204154000Y-70721560D01*
X203094000Y-70721560D01*
X202858683Y-70765838D01*
X202642559Y-70904910D01*
X202622683Y-70934000D01*
X202118000Y-70934000D01*
X201827161Y-70991852D01*
X201580599Y-71156599D01*
X199204361Y-73532837D01*
X199113339Y-73532758D01*
X198599697Y-73744990D01*
X198206371Y-74137630D01*
X197993243Y-74650900D01*
X197992758Y-75206661D01*
X198089171Y-75440000D01*
X184700802Y-75440000D01*
X183545090Y-74284288D01*
X183789943Y-74183117D01*
X184053192Y-73920327D01*
X184195838Y-73576799D01*
X184196162Y-73204833D01*
X184146235Y-73084000D01*
X184441074Y-73084000D01*
X184445838Y-73109317D01*
X184584910Y-73325441D01*
X184797110Y-73470431D01*
X185049000Y-73521440D01*
X186299000Y-73521440D01*
X186534317Y-73477162D01*
X186750441Y-73338090D01*
X186895431Y-73125890D01*
X186946440Y-72874000D01*
X186946440Y-71874000D01*
X186902162Y-71638683D01*
X186763090Y-71422559D01*
X186693289Y-71374866D01*
X186750441Y-71338090D01*
X186895431Y-71125890D01*
X186946440Y-70874000D01*
X186946440Y-69874000D01*
X186902162Y-69638683D01*
X186763090Y-69422559D01*
X186550890Y-69277569D01*
X186299000Y-69226560D01*
X185049000Y-69226560D01*
X184813683Y-69270838D01*
X184597559Y-69409910D01*
X184452569Y-69622110D01*
X184444086Y-69664000D01*
X183714669Y-69664000D01*
X183704090Y-69647559D01*
X183491890Y-69502569D01*
X183240000Y-69451560D01*
X182180000Y-69451560D01*
X181944683Y-69495838D01*
X181728559Y-69634910D01*
X181674381Y-69714202D01*
X181528272Y-69685139D01*
X181504090Y-69647559D01*
X181291890Y-69502569D01*
X181270000Y-69498136D01*
X181270000Y-69232802D01*
X186265618Y-64237184D01*
X186370511Y-64307271D01*
X186944000Y-64421345D01*
X187517489Y-64307271D01*
X188003670Y-63982415D01*
X188013243Y-63968087D01*
X188017238Y-63989317D01*
X188156310Y-64205441D01*
X188368510Y-64350431D01*
X188620400Y-64401440D01*
X190347600Y-64401440D01*
X190582917Y-64357162D01*
X190799041Y-64218090D01*
X190944031Y-64005890D01*
X190995040Y-63754000D01*
X190995040Y-63498000D01*
X193296000Y-63498000D01*
X193296000Y-69088000D01*
X193353852Y-69378839D01*
X193518599Y-69625401D01*
X194678560Y-70785362D01*
X194678560Y-72390000D01*
X194722838Y-72625317D01*
X194861910Y-72841441D01*
X195074110Y-72986431D01*
X195326000Y-73037440D01*
X197358000Y-73037440D01*
X197593317Y-72993162D01*
X197809441Y-72854090D01*
X197920840Y-72691052D01*
X198017182Y-72780385D01*
X198499056Y-72979975D01*
X198755000Y-72860836D01*
X198755000Y-71501000D01*
X199009000Y-71501000D01*
X199009000Y-72860836D01*
X199264944Y-72979975D01*
X199746818Y-72780385D01*
X200219188Y-72342379D01*
X200487983Y-71756946D01*
X200369367Y-71501000D01*
X199009000Y-71501000D01*
X198755000Y-71501000D01*
X198735000Y-71501000D01*
X198735000Y-71247000D01*
X198755000Y-71247000D01*
X198755000Y-69887164D01*
X199009000Y-69887164D01*
X199009000Y-71247000D01*
X200369367Y-71247000D01*
X200487983Y-70991054D01*
X200219188Y-70405621D01*
X199746818Y-69967615D01*
X199264944Y-69768025D01*
X199009000Y-69887164D01*
X198755000Y-69887164D01*
X198499056Y-69768025D01*
X198017182Y-69967615D01*
X197919602Y-70058097D01*
X197822090Y-69906559D01*
X197609890Y-69761569D01*
X197358000Y-69710560D01*
X195753362Y-69710560D01*
X194816000Y-68773198D01*
X194816000Y-67994540D01*
X194841709Y-68056761D01*
X195591293Y-68807655D01*
X196571173Y-69214536D01*
X197632172Y-69215462D01*
X198612761Y-68810291D01*
X199363655Y-68060707D01*
X199770536Y-67080827D01*
X199771462Y-66019828D01*
X199366291Y-65039239D01*
X198616707Y-64288345D01*
X197636827Y-63881464D01*
X196575828Y-63880538D01*
X195595239Y-64285709D01*
X194844345Y-65035293D01*
X194816000Y-65103555D01*
X194816000Y-63119000D01*
X194758148Y-62828161D01*
X194758148Y-62828160D01*
X194593401Y-62581599D01*
X194212401Y-62200599D01*
X193965839Y-62035852D01*
X193675000Y-61978000D01*
X190995040Y-61978000D01*
X190995040Y-61722000D01*
X190950762Y-61486683D01*
X190811690Y-61270559D01*
X190599490Y-61125569D01*
X190347600Y-61074560D01*
X188620400Y-61074560D01*
X188385083Y-61118838D01*
X188168959Y-61257910D01*
X188023969Y-61470110D01*
X188015600Y-61511439D01*
X188003670Y-61493585D01*
X187517489Y-61168729D01*
X186944000Y-61054655D01*
X186370511Y-61168729D01*
X185884330Y-61493585D01*
X185674000Y-61808366D01*
X185463670Y-61493585D01*
X184977489Y-61168729D01*
X184404000Y-61054655D01*
X183830511Y-61168729D01*
X183344330Y-61493585D01*
X183019474Y-61979766D01*
X182905400Y-62553255D01*
X182905400Y-62922745D01*
X183019474Y-63496234D01*
X183344330Y-63982415D01*
X183830511Y-64307271D01*
X184010187Y-64343011D01*
X179972599Y-68380599D01*
X179807852Y-68627161D01*
X179750000Y-68918000D01*
X179750000Y-69494838D01*
X179744683Y-69495838D01*
X179528559Y-69634910D01*
X179383569Y-69847110D01*
X179332560Y-70099000D01*
X179332560Y-70749000D01*
X179358919Y-70889086D01*
X179345000Y-70922690D01*
X179345000Y-71088250D01*
X179503750Y-71247000D01*
X179584051Y-71247000D01*
X179728110Y-71345431D01*
X179865120Y-71373176D01*
X179744683Y-71395838D01*
X179581257Y-71501000D01*
X179503750Y-71501000D01*
X179345000Y-71659750D01*
X179345000Y-71825310D01*
X179360268Y-71862171D01*
X179332560Y-71999000D01*
X179332560Y-72649000D01*
X179376838Y-72884317D01*
X179515910Y-73100441D01*
X179665916Y-73202936D01*
X179659162Y-73219201D01*
X179658838Y-73591167D01*
X179800883Y-73934943D01*
X180035530Y-74170000D01*
X171377531Y-74170000D01*
X171365010Y-74139697D01*
X170972370Y-73746371D01*
X170459100Y-73533243D01*
X169903339Y-73532758D01*
X169389697Y-73744990D01*
X168996371Y-74137630D01*
X168910051Y-74345512D01*
X168825010Y-74139697D01*
X168432370Y-73746371D01*
X167919100Y-73533243D01*
X167363339Y-73532758D01*
X166849697Y-73744990D01*
X166456371Y-74137630D01*
X166442930Y-74170000D01*
X166116000Y-74170000D01*
X165825161Y-74227852D01*
X165578599Y-74392599D01*
X163800599Y-76170599D01*
X163635852Y-76417161D01*
X163578000Y-76708000D01*
X163578000Y-83185000D01*
X163635852Y-83475839D01*
X163800599Y-83722401D01*
X165043198Y-84965000D01*
X164465000Y-84965000D01*
X164174161Y-85022852D01*
X163927599Y-85187599D01*
X163320000Y-85795198D01*
X163320000Y-73406000D01*
X163291386Y-73262148D01*
X163262148Y-73115160D01*
X163097401Y-72868599D01*
X162050000Y-71821198D01*
X162050000Y-71150879D01*
X162280900Y-71246757D01*
X162836661Y-71247242D01*
X163350303Y-71035010D01*
X163743629Y-70642370D01*
X163829949Y-70434488D01*
X163914990Y-70640303D01*
X164307630Y-71033629D01*
X164820900Y-71246757D01*
X165376661Y-71247242D01*
X165890303Y-71035010D01*
X166283629Y-70642370D01*
X166369949Y-70434488D01*
X166454990Y-70640303D01*
X166847630Y-71033629D01*
X167360900Y-71246757D01*
X167916661Y-71247242D01*
X168430303Y-71035010D01*
X168823629Y-70642370D01*
X168909949Y-70434488D01*
X168994990Y-70640303D01*
X169387630Y-71033629D01*
X169900900Y-71246757D01*
X170456661Y-71247242D01*
X170970303Y-71035010D01*
X171363629Y-70642370D01*
X171576757Y-70129100D01*
X171577242Y-69573339D01*
X171365010Y-69059697D01*
X170972370Y-68666371D01*
X170459100Y-68453243D01*
X169903339Y-68452758D01*
X169389697Y-68664990D01*
X168996371Y-69057630D01*
X168910051Y-69265512D01*
X168825010Y-69059697D01*
X168432370Y-68666371D01*
X167919100Y-68453243D01*
X167363339Y-68452758D01*
X166849697Y-68664990D01*
X166456371Y-69057630D01*
X166370051Y-69265512D01*
X166285010Y-69059697D01*
X165892370Y-68666371D01*
X165604325Y-68546764D01*
X165755943Y-68484117D01*
X166019192Y-68221327D01*
X166161838Y-67877799D01*
X166161879Y-67830923D01*
X173923802Y-60069000D01*
X174752000Y-60069000D01*
X175042839Y-60011148D01*
X175289401Y-59846401D01*
X175670401Y-59465401D01*
X175729794Y-59376514D01*
X175800152Y-59423526D01*
X176373641Y-59537600D01*
X176432359Y-59537600D01*
X177005848Y-59423526D01*
X177492029Y-59098670D01*
X177673000Y-58827828D01*
X177853971Y-59098670D01*
X178340152Y-59423526D01*
X178913641Y-59537600D01*
X178972359Y-59537600D01*
X179545848Y-59423526D01*
X180032029Y-59098670D01*
X180213000Y-58827828D01*
X180393971Y-59098670D01*
X180880152Y-59423526D01*
X181453641Y-59537600D01*
X181512359Y-59537600D01*
X182085848Y-59423526D01*
X182572029Y-59098670D01*
X182896885Y-58612489D01*
X183010959Y-58039000D01*
X182896885Y-57465511D01*
X182572029Y-56979330D01*
X182257248Y-56769000D01*
X182572029Y-56558670D01*
X182896885Y-56072489D01*
X183010959Y-55499000D01*
X182896885Y-54925511D01*
X182572029Y-54439330D01*
X182085848Y-54114474D01*
X181512359Y-54000400D01*
X181453641Y-54000400D01*
X180880152Y-54114474D01*
X180393971Y-54439330D01*
X180213000Y-54710172D01*
X180032029Y-54439330D01*
X179545848Y-54114474D01*
X178972359Y-54000400D01*
X178913641Y-54000400D01*
X178340152Y-54114474D01*
X177853971Y-54439330D01*
X177673000Y-54710172D01*
X177492029Y-54439330D01*
X177005848Y-54114474D01*
X176432359Y-54000400D01*
X176373641Y-54000400D01*
X175800152Y-54114474D01*
X175313971Y-54439330D01*
X175133000Y-54710172D01*
X174952029Y-54439330D01*
X174465848Y-54114474D01*
X173892359Y-54000400D01*
X173833641Y-54000400D01*
X173260152Y-54114474D01*
X172773971Y-54439330D01*
X172593000Y-54710172D01*
X172412029Y-54439330D01*
X171925848Y-54114474D01*
X171352359Y-54000400D01*
X171293641Y-54000400D01*
X170720152Y-54114474D01*
X170233971Y-54439330D01*
X170053000Y-54710172D01*
X169872029Y-54439330D01*
X169385848Y-54114474D01*
X168812359Y-54000400D01*
X168753641Y-54000400D01*
X168180152Y-54114474D01*
X167693971Y-54439330D01*
X167513000Y-54710172D01*
X167332029Y-54439330D01*
X166845848Y-54114474D01*
X166272359Y-54000400D01*
X166213641Y-54000400D01*
X165640152Y-54114474D01*
X165153971Y-54439330D01*
X164973000Y-54710172D01*
X164792029Y-54439330D01*
X164305848Y-54114474D01*
X163732359Y-54000400D01*
X163673641Y-54000400D01*
X163100152Y-54114474D01*
X162613971Y-54439330D01*
X162433000Y-54710172D01*
X162252029Y-54439330D01*
X161765848Y-54114474D01*
X161192359Y-54000400D01*
X161133641Y-54000400D01*
X160560152Y-54114474D01*
X160073971Y-54439330D01*
X159893000Y-54710172D01*
X159712029Y-54439330D01*
X159225848Y-54114474D01*
X158652359Y-54000400D01*
X158593641Y-54000400D01*
X158020152Y-54114474D01*
X157533971Y-54439330D01*
X157353000Y-54710172D01*
X157172029Y-54439330D01*
X156685848Y-54114474D01*
X156112359Y-54000400D01*
X156053641Y-54000400D01*
X155480152Y-54114474D01*
X154993971Y-54439330D01*
X154813000Y-54710172D01*
X154632029Y-54439330D01*
X154145848Y-54114474D01*
X153572359Y-54000400D01*
X153513641Y-54000400D01*
X152940152Y-54114474D01*
X152468644Y-54429526D01*
X152404927Y-54275701D01*
X152226298Y-54097073D01*
X151992909Y-54000400D01*
X151288750Y-54000400D01*
X151130000Y-54159150D01*
X151130000Y-55372000D01*
X151150000Y-55372000D01*
X151150000Y-55626000D01*
X151130000Y-55626000D01*
X151130000Y-55646000D01*
X150876000Y-55646000D01*
X150876000Y-55626000D01*
X149663150Y-55626000D01*
X149504400Y-55784750D01*
X149504400Y-56488910D01*
X149601073Y-56722299D01*
X149779702Y-56900927D01*
X149935023Y-56965263D01*
X149913971Y-56979330D01*
X149589115Y-57465511D01*
X149475041Y-58039000D01*
X149589115Y-58612489D01*
X149913971Y-59098670D01*
X150400152Y-59423526D01*
X150970269Y-59536929D01*
X148910198Y-61597000D01*
X144907000Y-61597000D01*
X144616161Y-61654852D01*
X144369599Y-61819599D01*
X141846320Y-64342878D01*
X141800833Y-64342838D01*
X141457057Y-64484883D01*
X141193808Y-64747673D01*
X141051162Y-65091201D01*
X141050838Y-65463167D01*
X141192883Y-65806943D01*
X141455673Y-66070192D01*
X141799201Y-66212838D01*
X142171167Y-66213162D01*
X142514943Y-66071117D01*
X142778192Y-65808327D01*
X142920838Y-65464799D01*
X142920879Y-65417923D01*
X145221802Y-63117000D01*
X148371632Y-63117000D01*
X148290162Y-63313201D01*
X148289838Y-63685167D01*
X148431883Y-64028943D01*
X148694673Y-64292192D01*
X149038201Y-64434838D01*
X149410167Y-64435162D01*
X149753943Y-64293117D01*
X150017192Y-64030327D01*
X150159838Y-63686799D01*
X150159879Y-63639923D01*
X153603802Y-60196000D01*
X154248198Y-60196000D01*
X150482320Y-63961878D01*
X150436833Y-63961838D01*
X150093057Y-64103883D01*
X149829808Y-64366673D01*
X149687162Y-64710201D01*
X149686838Y-65082167D01*
X149828883Y-65425943D01*
X150091673Y-65689192D01*
X150435201Y-65831838D01*
X150807167Y-65832162D01*
X151150943Y-65690117D01*
X151414192Y-65427327D01*
X151556838Y-65083799D01*
X151556879Y-65036923D01*
X156524802Y-60069000D01*
X156972000Y-60069000D01*
X157059629Y-60051569D01*
X153911320Y-63199878D01*
X153865833Y-63199838D01*
X153522057Y-63341883D01*
X153258808Y-63604673D01*
X153116162Y-63948201D01*
X153115838Y-64320167D01*
X153257883Y-64663943D01*
X153520673Y-64927192D01*
X153864201Y-65069838D01*
X154236167Y-65070162D01*
X154386124Y-65008201D01*
X154385838Y-65336167D01*
X154527883Y-65679943D01*
X154790673Y-65943192D01*
X155134201Y-66085838D01*
X155506167Y-66086162D01*
X155849943Y-65944117D01*
X156113192Y-65681327D01*
X156255838Y-65337799D01*
X156255879Y-65290923D01*
X161477802Y-60069000D01*
X161671000Y-60069000D01*
X161758629Y-60051569D01*
X159372320Y-62437878D01*
X159326833Y-62437838D01*
X158983057Y-62579883D01*
X158719808Y-62842673D01*
X158577162Y-63186201D01*
X158576838Y-63558167D01*
X158718883Y-63901943D01*
X158981673Y-64165192D01*
X159325201Y-64307838D01*
X159697167Y-64308162D01*
X160040943Y-64166117D01*
X160304192Y-63903327D01*
X160446838Y-63559799D01*
X160446879Y-63512923D01*
X163890802Y-60069000D01*
X164408198Y-60069000D01*
X155771564Y-68705634D01*
X155732370Y-68666371D01*
X155219100Y-68453243D01*
X154663339Y-68452758D01*
X154149697Y-68664990D01*
X153756371Y-69057630D01*
X153670051Y-69265512D01*
X153585010Y-69059697D01*
X153192370Y-68666371D01*
X153160000Y-68652930D01*
X153160000Y-68199000D01*
X153102148Y-67908161D01*
X152937401Y-67661599D01*
X151794401Y-66518599D01*
X151547839Y-66353852D01*
X151257000Y-66296000D01*
X141859000Y-66296000D01*
X141568161Y-66353852D01*
X141321599Y-66518599D01*
X141223941Y-66616257D01*
X141224462Y-66019828D01*
X140819291Y-65039239D01*
X140069707Y-64288345D01*
X139089827Y-63881464D01*
X138028828Y-63880538D01*
X137048239Y-64285709D01*
X136297345Y-65035293D01*
X135890464Y-66015173D01*
X135889538Y-67076172D01*
X136294709Y-68056761D01*
X137044293Y-68807655D01*
X138024173Y-69214536D01*
X138451063Y-69214909D01*
X138303243Y-69570900D01*
X138302758Y-70126661D01*
X138514990Y-70640303D01*
X138869068Y-70995000D01*
X138811000Y-70995000D01*
X138568414Y-71043254D01*
X138520160Y-71052852D01*
X138273599Y-71217599D01*
X134526198Y-74965000D01*
X133933968Y-74965000D01*
X133461354Y-75059009D01*
X133060691Y-75326723D01*
X132985002Y-75440000D01*
X128126998Y-75440000D01*
X128051309Y-75326723D01*
X127650646Y-75059009D01*
X127178032Y-74965000D01*
X126503383Y-74965000D01*
X132692940Y-65701674D01*
X133186533Y-64989329D01*
X148964474Y-54509090D01*
X149504400Y-54509090D01*
X149504400Y-55213250D01*
X149663150Y-55372000D01*
X150876000Y-55372000D01*
X150876000Y-54159150D01*
X150717250Y-54000400D01*
X150013091Y-54000400D01*
X149779702Y-54097073D01*
X149601073Y-54275701D01*
X149504400Y-54509090D01*
X148964474Y-54509090D01*
X150545646Y-53458823D01*
X155780375Y-52291076D01*
X167894000Y-49881526D01*
X184480010Y-53180688D01*
M02*
