G04 #@! TF.FileFunction,Legend,Bot*
%FSLAX46Y46*%
G04 Gerber Fmt 4.6, Leading zero omitted, Abs format (unit mm)*
G04 Created by KiCad (PCBNEW 4.0.1-stable) date Tuesday, March 22, 2016 'PMt' 12:33:31 PM*
%MOMM*%
G01*
G04 APERTURE LIST*
%ADD10C,0.100000*%
%ADD11C,0.150000*%
G04 APERTURE END LIST*
D10*
D11*
X167425000Y-138930000D02*
X167425000Y-137930000D01*
X169125000Y-137930000D02*
X169125000Y-138930000D01*
X181444000Y-71890000D02*
X181444000Y-72890000D01*
X179744000Y-72890000D02*
X179744000Y-71890000D01*
X202526000Y-73160000D02*
X202526000Y-74160000D01*
X200826000Y-74160000D02*
X200826000Y-73160000D01*
X204224000Y-71794000D02*
X205224000Y-71794000D01*
X205224000Y-73494000D02*
X204224000Y-73494000D01*
X184111000Y-71890000D02*
X184111000Y-72890000D01*
X182411000Y-72890000D02*
X182411000Y-71890000D01*
X132469000Y-104941000D02*
X133469000Y-104941000D01*
X133469000Y-106641000D02*
X132469000Y-106641000D01*
X173115000Y-142910000D02*
X173115000Y-144110000D01*
X174865000Y-144110000D02*
X174865000Y-142910000D01*
X166532143Y-138263334D02*
X166579762Y-138215715D01*
X166627381Y-138072858D01*
X166627381Y-137977620D01*
X166579762Y-137834762D01*
X166484524Y-137739524D01*
X166389286Y-137691905D01*
X166198810Y-137644286D01*
X166055952Y-137644286D01*
X165865476Y-137691905D01*
X165770238Y-137739524D01*
X165675000Y-137834762D01*
X165627381Y-137977620D01*
X165627381Y-138072858D01*
X165675000Y-138215715D01*
X165722619Y-138263334D01*
X165960714Y-139120477D02*
X166627381Y-139120477D01*
X165579762Y-138882381D02*
X166294048Y-138644286D01*
X166294048Y-139263334D01*
X183051143Y-72223334D02*
X183098762Y-72175715D01*
X183146381Y-72032858D01*
X183146381Y-71937620D01*
X183098762Y-71794762D01*
X183003524Y-71699524D01*
X182908286Y-71651905D01*
X182717810Y-71604286D01*
X182574952Y-71604286D01*
X182384476Y-71651905D01*
X182289238Y-71699524D01*
X182194000Y-71794762D01*
X182146381Y-71937620D01*
X182146381Y-72032858D01*
X182194000Y-72175715D01*
X182241619Y-72223334D01*
X182146381Y-73080477D02*
X182146381Y-72890000D01*
X182194000Y-72794762D01*
X182241619Y-72747143D01*
X182384476Y-72651905D01*
X182574952Y-72604286D01*
X182955905Y-72604286D01*
X183051143Y-72651905D01*
X183098762Y-72699524D01*
X183146381Y-72794762D01*
X183146381Y-72985239D01*
X183098762Y-73080477D01*
X183051143Y-73128096D01*
X182955905Y-73175715D01*
X182717810Y-73175715D01*
X182622571Y-73128096D01*
X182574952Y-73080477D01*
X182527333Y-72985239D01*
X182527333Y-72794762D01*
X182574952Y-72699524D01*
X182622571Y-72651905D01*
X182717810Y-72604286D01*
X204133143Y-73493334D02*
X204180762Y-73445715D01*
X204228381Y-73302858D01*
X204228381Y-73207620D01*
X204180762Y-73064762D01*
X204085524Y-72969524D01*
X203990286Y-72921905D01*
X203799810Y-72874286D01*
X203656952Y-72874286D01*
X203466476Y-72921905D01*
X203371238Y-72969524D01*
X203276000Y-73064762D01*
X203228381Y-73207620D01*
X203228381Y-73302858D01*
X203276000Y-73445715D01*
X203323619Y-73493334D01*
X203228381Y-73826667D02*
X203228381Y-74493334D01*
X204228381Y-74064762D01*
X204890666Y-70901143D02*
X204938285Y-70948762D01*
X205081142Y-70996381D01*
X205176380Y-70996381D01*
X205319238Y-70948762D01*
X205414476Y-70853524D01*
X205462095Y-70758286D01*
X205509714Y-70567810D01*
X205509714Y-70424952D01*
X205462095Y-70234476D01*
X205414476Y-70139238D01*
X205319238Y-70044000D01*
X205176380Y-69996381D01*
X205081142Y-69996381D01*
X204938285Y-70044000D01*
X204890666Y-70091619D01*
X204319238Y-70424952D02*
X204414476Y-70377333D01*
X204462095Y-70329714D01*
X204509714Y-70234476D01*
X204509714Y-70186857D01*
X204462095Y-70091619D01*
X204414476Y-70044000D01*
X204319238Y-69996381D01*
X204128761Y-69996381D01*
X204033523Y-70044000D01*
X203985904Y-70091619D01*
X203938285Y-70186857D01*
X203938285Y-70234476D01*
X203985904Y-70329714D01*
X204033523Y-70377333D01*
X204128761Y-70424952D01*
X204319238Y-70424952D01*
X204414476Y-70472571D01*
X204462095Y-70520190D01*
X204509714Y-70615429D01*
X204509714Y-70805905D01*
X204462095Y-70901143D01*
X204414476Y-70948762D01*
X204319238Y-70996381D01*
X204128761Y-70996381D01*
X204033523Y-70948762D01*
X203985904Y-70901143D01*
X203938285Y-70805905D01*
X203938285Y-70615429D01*
X203985904Y-70520190D01*
X204033523Y-70472571D01*
X204128761Y-70424952D01*
X185718143Y-72223334D02*
X185765762Y-72175715D01*
X185813381Y-72032858D01*
X185813381Y-71937620D01*
X185765762Y-71794762D01*
X185670524Y-71699524D01*
X185575286Y-71651905D01*
X185384810Y-71604286D01*
X185241952Y-71604286D01*
X185051476Y-71651905D01*
X184956238Y-71699524D01*
X184861000Y-71794762D01*
X184813381Y-71937620D01*
X184813381Y-72032858D01*
X184861000Y-72175715D01*
X184908619Y-72223334D01*
X185813381Y-72699524D02*
X185813381Y-72890000D01*
X185765762Y-72985239D01*
X185718143Y-73032858D01*
X185575286Y-73128096D01*
X185384810Y-73175715D01*
X185003857Y-73175715D01*
X184908619Y-73128096D01*
X184861000Y-73080477D01*
X184813381Y-72985239D01*
X184813381Y-72794762D01*
X184861000Y-72699524D01*
X184908619Y-72651905D01*
X185003857Y-72604286D01*
X185241952Y-72604286D01*
X185337190Y-72651905D01*
X185384810Y-72699524D01*
X185432429Y-72794762D01*
X185432429Y-72985239D01*
X185384810Y-73080477D01*
X185337190Y-73128096D01*
X185241952Y-73175715D01*
X133611857Y-104048143D02*
X133659476Y-104095762D01*
X133802333Y-104143381D01*
X133897571Y-104143381D01*
X134040429Y-104095762D01*
X134135667Y-104000524D01*
X134183286Y-103905286D01*
X134230905Y-103714810D01*
X134230905Y-103571952D01*
X134183286Y-103381476D01*
X134135667Y-103286238D01*
X134040429Y-103191000D01*
X133897571Y-103143381D01*
X133802333Y-103143381D01*
X133659476Y-103191000D01*
X133611857Y-103238619D01*
X132659476Y-104143381D02*
X133230905Y-104143381D01*
X132945191Y-104143381D02*
X132945191Y-103143381D01*
X133040429Y-103286238D01*
X133135667Y-103381476D01*
X133230905Y-103429095D01*
X132040429Y-103143381D02*
X131945190Y-103143381D01*
X131849952Y-103191000D01*
X131802333Y-103238619D01*
X131754714Y-103333857D01*
X131707095Y-103524333D01*
X131707095Y-103762429D01*
X131754714Y-103952905D01*
X131802333Y-104048143D01*
X131849952Y-104095762D01*
X131945190Y-104143381D01*
X132040429Y-104143381D01*
X132135667Y-104095762D01*
X132183286Y-104048143D01*
X132230905Y-103952905D01*
X132278524Y-103762429D01*
X132278524Y-103524333D01*
X132230905Y-103333857D01*
X132183286Y-103238619D01*
X132135667Y-103191000D01*
X132040429Y-103143381D01*
X176542381Y-143343334D02*
X176066190Y-143010000D01*
X176542381Y-142771905D02*
X175542381Y-142771905D01*
X175542381Y-143152858D01*
X175590000Y-143248096D01*
X175637619Y-143295715D01*
X175732857Y-143343334D01*
X175875714Y-143343334D01*
X175970952Y-143295715D01*
X176018571Y-143248096D01*
X176066190Y-143152858D01*
X176066190Y-142771905D01*
X176542381Y-144295715D02*
X176542381Y-143724286D01*
X176542381Y-144010000D02*
X175542381Y-144010000D01*
X175685238Y-143914762D01*
X175780476Y-143819524D01*
X175828095Y-143724286D01*
X169013095Y-146732381D02*
X169013095Y-145732381D01*
X168775000Y-145732381D01*
X168632142Y-145780000D01*
X168536904Y-145875238D01*
X168489285Y-145970476D01*
X168441666Y-146160952D01*
X168441666Y-146303810D01*
X168489285Y-146494286D01*
X168536904Y-146589524D01*
X168632142Y-146684762D01*
X168775000Y-146732381D01*
X169013095Y-146732381D01*
X167489285Y-146732381D02*
X168060714Y-146732381D01*
X167775000Y-146732381D02*
X167775000Y-145732381D01*
X167870238Y-145875238D01*
X167965476Y-145970476D01*
X168060714Y-146018095D01*
M02*
